<svg version="1.1" viewBox="0.0 0.0 600.0 371.0" fill="none" stroke="none" stroke-linecap="square" stroke-miterlimit="10" width="600" height="371" xmlns:xlink="http://www.w3.org/1999/xlink" xmlns="http://www.w3.org/2000/svg"><path fill="#ffffff" d="M0 0L600.0 0L600.0 371.0L0 371.0L0 0Z" fill-rule="nonzero"/><path stroke="#333333" stroke-width="1.0" stroke-linecap="butt" d="M45.5 272.5L581.5 272.5" fill-rule="nonzero"/><path stroke="#cccccc" stroke-width="1.0" stroke-linecap="butt" d="M45.5 230.5L581.5 230.5" fill-rule="nonzero"/><path stroke="#cccccc" stroke-width="1.0" stroke-linecap="butt" d="M45.5 188.5L581.5 188.5" fill-rule="nonzero"/><path stroke="#cccccc" stroke-width="1.0" stroke-linecap="butt" d="M45.5 145.5L581.5 145.5" fill-rule="nonzero"/><path stroke="#cccccc" stroke-width="1.0" stroke-linecap="butt" d="M45.5 103.5L581.5 103.5" fill-rule="nonzero"/><path stroke="#cccccc" stroke-width="1.0" stroke-linecap="butt" d="M45.5 61.5L581.5 61.5" fill-rule="nonzero"/><clipPath id="id_0"><path d="M45.55 61.916668L581.45 61.916668L581.45 272.06668L45.55 272.06668L45.55 61.916668Z" clip-rule="nonzero"/></clipPath><path stroke="#000000" stroke-width="2.0" stroke-linecap="butt" stroke-opacity="0.0" clip-path="url(#id_0)" d="M103.0 272.0L66.0 272.0L66.0 89.0C66.0 87.89543 66.89543 87.0 68.0 87.0L101.0 87.0C102.10457 87.0 103.0 87.89543 103.0 89.0Z" fill-rule="nonzero"/><path fill="#5891ad" clip-path="url(#id_0)" d="M103.0 272.0L66.0 272.0L66.0 89.0C66.0 87.89543 66.89543 87.0 68.0 87.0L101.0 87.0C102.10457 87.0 103.0 87.89543 103.0 89.0Z" fill-rule="nonzero"/><path stroke="#000000" stroke-width="2.0" stroke-linecap="butt" stroke-opacity="0.0" clip-path="url(#id_0)" d="M161.0 272.0L124.0 272.0L124.0 156.0C124.0 154.89543 124.89543 154.0 126.0 154.0L159.0 154.0C160.10457 154.0 161.0 154.89543 161.0 156.0Z" fill-rule="nonzero"/><path fill="#5891ad" clip-path="url(#id_0)" d="M161.0 272.0L124.0 272.0L124.0 156.0C124.0 154.89543 124.89543 154.0 126.0 154.0L159.0 154.0C160.10457 154.0 161.0 154.89543 161.0 156.0Z" fill-rule="nonzero"/><path stroke="#000000" stroke-width="2.0" stroke-linecap="butt" stroke-opacity="0.0" clip-path="url(#id_0)" d="M218.0 272.0L181.0 272.0L181.0 224.0C181.0 222.89543 181.89543 222.0 183.0 222.0L216.0 222.0C217.10457 222.0 218.0 222.89543 218.0 224.0Z" fill-rule="nonzero"/><path fill="#5891ad" clip-path="url(#id_0)" d="M218.0 272.0L181.0 272.0L181.0 224.0C181.0 222.89543 181.89543 222.0 183.0 222.0L216.0 222.0C217.10457 222.0 218.0 222.89543 218.0 224.0Z" fill-rule="nonzero"/><path stroke="#000000" stroke-width="2.0" stroke-linecap="butt" stroke-opacity="0.0" clip-path="url(#id_0)" d="M275.0 272.0L238.0 272.0L238.0 272.0L275.0 272.0Z" fill-rule="nonzero"/><path fill="#5891ad" clip-path="url(#id_0)" d="M275.0 272.0L238.0 272.0L238.0 272.0L275.0 272.0Z" fill-rule="nonzero"/><path stroke="#000000" stroke-width="2.0" stroke-linecap="butt" stroke-opacity="0.0" clip-path="url(#id_0)" d="M333.0 272.0L296.0 272.0L296.0 123.0C296.0 121.89543 296.89542 121.0 298.0 121.0L331.0 121.0C332.10458 121.0 333.0 121.89543 333.0 123.0Z" fill-rule="nonzero"/><path fill="#5891ad" clip-path="url(#id_0)" d="M333.0 272.0L296.0 272.0L296.0 123.0C296.0 121.89543 296.89542 121.0 298.0 121.0L331.0 121.0C332.10458 121.0 333.0 121.89543 333.0 123.0Z" fill-rule="nonzero"/><path stroke="#000000" stroke-width="2.0" stroke-linecap="butt" stroke-opacity="0.0" clip-path="url(#id_0)" d="M390.0 272.0L353.0 272.0L353.0 190.0C353.0 188.89543 353.89542 188.0 355.0 188.0L388.0 188.0C389.10458 188.0 390.0 188.89543 390.0 190.0Z" fill-rule="nonzero"/><path fill="#5891ad" clip-path="url(#id_0)" d="M390.0 272.0L353.0 272.0L353.0 190.0C353.0 188.89543 353.89542 188.0 355.0 188.0L388.0 188.0C389.10458 188.0 390.0 188.89543 390.0 190.0Z" fill-rule="nonzero"/><path stroke="#000000" stroke-width="2.0" stroke-linecap="butt" stroke-opacity="0.0" clip-path="url(#id_0)" d="M447.0 272.0L410.0 272.0L410.0 232.0C410.0 230.89543 410.89542 230.0 412.0 230.0L445.0 230.0C446.10458 230.0 447.0 230.89543 447.0 232.0Z" fill-rule="nonzero"/><path fill="#5891ad" clip-path="url(#id_0)" d="M447.0 272.0L410.0 272.0L410.0 232.0C410.0 230.89543 410.89542 230.0 412.0 230.0L445.0 230.0C446.10458 230.0 447.0 230.89543 447.0 232.0Z" fill-rule="nonzero"/><path stroke="#000000" stroke-width="2.0" stroke-linecap="butt" stroke-opacity="0.0" clip-path="url(#id_0)" d="M504.0 272.0L467.0 272.0L467.0 240.0C467.0 238.89543 467.89542 238.0 469.0 238.0L502.0 238.0C503.10458 238.0 504.0 238.89543 504.0 240.0Z" fill-rule="nonzero"/><path fill="#5891ad" clip-path="url(#id_0)" d="M504.0 272.0L467.0 272.0L467.0 240.0C467.0 238.89543 467.89542 238.0 469.0 238.0L502.0 238.0C503.10458 238.0 504.0 238.89543 504.0 240.0Z" fill-rule="nonzero"/><path stroke="#000000" stroke-width="2.0" stroke-linecap="butt" stroke-opacity="0.0" clip-path="url(#id_0)" d="M562.0 272.0L525.0 272.0L525.0 257.0C525.0 255.89543 525.89545 255.0 527.0 255.0L560.0 255.0C561.10455 255.0 562.0 255.89543 562.0 257.0Z" fill-rule="nonzero"/><path fill="#5891ad" clip-path="url(#id_0)" d="M562.0 272.0L525.0 272.0L525.0 257.0C525.0 255.89543 525.89545 255.0 527.0 255.0L560.0 255.0C561.10455 255.0 562.0 255.89543 562.0 257.0Z" fill-rule="nonzero"/><path fill="#000000" d="M33.05 271.8323Q33.05 270.30106 33.3625 269.37918Q33.675 268.44168 34.284374 267.94168Q34.909374 267.44168 35.846874 267.44168Q36.534374 267.44168 37.05 267.72293Q37.58125 268.00418 37.925 268.53543Q38.26875 269.05106 38.45625 269.80106Q38.64375 270.55106 38.64375 271.8323Q38.64375 273.34793 38.33125 274.2698Q38.034374 275.19168 37.409374 275.7073Q36.8 276.2073 35.846874 276.2073Q34.6125 276.2073 33.89375 275.31668Q33.05 274.25418 33.05 271.8323ZM34.128124 271.8323Q34.128124 273.94168 34.628124 274.6448Q35.128124 275.34793 35.846874 275.34793Q36.58125 275.34793 37.065624 274.6448Q37.565624 273.94168 37.565624 271.8323Q37.565624 269.7073 37.065624 269.0198Q36.58125 268.31668 35.83125 268.31668Q35.1125 268.31668 34.675 268.92606Q34.128124 269.7073 34.128124 271.8323Z" fill-rule="nonzero"/><path fill="#000000" d="M33.05 231.78667L34.159374 231.69292Q34.284374 232.50542 34.721874 232.91167Q35.175 233.31792 35.815624 233.31792Q36.565624 233.31792 37.096874 232.73979Q37.628124 232.16167 37.628124 231.22417Q37.628124 230.31792 37.1125 229.80229Q36.6125 229.27104 35.784374 229.27104Q35.284374 229.27104 34.8625 229.50542Q34.45625 229.73979 34.221874 230.09917L33.2375 229.97417L34.065624 225.56792L38.346874 225.56792L38.346874 226.56792L34.909374 226.56792L34.45625 228.88042Q35.221874 228.33354 36.065624 228.33354Q37.190624 228.33354 37.95625 229.11479Q38.7375 229.89604 38.7375 231.13042Q38.7375 232.28667 38.065624 233.14604Q37.2375 234.17729 35.815624 234.17729Q34.64375 234.17729 33.89375 233.52104Q33.159374 232.86479 33.05 231.78667Z" fill-rule="nonzero"/><path fill="#000000" d="M30.01875 192.00667L28.971874 192.00667L28.971874 185.28792Q28.58125 185.6473 27.95625 186.0223Q27.346874 186.38167 26.8625 186.55354L26.8625 185.53792Q27.7375 185.11604 28.39375 184.53792Q29.065624 183.94417 29.346874 183.38167L30.01875 183.38167L30.01875 192.00667ZM33.05 187.7723Q33.05 186.24104 33.3625 185.31917Q33.675 184.38167 34.284374 183.88167Q34.909374 183.38167 35.846874 183.38167Q36.534374 183.38167 37.05 183.66292Q37.58125 183.94417 37.925 184.47542Q38.26875 184.99104 38.45625 185.74104Q38.64375 186.49104 38.64375 187.7723Q38.64375 189.28792 38.33125 190.2098Q38.034374 191.13167 37.409374 191.6473Q36.8 192.1473 35.846874 192.1473Q34.6125 192.1473 33.89375 191.25667Q33.05 190.19417 33.05 187.7723ZM34.128124 187.7723Q34.128124 189.88167 34.628124 190.5848Q35.128124 191.28792 35.846874 191.28792Q36.58125 191.28792 37.065624 190.5848Q37.565624 189.88167 37.565624 187.7723Q37.565624 185.6473 37.065624 184.9598Q36.58125 184.25667 35.83125 184.25667Q35.1125 184.25667 34.675 184.86604Q34.128124 185.6473 34.128124 187.7723Z" fill-rule="nonzero"/><path fill="#000000" d="M30.01875 149.97667L28.971874 149.97667L28.971874 143.25792Q28.58125 143.6173 27.95625 143.9923Q27.346874 144.35167 26.8625 144.52354L26.8625 143.50792Q27.7375 143.08604 28.39375 142.50792Q29.065624 141.91417 29.346874 141.35167L30.01875 141.35167L30.01875 149.97667ZM33.05 147.72667L34.159374 147.63292Q34.284374 148.44542 34.721874 148.85167Q35.175 149.25792 35.815624 149.25792Q36.565624 149.25792 37.096874 148.6798Q37.628124 148.10167 37.628124 147.16417Q37.628124 146.25792 37.1125 145.7423Q36.6125 145.21104 35.784374 145.21104Q35.284374 145.21104 34.8625 145.44542Q34.45625 145.6798 34.221874 146.03917L33.2375 145.91417L34.065624 141.50792L38.346874 141.50792L38.346874 142.50792L34.909374 142.50792L34.45625 144.82042Q35.221874 144.27354 36.065624 144.27354Q37.190624 144.27354 37.95625 145.0548Q38.7375 145.83604 38.7375 147.07042Q38.7375 148.22667 38.065624 149.08604Q37.2375 150.1173 35.815624 150.1173Q34.64375 150.1173 33.89375 149.46104Q33.159374 148.8048 33.05 147.72667Z" fill-rule="nonzero"/><path fill="#000000" d="M31.596874 106.93104L31.596874 107.94666L25.909374 107.94666Q25.909374 107.57166 26.034374 107.21229Q26.253124 106.63416 26.721874 106.07166Q27.20625 105.50916 28.1125 104.77479Q29.51875 103.61854 30.003124 102.94666Q30.503124 102.27479 30.503124 101.68104Q30.503124 101.05604 30.05 100.63416Q29.596874 100.19666 28.878124 100.19666Q28.1125 100.19666 27.659374 100.64979Q27.20625 101.10291 27.190624 101.91541L26.1125 101.80604Q26.221874 100.58729 26.940624 99.96229Q27.675 99.32166 28.909374 99.32166Q30.14375 99.32166 30.8625 100.00916Q31.58125 100.69666 31.58125 101.71229Q31.58125 102.22791 31.3625 102.72791Q31.159374 103.21229 30.659374 103.77479Q30.175 104.32166 29.05 105.27479Q28.096874 106.07166 27.815624 106.36854Q27.55 106.64979 27.378124 106.93104L31.596874 106.93104ZM33.05 103.71229Q33.05 102.18104 33.3625 101.25916Q33.675 100.32166 34.284374 99.82166Q34.909374 99.32166 35.846874 99.32166Q36.534374 99.32166 37.05 99.60291Q37.58125 99.88416 37.925 100.41541Q38.26875 100.93104 38.45625 101.68104Q38.64375 102.43104 38.64375 103.71229Q38.64375 105.22791 38.33125 106.14979Q38.034374 107.07166 37.409374 107.58729Q36.8 108.08729 35.846874 108.08729Q34.6125 108.08729 33.89375 107.19666Q33.05 106.13416 33.05 103.71229ZM34.128124 103.71229Q34.128124 105.82166 34.628124 106.52479Q35.128124 107.22791 35.846874 107.22791Q36.58125 107.22791 37.065624 106.52479Q37.565624 105.82166 37.565624 103.71229Q37.565624 101.58729 37.065624 100.89979Q36.58125 100.19666 35.83125 100.19666Q35.1125 100.19666 34.675 100.80604Q34.128124 101.58729 34.128124 103.71229Z" fill-rule="nonzero"/><path fill="#000000" d="M31.596874 64.90104L31.596874 65.916664L25.909374 65.916664Q25.909374 65.541664 26.034374 65.18229Q26.253124 64.604164 26.721874 64.041664Q27.20625 63.479164 28.1125 62.74479Q29.51875 61.58854 30.003124 60.916664Q30.503124 60.24479 30.503124 59.65104Q30.503124 59.02604 30.05 58.604164Q29.596874 58.166664 28.878124 58.166664Q28.1125 58.166664 27.659374 58.61979Q27.20625 59.072914 27.190624 59.885414L26.1125 59.77604Q26.221874 58.55729 26.940624 57.93229Q27.675 57.291664 28.909374 57.291664Q30.14375 57.291664 30.8625 57.979164Q31.58125 58.666664 31.58125 59.68229Q31.58125 60.197914 31.3625 60.697914Q31.159374 61.18229 30.659374 61.74479Q30.175 62.291664 29.05 63.24479Q28.096874 64.041664 27.815624 64.33854Q27.55 64.61979 27.378124 64.90104L31.596874 64.90104ZM33.05 63.666664L34.159374 63.572914Q34.284374 64.385414 34.721874 64.791664Q35.175 65.197914 35.815624 65.197914Q36.565624 65.197914 37.096874 64.61979Q37.628124 64.041664 37.628124 63.104164Q37.628124 62.197914 37.1125 61.68229Q36.6125 61.15104 35.784374 61.15104Q35.284374 61.15104 34.8625 61.385414Q34.45625 61.61979 34.221874 61.979164L33.2375 61.854164L34.065624 57.447914L38.346874 57.447914L38.346874 58.447914L34.909374 58.447914L34.45625 60.760414Q35.221874 60.21354 36.065624 60.21354Q37.190624 60.21354 37.95625 60.99479Q38.7375 61.77604 38.7375 63.010414Q38.7375 64.166664 38.065624 65.02604Q37.2375 66.05729 35.815624 66.05729Q34.64375 66.05729 33.89375 65.40104Q33.159374 64.74479 33.05 63.666664Z" fill-rule="nonzero"/><path fill="#000000" d="M41.844704 331.75153L42.85012 331.16595Q43.579323 332.40338 43.44674 333.57455Q43.31416 334.7457 42.363983 335.69586Q41.380665 336.67917 40.364197 336.90015Q39.347733 337.12112 38.276024 336.69022Q37.193264 336.2483 36.32043 335.37546Q35.370255 334.4253 35.027752 333.35358Q34.685246 332.28186 34.983555 331.25433Q35.292915 330.2158 36.09946 329.40924Q37.00544 328.50327 38.088196 328.34857Q39.182003 328.18286 40.26476 328.77948L39.65709 329.7628Q38.784256 329.3098 38.07715 329.4203Q37.37004 329.50867 36.76237 330.11633Q36.066315 330.8124 35.93373 331.63Q35.801147 332.4255 36.165752 333.18784Q36.5414 333.93915 37.14907 334.5468Q37.92247 335.32022 38.717964 335.67377Q39.52451 336.01627 40.286858 335.82843Q41.049206 335.64062 41.612682 335.07715Q42.286644 334.40317 42.363983 333.55246Q42.452374 332.69064 41.844704 331.75153ZM48.24181 328.5364Q48.175518 329.3098 47.93245 329.84015Q47.700428 330.3594 47.258488 330.80136Q46.529285 331.53055 45.789032 331.56372Q45.04878 331.59686 44.496353 331.04443Q44.175945 330.72403 44.05441 330.31522Q43.92183 329.8954 44.010216 329.49762Q44.087555 329.08884 44.30853 328.7132Q44.45216 328.43698 44.849907 327.92874Q45.6454 326.93436 45.921616 326.3488Q45.766933 326.19412 45.733788 326.16098Q45.26975 325.69693 44.872 325.71902Q44.34167 325.7632 43.7782 326.3267Q43.258915 326.84598 43.192623 327.28793Q43.115284 327.7188 43.45779 328.30438L42.629147 328.93414Q42.264545 328.37067 42.209305 327.8514Q42.15406 327.33212 42.430275 326.74655Q42.70649 326.16098 43.269962 325.5975Q43.83344 325.03403 44.319576 324.81305Q44.80571 324.59207 45.170315 324.6252Q45.534916 324.65836 45.910564 324.90143Q46.13154 325.05612 46.62872 325.5533L47.62309 326.54767Q48.66165 327.58624 48.98206 327.81824Q49.31352 328.0392 49.711266 328.14972L48.92682 328.93414Q48.584312 328.81262 48.24181 328.5364ZM46.507187 326.93436Q46.26412 327.50888 45.57911 328.43698Q45.181362 328.9673 45.081924 329.2435Q44.97144 329.50867 45.015633 329.77383Q45.070877 330.02795 45.26975 330.22684Q45.56806 330.52515 45.987907 330.50305Q46.4188 330.4699 46.849693 330.039Q47.280586 329.60812 47.424217 329.08884Q47.578896 328.5585 47.40212 328.07236Q47.269535 327.69672 46.7834 327.21057L46.507187 326.93436ZM50.860313 327.00067L46.462994 322.60333L47.125904 321.94043L47.744625 322.55914Q47.512604 321.35486 48.429634 320.43784Q48.82738 320.04007 49.302467 319.85226Q49.788605 319.65338 50.18635 319.71967Q50.5841 319.78595 50.95975 320.02902Q51.20282 320.2058 51.7221 320.7251L54.428993 323.43198L53.68874 324.17224L51.01499 321.49847Q50.550953 321.03445 50.241596 320.90186Q49.932236 320.7693 49.578682 320.85767Q49.21408 320.935 48.91577 321.2333Q48.44068 321.7084 48.39649 322.3713Q48.352295 323.01215 49.191982 323.85184L51.600567 326.2604L50.860313 327.00067ZM58.141308 318.6369Q58.075016 319.4103 57.831947 319.94064Q57.599926 320.45993 57.15798 320.90186Q56.42878 321.63107 55.688526 321.6642Q54.948273 321.69736 54.395847 321.14493Q54.07544 320.82452 53.953907 320.41574Q53.821323 319.99588 53.90971 319.59814Q53.987053 319.18933 54.208023 318.8137Q54.351654 318.53748 54.7494 318.02924Q55.5449 317.03488 55.821114 316.4493Q55.66643 316.29462 55.633286 316.26147Q55.169247 315.79742 54.7715 315.81952Q54.24117 315.86374 53.677696 316.4272Q53.15841 316.94647 53.092117 317.38843Q53.01478 317.8193 53.357285 318.40488L52.528645 319.03467Q52.16404 318.4712 52.1088 317.9519Q52.053555 317.43262 52.32977 316.84705Q52.605984 316.26147 53.16946 315.698Q53.732937 315.13452 54.219074 314.91354Q54.705208 314.69257 55.069813 314.72574Q55.434414 314.75888 55.810062 315.00192Q56.031033 315.15662 56.528217 315.6538L57.522587 316.64816Q58.56115 317.68674 58.881557 317.91876Q59.213017 318.1397 59.610764 318.2502L58.826317 319.03467Q58.48381 318.91312 58.141308 318.6369ZM56.406685 317.03488Q56.163616 317.6094 55.478607 318.53748Q55.080856 319.0678 54.98142 319.34402Q54.870934 319.6092 54.91513 319.87436Q54.97037 320.12848 55.169247 320.32733Q55.467556 320.62564 55.8874 320.60355Q56.318295 320.5704 56.749187 320.13953Q57.180084 319.70862 57.323715 319.18933Q57.478394 318.659 57.301617 318.17288Q57.169033 317.7972 56.6829 317.3111L56.406685 317.03488ZM63.610336 314.25064L63.057907 313.6982Q63.28993 314.76993 62.483383 315.57648Q61.953053 316.10678 61.22385 316.26147Q60.483597 316.4051 59.72125 316.12888Q58.958897 315.85266 58.28494 315.1787Q57.63307 314.52686 57.312664 313.7645Q56.992256 313.00214 57.157986 312.284Q57.312664 311.55478 57.854046 311.01343Q58.251793 310.61566 58.72688 310.47205Q59.201965 310.3284 59.666004 310.39468L57.48944 308.21814L58.229694 307.47787L64.3064 313.55457L63.610336 314.25064ZM59.058334 314.4053Q59.909073 315.25604 60.682472 315.32236Q61.44482 315.3776 61.930958 314.89145Q62.41709 314.4053 62.36185 313.66507Q62.306606 312.9248 61.489014 312.1072Q60.583035 311.20123 59.809635 311.13495Q59.047287 311.05762 58.539055 311.56583Q58.04187 312.06302 58.11921 312.80328Q58.1855 313.53247 59.058334 314.4053ZM60.494644 306.9365L59.63286 306.0747L60.38416 305.32343L61.245945 306.1852L60.494644 306.9365ZM65.70956 312.15143L61.312237 307.7541L62.063538 307.00278L66.46086 311.40012L65.70956 312.15143ZM70.162125 306.6161Q70.09583 307.3895 69.85276 307.91983Q69.62074 308.43912 69.1788 308.88104Q68.4496 309.61026 67.70934 309.6434Q66.96909 309.67654 66.416664 309.1241Q66.09626 308.8037 65.974724 308.3949Q65.84214 307.97507 65.93053 307.57733Q66.007866 307.16852 66.22884 306.79288Q66.372475 306.51666 66.77022 306.00842Q67.56571 305.01407 67.84193 304.42847Q67.68725 304.2738 67.6541 304.24066Q67.19006 303.7766 66.79231 303.7987Q66.261986 303.8429 65.69851 304.40637Q65.17923 304.92566 65.11294 305.3676Q65.0356 305.7985 65.378105 306.38406L64.54946 307.01385Q64.18486 306.45038 64.129616 305.9311Q64.07437 305.4118 64.350586 304.82623Q64.6268 304.24066 65.19028 303.6772Q65.75375 303.1137 66.23989 302.89273Q66.72602 302.67175 67.09063 302.7049Q67.45523 302.73807 67.83088 302.9811Q68.05185 303.1358 68.549034 303.633L69.5434 304.62735Q70.58196 305.66592 70.902374 305.89795Q71.23383 306.1189 71.63158 306.2294L70.84713 307.01385Q70.50462 306.8923 70.162125 306.6161ZM68.4275 305.01407Q68.18443 305.5886 67.49942 306.51666Q67.10168 307.047 67.002235 307.3232Q66.891754 307.58838 66.93594 307.85352Q66.99119 308.10764 67.19006 308.30652Q67.48837 308.60483 67.90822 308.58273Q68.33911 308.5496 68.770004 308.11868Q69.2009 307.6878 69.34453 307.16852Q69.49921 306.63818 69.32243 306.15207Q69.18985 305.7764 68.70371 305.29028L68.4275 305.01407ZM72.780624 305.08035L68.38331 300.683L69.04622 300.0201L69.66494 300.63882Q69.432915 299.43454 70.349945 298.51752Q70.747696 298.11975 71.22278 297.93195Q71.708916 297.73306 72.10667 297.79935Q72.50441 297.86566 72.880066 298.1087Q73.12313 298.2855 73.64241 298.80478L76.349304 301.51166L75.609055 302.25192L72.9353 299.5782Q72.47127 299.11414 72.16191 298.98154Q71.85255 298.84897 71.49899 298.93735Q71.13439 299.0147 70.83608 299.31302Q70.36099 299.7881 70.3168 300.45102Q70.272606 301.09183 71.1123 301.93152L73.52088 304.3401L72.780624 305.08035ZM79.97323 297.88776L73.89653 291.81104L74.692024 291.01556L77.188995 293.5125L80.34888 290.35263L77.851906 287.85565L78.658455 287.04913L84.73515 293.12582L83.928604 293.93237L81.06703 291.0708L77.90715 294.23068L80.76872 297.09225L79.97323 297.88776ZM90.25942 286.29782Q91.209595 286.12103 91.85041 285.83377L92.18187 286.62927Q91.286934 287.0381 90.12684 287.1817Q89.82853 288.23132 89.01093 289.04892Q88.1823 289.87756 87.11059 290.15378Q86.04993 290.4189 84.96717 290.06537Q83.884415 289.71182 82.97843 288.80585Q82.083496 287.91092 81.70785 286.80606Q81.3322 285.7012 81.61946 284.64053Q81.90672 283.5799 82.73537 282.75125Q83.57505 281.91156 84.657814 281.6464Q85.74057 281.35913 86.81228 281.72372Q87.88399 282.08832 88.78996 282.9943Q89.54127 283.7456 89.90587 284.57425Q90.28152 285.39185 90.25942 286.29782ZM87.46414 287.0381Q88.35907 286.5409 89.19876 286.4746Q89.254005 285.11563 87.96133 283.82294Q87.22107 283.0827 86.41453 282.7844Q85.60799 282.48608 84.82354 282.6739Q84.03909 282.83963 83.442474 283.43625Q82.53649 284.34222 82.558586 285.55756Q82.58068 286.75082 83.807076 287.9772Q84.989265 289.1594 86.21565 289.21463Q87.43099 289.25882 88.34802 288.3418Q88.778915 287.91092 88.98884 287.36954Q88.370125 287.5021 87.85084 287.8225L87.46414 287.0381Z" fill-rule="nonzero"/><path fill="#000000" d="M121.025276 301.9978L121.831825 301.19125L125.34526 304.70468Q126.26229 305.62173 126.59374 306.37302Q126.914154 307.11328 126.71528 307.99716Q126.505356 308.87 125.63252 309.74283Q124.781784 310.59357 123.94209 310.85873Q123.1024 311.1018 122.317955 310.7814Q121.52246 310.44995 120.56124 309.4887L117.047806 305.97528L117.85435 305.16873L121.356735 308.6711Q122.15223 309.4666 122.67151 309.69864Q123.20184 309.91962 123.76532 309.77597Q124.3288 309.61026 124.848076 309.09097Q125.73196 308.2071 125.70986 307.4337Q125.67671 306.64923 124.527664 305.50018L121.025276 301.9978ZM127.25666 304.00864L127.941666 303.19104Q128.46095 303.59985 128.94708 303.68823Q129.43323 303.7766 130.02985 303.55563Q130.62646 303.3126 131.14575 302.7933Q131.59874 302.3403 131.8197 301.8542Q132.02963 301.357 131.96333 300.95923Q131.89705 300.5394 131.62083 300.26318Q131.33357 299.97592 130.95792 299.93173Q130.57121 299.8765 130.05194 300.1085Q129.69838 300.26318 128.65982 300.904Q127.63231 301.53375 127.12408 301.68845Q126.45011 301.89838 125.90874 301.77682Q125.35631 301.64426 124.93646 301.2244Q124.483475 300.77142 124.33984 300.11954Q124.19621 299.4456 124.49452 298.74954Q124.79283 298.03137 125.400505 297.4237Q126.07446 296.74976 126.81471 296.45145Q127.54392 296.1421 128.25102 296.29675Q128.94708 296.4404 129.49951 296.9486L128.78136 297.77725Q128.14053 297.269 127.48868 297.34637Q126.836815 297.4016 126.140755 298.09766Q125.41155 298.82687 125.34526 299.4235Q125.27897 300.0201 125.65462 300.39575Q125.98608 300.72723 126.42802 300.7051Q126.86996 300.683 128.0632 299.93173Q129.26749 299.16937 129.79782 298.9705Q130.58228 298.69427 131.21204 298.81583Q131.83075 298.9263 132.32794 299.4235Q132.81407 299.90964 132.96875 300.61673Q133.11238 301.3128 132.83617 302.07513Q132.5489 302.82645 131.89705 303.4783Q131.0684 304.30695 130.2729 304.6384Q129.47742 304.94775 128.67087 304.78204Q127.875374 304.60526 127.25666 304.00864ZM137.28874 297.88776L131.21204 291.81104L132.00754 291.01556L134.5045 293.5125L137.66438 290.35263L135.16742 287.85568L135.97395 287.04913L142.05066 293.12582L141.24411 293.93237L138.38254 291.0708L135.22266 294.23068L138.08423 297.09225L137.28874 297.88776ZM147.57494 286.29782Q148.5251 286.12103 149.16592 285.83377L149.49738 286.62927Q148.60245 287.0381 147.44235 287.1817Q147.14404 288.23132 146.32645 289.04892Q145.4978 289.87756 144.42609 290.15378Q143.36543 290.4189 142.28267 290.06537Q141.19992 289.71182 140.29395 288.80585Q139.399 287.91092 139.02336 286.80606Q138.6477 285.7012 138.93497 284.64053Q139.22223 283.5799 140.05087 282.75125Q140.89056 281.91156 141.97331 281.6464Q143.05608 281.35913 144.12778 281.72372Q145.1995 282.08832 146.10547 282.99432Q146.85677 283.7456 147.22137 284.57425Q147.59703 285.39185 147.57494 286.29782ZM144.77965 287.0381Q145.67458 286.5409 146.51427 286.4746Q146.5695 285.11563 145.27682 283.82294Q144.53658 283.0827 143.73004 282.7844Q142.9235 282.48608 142.13904 282.6739Q141.3546 282.83963 140.75798 283.43625Q139.85199 284.34222 139.8741 285.55756Q139.8962 286.75082 141.12257 287.9772Q142.30478 289.1594 143.53116 289.21463Q144.7465 289.25882 145.66353 288.3418Q146.09442 287.91092 146.30435 287.36954Q145.68562 287.5021 145.16635 287.8225L144.77965 287.0381Z" fill-rule="nonzero"/><path fill="#000000" d="M193.86398 298.628L187.7873 292.5513L188.60489 291.7337L196.57088 293.31366L191.79791 288.54068L192.5713 287.76727L198.64801 293.844L197.81937 294.6726L189.85336 293.09268L194.62634 297.86566L193.86398 298.628ZM199.67552 293.01535L195.15666 284.98306L195.7533 284.3864L200.27214 292.41873L199.67552 293.01535ZM201.68636 290.80563L197.9409 282.39767L198.80269 281.5359L207.36531 285.12668L206.45934 286.03265L203.89607 284.9057L201.36595 287.43582L202.5371 289.9549L201.68636 290.80563ZM200.9461 286.55194L203.00113 284.49692L200.69199 283.4473Q199.63133 282.98328 199.00156 282.61865Q199.4656 283.32578 199.8302 284.1102L200.9461 286.55194Z" fill-rule="nonzero"/><path fill="#000000" d="M258.05838 343.76132L255.74925 349.49548L255.009 348.75525L256.86517 344.24744L252.37946 346.1257L251.63919 345.38544L257.36234 343.06525L258.05838 343.76132ZM264.33395 342.78903L263.59372 343.5293L258.84283 338.7784Q258.82074 339.30875 258.64395 340.01587Q258.4672 340.70087 258.24622 341.16492L257.52805 340.44675Q257.84848 339.52972 257.90372 338.6569Q257.95895 337.76196 257.76007 337.16534L258.23517 336.69025L264.33395 342.78903ZM263.48322 337.65146Q262.40048 336.56873 261.96957 335.69586Q261.52762 334.81198 261.60498 334.02756Q261.69336 333.23206 262.35626 332.56915Q262.8424 332.083 263.40588 331.91727Q263.9804 331.7405 264.59912 331.87308Q265.2068 331.99463 265.86972 332.39236Q266.53262 332.7901 267.4386 333.69608Q268.5103 334.7678 268.9412 335.64062Q269.38315 336.5024 269.30582 337.30896Q269.22845 338.0934 268.5545 338.76736Q267.68167 339.6402 266.54367 339.51868Q265.19574 339.36398 263.48322 337.65146ZM264.24557 336.88913Q265.73712 338.38068 266.58786 338.5243Q267.4386 338.66794 267.94684 338.1597Q268.46613 337.6404 268.31143 336.80072Q268.16782 335.94998 266.67624 334.45844Q265.17365 332.95584 264.33395 332.82324Q263.49426 332.66858 262.96396 333.1989Q262.45572 333.70715 262.57724 334.4474Q262.74298 335.3865 264.24557 336.88913ZM268.43298 332.70172Q267.35022 331.61896 266.9193 330.74612Q266.4774 329.86224 266.55472 329.0778Q266.6431 328.28232 267.30603 327.6194Q267.79214 327.13324 268.35562 326.96753Q268.93015 326.79074 269.5489 326.92334Q270.15656 327.04486 270.81946 327.44263Q271.48236 327.84036 272.38834 328.74634Q273.46005 329.81805 273.89096 330.6909Q274.3329 331.55267 274.25555 332.35922Q274.17822 333.14368 273.50424 333.81763Q272.6314 334.69046 271.4934 334.56894Q270.1455 334.41425 268.43298 332.70172ZM269.1953 331.93936Q270.6869 333.43094 271.53763 333.57455Q272.38834 333.7182 272.89658 333.20996Q273.41586 332.69067 273.2612 331.85098Q273.11755 331.00024 271.626 329.5087Q270.1234 328.0061 269.28372 327.8735Q268.44403 327.71884 267.9137 328.24915Q267.40546 328.7574 267.52698 329.49765Q267.69272 330.43677 269.1953 331.93936ZM280.2991 323.99548L281.1609 323.31046Q281.65808 324.1612 281.53656 325.03403Q281.415 325.90686 280.65265 326.66922Q279.69144 327.63043 278.5203 327.60834Q277.3602 327.5752 276.28848 326.50348Q275.18362 325.39862 275.15048 324.21643Q275.1063 323.0232 276.01227 322.11722Q276.89615 321.23334 278.0452 321.27753Q279.2053 321.31067 280.2991 322.40448Q280.3654 322.47076 280.498 322.60336L277.21655 325.88477Q277.98996 326.5698 278.74127 326.5919Q279.4815 326.60294 280.03394 326.0505Q280.44275 325.6417 280.52008 325.14453Q280.5974 324.62524 280.2991 323.99548ZM276.65308 325.2329L279.10587 322.78012Q278.4982 322.26083 277.98996 322.21664Q277.19446 322.15036 276.63098 322.71384Q276.11172 323.23312 276.10065 323.92917Q276.10065 324.6142 276.65308 325.2329ZM283.65787 323.46515L279.26056 319.0678L279.92346 318.4049L280.54218 319.02362Q280.42065 318.48224 280.57532 317.9519Q280.71896 317.41052 281.1609 316.9686Q281.64703 316.48245 282.15527 316.37198Q282.67453 316.25043 283.16068 316.4935Q282.92865 315.20084 283.7573 314.3722Q284.42023 313.7093 285.12732 313.73138Q285.83444 313.73138 286.59677 314.4937L289.61304 317.50998L288.87277 318.2502L286.09958 315.47705Q285.65765 315.0351 285.38144 314.91357Q285.11627 314.78098 284.80692 314.84726Q284.49756 314.91357 284.2324 315.17874Q283.76834 315.64276 283.76834 316.26147Q283.7794 316.86917 284.46442 317.55417L287.01663 320.10638L286.26532 320.8577L283.40375 317.99612Q282.90656 317.49893 282.47568 317.4437Q282.04477 317.36633 281.636 317.77515Q281.31558 318.09555 281.21613 318.52643Q281.1167 318.95734 281.31558 319.39926Q281.51443 319.84122 282.11108 320.43784L284.39813 322.72488L283.65787 323.46515ZM293.12646 317.37738L287.03873 311.28964L287.71268 310.6157L288.27615 311.17917Q288.18777 310.60464 288.32034 310.1406Q288.464 309.6655 288.89487 309.23462Q289.45834 308.67114 290.1765 308.5275Q290.89465 308.38388 291.63492 308.70428Q292.3862 309.01364 293.016 309.6434Q293.68994 310.31738 293.98825 311.1018Q294.2976 311.8752 294.12085 312.62653Q293.94406 313.3778 293.43582 313.88605Q293.06018 314.2617 292.60718 314.40533Q292.14316 314.5379 291.7233 314.4937L293.86673 316.63715L293.12646 317.37738ZM289.93344 312.83643Q290.78418 313.68716 291.5355 313.75348Q292.27573 313.80872 292.76187 313.32257Q293.25906 312.82538 293.19275 312.052Q293.12646 311.2786 292.24258 310.3947Q291.4029 309.55502 290.65158 309.48874Q289.88925 309.41138 289.4031 309.89752Q288.928 310.37262 289.00537 311.17917Q289.0827 311.9857 289.93344 312.83643ZM296.36368 310.7593L290.287 304.68262L291.0383 303.9313L297.115 310.00803L296.36368 310.7593ZM296.03223 306.69345Q294.80585 305.46707 294.89423 304.20752Q294.9716 303.15793 295.78915 302.34033Q296.69516 301.43436 297.8663 301.45645Q299.03745 301.45645 300.08704 302.50604Q300.93777 303.35678 301.1698 304.09705Q301.40182 304.83728 301.18085 305.6107Q300.95987 306.362 300.38535 306.93652Q299.46832 307.85355 298.30823 307.8425Q297.14813 307.80936 296.03223 306.69345ZM296.7946 305.9311Q297.63428 306.77078 298.41873 306.82602Q299.2142 306.87024 299.76663 306.3178Q300.3301 305.75433 300.27487 304.96988Q300.21964 304.18542 299.35785 303.32364Q298.54025 302.50604 297.74475 302.46185Q296.9603 302.40662 296.4079 302.95905Q295.85547 303.51147 295.89966 304.30698Q295.94385 305.08035 296.7946 305.9311ZM305.11414 305.3897L304.32968 304.78204Q304.63904 304.6053 304.82687 304.41745Q305.06995 304.17438 305.12518 303.94235Q305.2025 303.71036 305.15833 303.4673Q305.1031 303.27945 304.82687 302.67178Q304.78268 302.6055 304.7164 302.4287L298.62863 299.6997L299.43518 298.8932L302.89337 300.5173Q303.5563 300.82666 304.2413 301.22443Q303.8546 300.57257 303.54526 299.90964L301.9211 296.40726L302.66135 295.667L305.46768 301.81Q305.90964 302.80435 306.0422 303.2242Q306.219 303.79874 306.11957 304.2296Q306.0422 304.66052 305.68866 305.01407Q305.47873 305.224 305.11414 305.3897ZM308.58337 295.7112L309.44516 295.02618Q309.94235 295.87692 309.82083 296.74976Q309.69928 297.6226 308.93692 298.38495Q307.9757 299.34616 306.80457 299.32407Q305.64447 299.29092 304.57275 298.2192Q303.4679 297.11435 303.43475 295.93216Q303.39056 294.73892 304.29654 293.83295Q305.18042 292.94907 306.32947 292.99326Q307.48956 293.0264 308.58337 294.1202Q308.64966 294.1865 308.78226 294.3191L305.50082 297.6005Q306.27423 298.28552 307.02554 298.30762Q307.76578 298.31866 308.3182 297.76624Q308.72702 297.35742 308.80435 296.86026Q308.88168 296.34097 308.58337 295.7112ZM304.93735 296.94864L307.39014 294.49585Q306.78247 293.97656 306.27423 293.93237Q305.47873 293.8661 304.91525 294.42957Q304.396 294.94885 304.38492 295.6449Q304.38492 296.32993 304.93735 296.94864ZM313.53314 290.76144L314.39493 290.07645Q314.8921 290.9272 314.77057 291.80002Q314.64902 292.67285 313.8867 293.4352Q312.92545 294.39642 311.7543 294.37433Q310.5942 294.3412 309.5225 293.26947Q308.41766 292.1646 308.3845 290.98242Q308.3403 289.78918 309.24628 288.8832Q310.1302 287.99933 311.27924 288.04352Q312.43933 288.07666 313.53314 289.17047Q313.59943 289.23676 313.732 289.36932L310.4506 292.65076Q311.22397 293.33575 311.97528 293.35785Q312.71555 293.3689 313.26797 292.81647Q313.67676 292.40768 313.7541 291.9105Q313.83145 291.3912 313.53314 290.76144ZM309.88712 291.9989L312.33987 289.5461Q311.7322 289.02682 311.22397 288.98264Q310.4285 288.91635 309.86502 289.47983Q309.34573 289.9991 309.3347 290.69516Q309.3347 291.38016 309.88712 291.9989ZM315.2788 289.21466L315.89752 288.37497Q316.40576 288.7506 316.91397 288.70642Q317.43326 288.65118 317.95255 288.1319Q318.4608 287.62366 318.50497 287.18173Q318.54916 286.71768 318.2619 286.43042Q318.00778 286.1763 317.6432 286.25363Q317.38907 286.3089 316.6267 286.76187Q315.5992 287.36954 315.13516 287.54633Q314.6711 287.701 314.24023 287.60156Q313.80933 287.50214 313.47787 287.1707Q313.1906 286.88342 313.0691 286.4967Q312.94754 286.11002 313.01385 285.71228Q313.0691 285.41394 313.27902 285.02725Q313.48892 284.64056 313.8425 284.28702Q314.3507 283.77878 314.8921 283.54675Q315.43347 283.29263 315.87543 283.35892Q316.31735 283.42523 316.8035 283.77878L316.17374 284.60742Q315.79807 284.32016 315.3672 284.3754Q314.93628 284.40854 314.49435 284.8505Q313.9861 285.3587 313.94193 285.75647Q313.8867 286.14316 314.1187 286.37518Q314.26233 286.5188 314.4612 286.5409Q314.6822 286.563 314.94733 286.4525Q315.10202 286.38623 315.79807 285.97742Q316.81454 285.4029 317.2565 285.22614Q317.69843 285.04935 318.12933 285.12668Q318.5602 285.20404 318.9469 285.59073Q319.32257 285.96637 319.43304 286.5188Q319.54355 287.04913 319.32257 287.64575Q319.09055 288.23132 318.57126 288.7506Q317.70947 289.6124 316.90292 289.71185Q316.09637 289.78918 315.2788 289.21466Z" fill-rule="nonzero"/><path fill="#000000" d="M344.2769 320.16162L343.53665 320.90186L338.78577 316.151Q338.76367 316.68134 338.58688 317.38843Q338.41013 318.07343 338.18915 318.53748L337.471 317.81934Q337.7914 316.90228 337.84665 316.02945Q337.9019 315.13452 337.703 314.5379L338.1781 314.0628L344.2769 320.16162ZM343.42615 315.02405Q342.3434 313.94128 341.9125 313.06845Q341.47058 312.18457 341.5479 311.40012Q341.6363 310.6046 342.2992 309.9417Q342.78534 309.45557 343.34882 309.28986Q343.92334 309.11307 344.54205 309.24567Q345.14972 309.3672 345.81265 309.76492Q346.47556 310.1627 347.38153 311.06866Q348.45325 312.14038 348.88412 313.0132Q349.32608 313.875 349.24875 314.68155Q349.17142 315.46597 348.49744 316.13995Q347.6246 317.0128 346.4866 316.89124Q345.13867 316.73657 343.42615 315.02405ZM344.1885 314.2617Q345.68005 315.75323 346.5308 315.89688Q347.38153 316.0405 347.88977 315.5323Q348.40906 315.013 348.25436 314.1733Q348.11075 313.32257 346.6192 311.83102Q345.11658 310.3284 344.2769 310.19583Q343.4372 310.04114 342.9069 310.57147Q342.39865 311.0797 342.52017 311.81998Q342.6859 312.7591 344.1885 314.2617ZM348.37592 310.07428Q347.29315 308.99155 346.86224 308.1187Q346.42032 307.23483 346.49765 306.45038Q346.58603 305.65488 347.24896 304.99197Q347.73508 304.50583 348.29855 304.3401Q348.87308 304.16333 349.49182 304.2959Q350.0995 304.41745 350.7624 304.8152Q351.4253 305.21292 352.3313 306.11893Q353.40298 307.1906 353.8339 308.06345Q354.27582 308.92523 354.1985 309.73178Q354.12115 310.51624 353.44717 311.1902Q352.57434 312.06302 351.43634 311.9415Q350.08844 311.7868 348.37592 310.07428ZM349.13824 309.31195Q350.62982 310.8035 351.48056 310.94714Q352.3313 311.09076 352.8395 310.58252Q353.3588 310.06323 353.20413 309.22357Q353.0605 308.37283 351.56894 306.88126Q350.06635 305.37866 349.22665 305.2461Q348.38696 305.0914 347.85663 305.62173Q347.3484 306.12997 347.46994 306.8702Q347.63565 307.80936 349.13824 309.31195ZM354.40842 306.3841L353.6571 305.63278L355.9552 303.3347L356.7065 304.086L354.40842 306.3841ZM361.95456 302.48395L361.21432 303.2242L356.46344 298.47333Q356.44135 299.00366 356.26456 299.71075Q356.0878 300.39578 355.86682 300.8598L355.14865 300.14166Q355.4691 299.22464 355.52432 298.35178Q355.57956 297.45685 355.38068 296.86023L355.85577 296.38516L361.95456 302.48395ZM361.10382 297.34637Q360.02106 296.2636 359.59018 295.39078Q359.14822 294.5069 359.2256 293.72244Q359.31396 292.92694 359.97687 292.26404Q360.463 291.7779 361.0265 291.61218Q361.601 291.4354 362.21973 291.568Q362.8274 291.6895 363.49033 292.08728Q364.15323 292.48502 365.0592 293.391Q366.13092 294.4627 366.5618 295.33554Q367.00375 296.19733 366.92642 297.00388Q366.84906 297.7883 366.1751 298.46228Q365.30228 299.3351 364.16428 299.21356Q362.81635 299.0589 361.10382 297.34637ZM361.86618 296.584Q363.35773 298.07556 364.20847 298.2192Q365.0592 298.36282 365.56744 297.8546Q366.08673 297.33533 365.93204 296.49564Q365.78842 295.6449 364.29684 294.15335Q362.79425 292.65073 361.95456 292.51816Q361.11487 292.36346 360.58453 292.8938Q360.07632 293.40204 360.19785 294.1423Q360.3636 295.08142 361.86618 296.584ZM366.0536 292.39664Q364.97083 291.31387 364.53992 290.44104Q364.098 289.55716 364.17532 288.7727Q364.2637 287.9772 364.92664 287.3143Q365.41275 286.82816 365.97623 286.66245Q366.55075 286.48566 367.16946 286.61823Q367.77716 286.73978 368.44006 287.1375Q369.10297 287.53528 370.00894 288.44125Q371.08066 289.51297 371.51157 290.3858Q371.9535 291.2476 371.87616 292.0541Q371.79883 292.83856 371.12485 293.51254Q370.252 294.38538 369.114 294.26382Q367.7661 294.10916 366.0536 292.39664ZM366.81592 291.63428Q368.30746 293.12582 369.1582 293.26947Q370.00894 293.4131 370.51718 292.90485Q371.03647 292.3856 370.88177 291.5459Q370.73816 290.69516 369.2466 289.20358Q367.74402 287.701 366.90433 287.56842Q366.06464 287.41373 365.5343 287.94406Q365.02606 288.4523 365.14758 289.19254Q365.31332 290.13168 366.81592 291.63428ZM371.00333 287.44687Q369.92056 286.3641 369.4897 285.49127Q369.04773 284.6074 369.12506 283.82297Q369.21347 283.02747 369.87637 282.36453Q370.36252 281.87842 370.926 281.71268Q371.50052 281.53592 372.11923 281.6685Q372.7269 281.79 373.3898 282.18777Q374.05273 282.5855 374.9587 283.4915Q376.03043 284.5632 376.4613 285.43604Q376.90326 286.29782 376.8259 287.10437Q376.74857 287.88882 376.07462 288.56277Q375.20178 289.4356 374.06378 289.3141Q372.71585 289.1594 371.00333 287.44687ZM371.7657 286.68454Q373.25723 288.1761 374.10797 288.3197Q374.9587 288.46335 375.46695 287.9551Q375.9862 287.43582 375.83154 286.59613Q375.6879 285.7454 374.19635 284.25385Q372.69376 282.75125 371.85406 282.61865Q371.01437 282.464 370.48404 282.99432Q369.9758 283.50253 370.09735 284.2428Q370.26306 285.18192 371.7657 286.68454Z" fill-rule="nonzero"/><path fill="#000000" d="M414.32034 307.4337L413.58008 308.17395L408.82922 303.42307Q408.8071 303.9534 408.63034 304.6605Q408.45355 305.34552 408.23257 305.80954L407.51443 305.0914Q407.83484 304.17438 407.89008 303.3015Q407.9453 302.4066 407.74646 301.80997L408.22153 301.3349L414.32034 307.4337ZM413.4696 302.2961Q412.38684 301.21335 411.95596 300.3405Q411.514 299.45663 411.59134 298.67218Q411.67975 297.87668 412.34265 297.21378Q412.8288 296.72763 413.39227 296.56192Q413.9668 296.38513 414.5855 296.51773Q415.19318 296.63925 415.85608 297.03702Q416.51898 297.43475 417.425 298.34073Q418.49667 299.41245 418.92758 300.28528Q419.3695 301.14706 419.29218 301.9536Q419.21484 302.73804 418.5409 303.41202Q417.66806 304.28485 416.53006 304.1633Q415.18213 304.00864 413.4696 302.2961ZM414.23193 301.53375Q415.7235 303.02533 416.57425 303.16895Q417.425 303.3126 417.9332 302.80435Q418.45248 302.28506 418.29782 301.44537Q418.15417 300.59464 416.66263 299.1031Q415.16003 297.6005 414.32034 297.4679Q413.48065 297.31323 412.95032 297.84354Q412.44208 298.35178 412.56363 299.09204Q412.72934 300.03116 414.23193 301.53375ZM418.41934 297.34637Q417.33658 296.2636 416.9057 295.39078Q416.46375 294.5069 416.5411 293.72244Q416.6295 292.92694 417.2924 292.26404Q417.77853 291.7779 418.342 291.61218Q418.91653 291.4354 419.53525 291.56796Q420.1429 291.6895 420.80582 292.08725Q421.46875 292.48502 422.37473 293.391Q423.44644 294.4627 423.87732 295.33554Q424.31927 296.19733 424.24194 297.00385Q424.16458 297.7883 423.49063 298.46228Q422.6178 299.3351 421.4798 299.21356Q420.13187 299.0589 418.41934 297.34637ZM419.1817 296.584Q420.67325 298.07556 421.524 298.2192Q422.37473 298.36282 422.88297 297.85458Q423.40225 297.33533 423.24756 296.49564Q423.10394 295.6449 421.61237 294.15332Q420.10977 292.65073 419.27008 292.51816Q418.4304 292.36346 417.90005 292.8938Q417.39185 293.40204 417.51337 294.14227Q417.6791 295.08142 419.1817 296.584ZM423.36908 292.3966Q422.28635 291.31387 421.85544 290.441Q421.4135 289.55713 421.49084 288.7727Q421.57922 287.9772 422.24216 287.3143Q422.72827 286.82816 423.29175 286.6624Q423.86627 286.48566 424.485 286.61823Q425.09265 286.73978 425.75558 287.1375Q426.4185 287.53525 427.32446 288.44122Q428.39618 289.51294 428.8271 290.38577Q429.269 291.24756 429.19168 292.0541Q429.11435 292.83856 428.44037 293.5125Q427.56754 294.38535 426.42953 294.26382Q425.0816 294.10913 423.36908 292.3966ZM424.13144 291.63428Q425.623 293.12582 426.47372 293.26944Q427.32446 293.4131 427.8327 292.90485Q428.352 292.38556 428.1973 291.54587Q428.05368 290.69513 426.56213 289.20358Q425.0595 287.701 424.21982 287.5684Q423.38016 287.41373 422.84982 287.94406Q422.34158 288.45227 422.4631 289.19254Q422.62885 290.13165 424.13144 291.63428ZM432.09744 287.68994L430.4291 286.0216L428.78287 287.66785L428.08682 286.97177L429.73306 285.32556L428.08682 283.67932L428.7939 282.9722L430.44016 284.61844L432.09744 282.96115L432.7935 283.65723L431.13623 285.3145L432.80453 286.98282L432.09744 287.68994Z" fill-rule="nonzero"/><path fill="#000000" d="M455.02988 324.03964L448.9532 317.96295L453.0522 313.86395L453.77032 314.5821L450.47787 317.87457L452.3561 319.7528L455.20663 316.90228L455.9248 317.62045L453.07428 320.47098L455.83643 323.23312L455.02988 324.03964ZM459.836 319.23355L455.43866 314.8362L456.11264 314.16226L456.77554 314.82516Q456.5656 314.10703 456.6319 313.75345Q456.6982 313.3778 456.96338 313.11264Q457.33902 312.737 457.95773 312.5823L458.3997 313.5325Q457.95773 313.64297 457.69257 313.90814Q457.43845 314.16226 457.39426 314.5158Q457.35007 314.84726 457.5379 315.18976Q457.80307 315.7201 458.2671 316.18414L460.57623 318.4933L459.836 319.23355ZM464.26645 311.97464L465.12823 311.28964Q465.62543 312.14038 465.50388 313.0132Q465.38235 313.88605 464.62 314.6484Q463.65878 315.60962 462.48764 315.58752Q461.32755 315.55438 460.25583 314.48267Q459.15097 313.3778 459.11783 312.19562Q459.07364 311.00238 459.9796 310.0964Q460.8635 309.21252 462.01254 309.2567Q463.17264 309.28986 464.26645 310.38367Q464.33273 310.44995 464.46533 310.58252L461.1839 313.86395Q461.9573 314.54895 462.70862 314.57104Q463.44885 314.5821 464.00128 314.02966Q464.4101 313.62088 464.48743 313.1237Q464.56476 312.6044 464.26645 311.97464ZM460.62042 313.2121L463.0732 310.7593Q462.46555 310.24002 461.9573 310.19583Q461.1618 310.12955 460.59833 310.69302Q460.07907 311.2123 460.068 311.90836Q460.068 312.59335 460.62042 313.2121ZM469.2162 307.0249L470.078 306.3399Q470.57516 307.1906 470.45364 308.06348Q470.3321 308.9363 469.56976 309.69864Q468.60852 310.65988 467.43738 310.6378Q466.27728 310.6046 465.20557 309.53293Q464.10074 308.42807 464.06757 307.24588Q464.02338 306.05264 464.92935 305.14664Q465.81326 304.26276 466.9623 304.30695Q468.1224 304.34012 469.2162 305.4339Q469.2825 305.5002 469.41507 305.63278L466.13367 308.9142Q466.90704 309.5992 467.65836 309.6213Q468.39862 309.63235 468.95105 309.07993Q469.35983 308.67114 469.43716 308.17395Q469.51453 307.65466 469.2162 307.0249ZM465.5702 308.26233L468.02295 305.80957Q467.41528 305.29028 466.90704 305.2461Q466.11157 305.17978 465.5481 305.74326Q465.0288 306.26254 465.01776 306.95862Q465.01776 307.64362 465.5702 308.26233ZM472.55286 306.51666L466.47617 300.43997L467.22748 299.68866L473.30417 305.76535L472.55286 306.51666ZM477.02753 300.95926Q476.96124 301.73264 476.71817 302.26297Q476.48615 302.78226 476.0442 303.2242Q475.315 303.9534 474.57474 303.98654Q473.8345 304.01968 473.28207 303.46725Q472.96167 303.14685 472.84012 302.73807Q472.70755 302.3182 472.79593 301.92047Q472.87326 301.5117 473.09424 301.13602Q473.23788 300.8598 473.63562 300.3516Q474.43112 299.3572 474.70734 298.77164Q474.55264 298.61694 474.5195 298.5838Q474.05545 298.11978 473.6577 298.14188Q473.12738 298.18607 472.5639 298.74954Q472.04462 299.26883 471.97833 299.71075Q471.901 300.14166 472.2435 300.72723L471.41486 301.357Q471.05026 300.79352 470.99503 300.27423Q470.9398 299.75494 471.21597 299.16937Q471.4922 298.5838 472.05566 298.02032Q472.61914 297.45685 473.1053 297.2359Q473.59143 297.01492 473.95602 297.04807Q474.32062 297.0812 474.6963 297.32428Q474.91724 297.47894 475.41443 297.97614L476.4088 298.97052Q477.44736 300.00906 477.76776 300.2411Q478.09924 300.46207 478.49698 300.57254L477.71252 301.357Q477.37003 301.23547 477.02753 300.95926ZM475.2929 299.3572Q475.04984 299.93173 474.36484 300.8598Q473.96707 301.39014 473.86765 301.66635Q473.75714 301.93152 473.80136 302.1967Q473.8566 302.4508 474.05545 302.6497Q474.35376 302.948 474.77362 302.9259Q475.2045 302.89273 475.6354 302.46185Q476.06628 302.03094 476.20993 301.5117Q476.36462 300.98135 476.18784 300.4952Q476.05524 300.11957 475.56912 299.63342L475.2929 299.3572ZM479.64603 299.4235L475.24872 295.02618L475.91162 294.36328L476.53033 294.982Q476.2983 293.7777 477.21533 292.86066Q477.6131 292.46292 478.0882 292.2751Q478.5743 292.07623 478.97208 292.14252Q479.3698 292.2088 479.74545 292.45187Q479.98853 292.62866 480.5078 293.14792L483.2147 295.85483L482.47446 296.59506L479.80072 293.92133Q479.33667 293.45728 479.0273 293.3247Q478.71796 293.1921 478.3644 293.28052Q477.9998 293.35785 477.70148 293.65616Q477.2264 294.13126 477.1822 294.79416Q477.138 295.43497 477.9777 296.27466L480.3863 298.68326L479.64603 299.4235ZM485.85532 289.98804L486.68396 289.35828Q487.31372 290.2311 487.24744 291.15918Q487.18112 292.08728 486.46298 292.80542Q485.557 293.7114 484.419 293.67825Q483.281 293.62302 482.17615 292.51816Q481.46902 291.81107 481.17072 291.0487Q480.8724 290.26425 481.08234 289.52402Q481.3033 288.7727 481.87784 288.19818Q482.58493 287.4911 483.40253 287.40268Q484.22012 287.2922 485.02667 287.8336L484.40796 288.67328Q483.86658 288.33075 483.38043 288.37497Q482.88324 288.4081 482.5076 288.78375Q481.94412 289.34723 481.99936 290.1096Q482.04355 290.86087 482.91638 291.7337Q483.81134 292.62866 484.55157 292.6839Q485.29184 292.73914 485.83322 292.19775Q486.27515 291.7558 486.29724 291.2034Q486.33038 290.63992 485.85532 289.98804ZM490.4294 285.8117L491.2912 285.12668Q491.78836 285.97742 491.66684 286.85025Q491.54532 287.72308 490.78296 288.48544Q489.82175 289.44666 488.6506 289.42456Q487.49048 289.39142 486.4188 288.3197Q485.31393 287.21487 485.2808 286.03265Q485.2366 284.83942 486.14258 283.93344Q487.02646 283.04956 488.1755 283.09375Q489.3356 283.1269 490.4294 284.2207Q490.4957 284.287 490.62827 284.4196L487.34686 287.701Q488.12027 288.38602 488.87155 288.4081Q489.61182 288.41916 490.16425 287.86673Q490.57303 287.45792 490.6504 286.96075Q490.72772 286.44147 490.4294 285.8117ZM486.7834 287.04913L489.23618 284.59634Q488.62848 284.0771 488.12027 284.03287Q487.32477 283.96658 486.7613 284.53006Q486.242 285.04935 486.23096 285.7454Q486.23096 286.43042 486.7834 287.04913Z" fill-rule="nonzero"/><path fill="#000000" d="M487.51932 348.86572L481.44263 342.78903L482.24915 341.98248L487.6077 347.34103L490.60187 344.34686L491.32 345.06503L487.51932 348.86572ZM489.93893 342.04877Q488.71255 340.8224 488.80093 339.56284Q488.8783 338.51324 489.69586 337.69565Q490.60187 336.78967 491.773 336.81177Q492.94415 336.81177 493.99374 337.8614Q494.84448 338.71213 495.0765 339.45236Q495.30853 340.19263 495.08755 340.966Q494.8666 341.71732 494.29208 342.29184Q493.37503 343.20886 492.21494 343.1978Q491.05484 343.16467 489.93893 342.04877ZM490.7013 341.28644Q491.541 342.1261 492.32544 342.18137Q493.1209 342.22556 493.67334 341.67313Q494.23682 341.10965 494.18158 340.3252Q494.12634 339.54074 493.26456 338.67896Q492.44696 337.8614 491.65146 337.81717Q490.86703 337.76193 490.3146 338.31436Q489.76218 338.8668 489.80637 339.6623Q489.85056 340.4357 490.7013 341.28644ZM494.8887 337.09903Q493.6623 335.87265 493.7507 334.6131Q493.82803 333.56348 494.64563 332.7459Q495.5516 331.8399 496.72275 331.86203Q497.8939 331.86203 498.9435 332.91162Q499.79425 333.76236 500.02628 334.50262Q500.25827 335.24286 500.03732 336.01627Q499.81635 336.76758 499.24182 337.3421Q498.3248 338.25912 497.1647 338.24808Q496.0046 338.21494 494.8887 337.09903ZM495.65103 336.33667Q496.49072 337.17636 497.27518 337.2316Q498.07068 337.2758 498.6231 336.7234Q499.18658 336.1599 499.13132 335.37546Q499.07608 334.591 498.2143 333.72922Q497.3967 332.91162 496.60123 332.86743Q495.81677 332.8122 495.26434 333.36462Q494.7119 333.91705 494.7561 334.71255Q494.8003 335.48593 495.65103 336.33667ZM502.31332 334.07172L496.2366 327.99503L496.9879 327.2437L500.45715 330.71298L500.424 327.16638L501.39627 326.19412L501.33 329.50867L505.95932 330.42572L505.0423 331.34274L501.33 330.54724L501.31894 331.57477L503.0646 333.32043L502.31332 334.07172ZM501.34103 324.61417L500.47925 323.75238L501.23056 323.0011L502.09235 323.86288L501.34103 324.61417ZM506.55594 329.82907L502.15863 325.43176L502.90994 324.68045L507.30725 329.0778L506.55594 329.82907ZM508.67725 327.7078L504.27994 323.31046L504.94284 322.64755L505.56155 323.26627Q505.32953 322.06198 506.24658 321.14496Q506.64432 320.7472 507.11942 320.5594Q507.60553 320.3605 508.0033 320.4268Q508.40103 320.49307 508.7767 320.73615Q509.01974 320.91293 509.53903 321.43222L512.2459 324.1391L511.50568 324.87936L508.83194 322.2056Q508.3679 321.74158 508.05853 321.60898Q507.74918 321.4764 507.39563 321.5648Q507.031 321.64212 506.7327 321.94046Q506.25763 322.41553 506.21344 323.07843Q506.16922 323.71927 507.0089 324.55896L509.4175 326.96753L508.67725 327.7078ZM513.84796 323.26627L514.6877 322.64755Q515.0633 322.9348 515.4279 322.87958Q515.91406 322.8133 516.38916 322.3382Q516.9084 321.8189 516.97473 321.33276Q517.05206 320.8356 516.78687 320.37155Q516.62115 320.07324 515.8809 319.35507Q515.9693 320.41574 515.2401 321.14496Q514.3341 322.05093 513.18506 321.89624Q512.02496 321.73053 511.119 320.82455Q510.48923 320.19476 510.17984 319.44348Q509.87048 318.67007 510.01413 317.95193Q510.15775 317.23376 510.74332 316.6482Q511.52777 315.86374 512.6658 315.9853L512.13544 315.45496L512.82043 314.76993L516.62115 318.57065Q517.6487 319.59814 517.8696 320.23898Q518.09064 320.8798 517.8807 321.57584Q517.6818 322.28296 517.0189 322.94586Q516.23444 323.73032 515.3948 323.86288Q514.55505 323.99548 513.84796 323.26627ZM511.82608 320.00696Q512.68787 320.86874 513.4281 320.92398Q514.1684 320.97922 514.6877 320.45993Q515.207 319.94067 515.1517 319.2004Q515.1075 318.4491 514.2678 317.6094Q513.46124 316.8029 512.68787 316.75867Q511.92554 316.70343 511.4173 317.21167Q510.9201 317.70886 510.97534 318.4712Q511.03058 319.21146 511.82608 320.00696ZM520.8748 315.5102L517.05206 311.6874L516.38916 312.3503L515.81464 311.7758L516.47754 311.11288L516.00244 310.6378Q515.5605 310.19583 515.4279 309.90857Q515.2401 309.4998 515.3285 309.05783Q515.4279 308.60486 515.91406 308.1187Q516.23444 307.7983 516.68744 307.5L517.2178 308.2513Q516.95264 308.45016 516.7427 308.6601Q516.4002 309.0026 516.4002 309.28986Q516.41125 309.56607 516.80896 309.96384L517.2178 310.37262L518.0796 309.51083L518.6541 310.08536L517.7923 310.94714L521.6151 314.76993L520.8748 315.5102ZM520.34454 311.6432Q519.1181 310.4168 519.20654 309.1573Q519.2839 308.10767 520.10144 307.29007Q521.00745 306.3841 522.1786 306.4062Q523.34973 306.4062 524.39935 307.4558Q525.25006 308.30655 525.48206 309.04678Q525.7141 309.78705 525.49316 310.56046Q525.27216 311.31174 524.69763 311.88626Q523.78064 312.8033 522.6205 312.79224Q521.4604 312.7591 520.34454 311.6432ZM521.1069 310.88086Q521.94653 311.72055 522.731 311.7758Q523.5265 311.81998 524.0789 311.26755Q524.6424 310.70407 524.58716 309.91962Q524.5319 309.1352 523.6701 308.2734Q522.85254 307.4558 522.057 307.41162Q521.2726 307.35635 520.72015 307.90878Q520.1677 308.4612 520.2119 309.2567Q520.2561 310.03012 521.1069 310.88086ZM527.75806 308.62695L523.3608 304.22964L524.0347 303.55566L524.69763 304.21857Q524.48773 303.50043 524.554 303.14688Q524.6203 302.7712 524.88544 302.50604Q525.2611 302.1304 525.8798 301.97574L526.3218 302.9259Q525.8798 303.03638 525.6147 303.30154Q525.36053 303.55566 525.31635 303.9092Q525.27216 304.2407 525.45996 304.5832Q525.72516 305.11353 526.1892 305.57755L528.49835 307.8867L527.75806 308.62695ZM533.52545 302.85962L527.7802 299.8102L528.5536 299.0368L531.79083 300.88193L532.9951 301.55588Q532.9509 301.4675 532.3211 300.41788L530.4429 297.14752L531.20526 296.38516L534.42035 298.27448L535.481 298.8932L534.8844 297.78833L533.09454 294.49585L533.8237 293.76666L536.83997 299.54504L536.0666 300.31845L532.7299 298.3739L531.8129 297.81042L534.3099 302.07516L533.52545 302.85962ZM536.608 295.37976Q535.3816 294.15335 535.47 292.89383Q535.5473 291.8442 536.3649 291.0266Q537.2709 290.12064 538.442 290.14273Q539.61316 290.14273 540.6628 291.19235Q541.51355 292.0431 541.74554 292.78333Q541.97754 293.5236 541.7566 294.297Q541.53564 295.04828 540.9611 295.6228Q540.04407 296.53986 538.884 296.5288Q537.7239 296.49564 536.608 295.37976ZM537.3703 294.6174Q538.21 295.4571 538.99445 295.51233Q539.79 295.55652 540.34235 295.0041Q540.9058 294.4406 540.8506 293.6562Q540.79535 292.87173 539.9336 292.00995Q539.11597 291.19235 538.3205 291.14816Q537.5361 291.09293 536.98364 291.64532Q536.4312 292.19775 536.4754 292.99326Q536.5196 293.76666 537.3703 294.6174ZM544.02155 292.3635L539.6242 287.9662L540.29816 287.2922L540.9611 287.95514Q540.75116 287.23697 540.81744 286.88342Q540.8837 286.50775 541.1489 286.2426Q541.5246 285.86694 542.1433 285.71228L542.5852 286.66245Q542.1433 286.77292 541.8781 287.0381Q541.624 287.2922 541.57983 287.64575Q541.53564 287.97723 541.72345 288.31973Q541.9886 288.85007 542.45264 289.3141L544.7618 291.62323L544.02155 292.3635ZM546.861 289.52402L540.7843 283.44733L541.53564 282.696L545.0049 286.16525L544.97174 282.61868L545.944 281.6464L545.8777 284.96097L550.507 285.878L549.59 286.795L545.8777 285.99954L545.86664 287.02704L547.6123 288.7727L546.861 289.52402Z" fill-rule="nonzero"/><path fill="#757575" d="M30.315624 32.534374L32.20625 33.003124Q31.6125 35.346874 30.065624 36.58125Q28.51875 37.8 26.26875 37.8Q23.95625 37.8 22.503124 36.8625Q21.065624 35.909374 20.3 34.128124Q19.55 32.33125 19.55 30.284374Q19.55 28.05 20.39375 26.39375Q21.253124 24.721874 22.83125 23.8625Q24.409374 22.9875 26.3 22.9875Q28.45625 22.9875 29.909374 24.08125Q31.378124 25.175 31.95625 27.159374L30.096874 27.596874Q29.596874 26.034374 28.64375 25.33125Q27.70625 24.6125 26.26875 24.6125Q24.6125 24.6125 23.503124 25.409374Q22.39375 26.190624 21.940624 27.534374Q21.503124 28.8625 21.503124 30.26875Q21.503124 32.096874 22.034374 33.471874Q22.565624 34.83125 23.690624 35.503124Q24.815624 36.175 26.1125 36.175Q27.70625 36.175 28.815624 35.253124Q29.925 34.33125 30.315624 32.534374ZM33.221874 32.3625Q33.221874 29.4875 34.815624 28.096874Q36.159374 26.940624 38.08125 26.940624Q40.221874 26.940624 41.565624 28.346874Q42.925 29.753124 42.925 32.221874Q42.925 34.221874 42.33125 35.378124Q41.7375 36.51875 40.58125 37.159374Q39.440624 37.784374 38.08125 37.784374Q35.89375 37.784374 34.55 36.39375Q33.221874 34.9875 33.221874 32.3625ZM35.01875 32.3625Q35.01875 34.3625 35.878124 35.346874Q36.753124 36.33125 38.08125 36.33125Q39.39375 36.33125 40.253124 35.346874Q41.128124 34.346874 41.128124 32.3Q41.128124 30.378124 40.253124 29.39375Q39.378124 28.39375 38.08125 28.39375Q36.753124 28.39375 35.878124 29.39375Q35.01875 30.378124 35.01875 32.3625ZM44.8625 37.55L44.8625 27.175L46.440624 27.175L46.440624 28.628124Q46.925 27.878124 47.7375 27.409374Q48.55 26.940624 49.58125 26.940624Q50.7375 26.940624 51.471874 27.425Q52.20625 27.89375 52.51875 28.753124Q53.753124 26.940624 55.721874 26.940624Q57.26875 26.940624 58.096874 27.8Q58.925 28.659374 58.925 30.425L58.925 37.55L57.175 37.55L57.175 31.01875Q57.175 29.95625 57.003124 29.503124Q56.83125 29.034374 56.378124 28.753124Q55.940624 28.471874 55.33125 28.471874Q54.2375 28.471874 53.503124 29.20625Q52.784374 29.925 52.784374 31.51875L52.784374 37.55L51.034374 37.55L51.034374 30.815624Q51.034374 29.64375 50.596874 29.065624Q50.175 28.471874 49.190624 28.471874Q48.45625 28.471874 47.815624 28.8625Q47.190624 29.253124 46.909374 30.003124Q46.628124 30.753124 46.628124 32.175L46.628124 37.55L44.8625 37.55ZM60.8625 41.51875L60.8625 27.175L62.471874 27.175L62.471874 28.51875Q63.034374 27.7375 63.7375 27.346874Q64.45625 26.940624 65.47188 26.940624Q66.8 26.940624 67.81563 27.628124Q68.83125 28.315624 69.34688 29.565624Q69.87813 30.8 69.87813 32.284374Q69.87813 33.878124 69.3 35.159374Q68.7375 36.425 67.64375 37.1125Q66.55 37.784374 65.34688 37.784374Q64.47188 37.784374 63.76875 37.409374Q63.08125 37.034374 62.628124 36.471874L62.628124 41.51875L60.8625 41.51875ZM62.45625 32.425Q62.45625 34.425 63.26875 35.378124Q64.08125 36.33125 65.2375 36.33125Q66.40938 36.33125 67.2375 35.346874Q68.08125 34.3625 68.08125 32.26875Q68.08125 30.3 67.25313 29.315624Q66.44063 28.315624 65.31563 28.315624Q64.19063 28.315624 63.315624 29.378124Q62.45625 30.425 62.45625 32.425ZM78.64375 36.26875Q77.65938 37.096874 76.75313 37.440624Q75.84688 37.784374 74.81563 37.784374Q73.1125 37.784374 72.19063 36.95625Q71.26875 36.1125 71.26875 34.815624Q71.26875 34.05 71.6125 33.425Q71.97188 32.8 72.53438 32.425Q73.09688 32.034374 73.8 31.83125Q74.31563 31.70625 75.3625 31.565624Q77.4875 31.315624 78.4875 30.971874Q78.50313 30.6125 78.50313 30.503124Q78.50313 29.440624 78.00313 28.9875Q77.33125 28.39375 76.00313 28.39375Q74.75313 28.39375 74.15938 28.83125Q73.58125 29.26875 73.3 30.378124L71.58125 30.14375Q71.81563 29.034374 72.34688 28.3625Q72.87813 27.675 73.89375 27.315624Q74.90938 26.940624 76.25313 26.940624Q77.58125 26.940624 78.40938 27.253124Q79.2375 27.565624 79.62813 28.05Q80.01875 28.51875 80.175 29.2375Q80.26875 29.690624 80.26875 30.8625L80.26875 33.20625Q80.26875 35.659374 80.37813 36.315624Q80.4875 36.95625 80.83125 37.55L78.9875 37.55Q78.72188 37.003124 78.64375 36.26875ZM78.4875 32.346874Q77.53438 32.7375 75.6125 33.003124Q74.53438 33.159374 74.08125 33.3625Q73.64375 33.55 73.39375 33.925Q73.14375 34.3 73.14375 34.76875Q73.14375 35.471874 73.675 35.940624Q74.20625 36.409374 75.2375 36.409374Q76.25313 36.409374 77.03438 35.971874Q77.83125 35.51875 78.20625 34.753124Q78.4875 34.14375 78.4875 32.9875L78.4875 32.346874ZM82.8625 37.55L82.8625 27.175L84.45625 27.175L84.45625 28.659374Q85.59688 26.940624 87.75313 26.940624Q88.69063 26.940624 89.47188 27.284374Q90.26875 27.6125 90.65938 28.159374Q91.05 28.70625 91.20625 29.45625Q91.3 29.95625 91.3 31.175L91.3 37.55L89.53438 37.55L89.53438 31.2375Q89.53438 30.159374 89.33125 29.628124Q89.12813 29.096874 88.59688 28.784374Q88.08125 28.471874 87.37813 28.471874Q86.25313 28.471874 85.44063 29.190624Q84.62813 29.89375 84.62813 31.878124L84.62813 37.55L82.8625 37.55ZM92.78438 41.55L92.59688 39.89375Q93.175 40.05 93.59688 40.05Q94.19063 40.05 94.53438 39.846874Q94.89375 39.659374 95.1125 39.315624Q95.28438 39.05 95.65938 38.003124Q95.70625 37.846874 95.81563 37.565624L91.87813 27.175L93.76875 27.175L95.925 33.190624Q96.34688 34.33125 96.675 35.58125Q96.9875 34.378124 97.39375 33.221874L99.6125 27.175L101.37813 27.175L97.425 37.721874Q96.8 39.440624 96.44063 40.08125Q95.97188 40.95625 95.3625 41.346874Q94.76875 41.753124 93.925 41.753124Q93.40938 41.753124 92.78438 41.55ZM112.7375 37.55L112.7375 24.925L108.01875 24.925L108.01875 23.2375L119.3625 23.2375L119.3625 24.925L114.62813 24.925L114.62813 37.55L112.7375 37.55ZM120.78438 41.55L120.59688 39.89375Q121.175 40.05 121.59688 40.05Q122.19063 40.05 122.53438 39.846874Q122.89375 39.659374 123.1125 39.315624Q123.28438 39.05 123.65938 38.003124Q123.70625 37.846874 123.81563 37.565624L119.87813 27.175L121.76875 27.175L123.925 33.190624Q124.34688 34.33125 124.675 35.58125Q124.9875 34.378124 125.39375 33.221874L127.6125 27.175L129.37813 27.175L125.425 37.721874Q124.8 39.440624 124.44063 40.08125Q123.97188 40.95625 123.3625 41.346874Q122.76875 41.753124 121.925 41.753124Q121.40938 41.753124 120.78438 41.55ZM130.8625 41.51875L130.8625 27.175L132.47188 27.175L132.47188 28.51875Q133.03438 27.7375 133.7375 27.346874Q134.45625 26.940624 135.47188 26.940624Q136.8 26.940624 137.81563 27.628124Q138.83125 28.315624 139.34688 29.565624Q139.87813 30.8 139.87813 32.284374Q139.87813 33.878124 139.3 35.159374Q138.7375 36.425 137.64375 37.1125Q136.55 37.784374 135.34688 37.784374Q134.47188 37.784374 133.76875 37.409374Q133.08125 37.034374 132.62813 36.471874L132.62813 41.51875L130.8625 41.51875ZM132.45625 32.425Q132.45625 34.425 133.26875 35.378124Q134.08125 36.33125 135.2375 36.33125Q136.40938 36.33125 137.2375 35.346874Q138.08125 34.3625 138.08125 32.26875Q138.08125 30.3 137.25313 29.315624Q136.44063 28.315624 135.31563 28.315624Q134.19063 28.315624 133.31563 29.378124Q132.45625 30.425 132.45625 32.425ZM148.97188 34.20625L150.78438 34.440624Q150.3625 36.01875 149.19063 36.909374Q148.03438 37.784374 146.22188 37.784374Q143.95625 37.784374 142.6125 36.39375Q141.28438 34.9875 141.28438 32.45625Q141.28438 29.83125 142.62813 28.39375Q143.97188 26.940624 146.12813 26.940624Q148.20625 26.940624 149.51875 28.3625Q150.84688 29.76875 150.84688 32.346874Q150.84688 32.503124 150.83125 32.815624L143.09688 32.815624Q143.19063 34.51875 144.06563 35.425Q144.94063 36.33125 146.2375 36.33125Q147.20625 36.33125 147.87813 35.83125Q148.56563 35.315624 148.97188 34.20625ZM143.19063 31.3625L148.9875 31.3625Q148.87813 30.065624 148.33125 29.409374Q147.4875 28.39375 146.14375 28.39375Q144.94063 28.39375 144.1125 29.20625Q143.28438 30.003124 143.19063 31.3625Z" fill-rule="nonzero"/></svg>