<svg version="1.1" viewBox="0.0 0.0 705.0 371.0" fill="none" stroke="none" stroke-linecap="square" stroke-miterlimit="10" width="705" height="371" xmlns:xlink="http://www.w3.org/1999/xlink" xmlns="http://www.w3.org/2000/svg"><path fill="#ffffff" d="M0 0L705.0 0L705.0 371.0L0 371.0L0 0Z" fill-rule="nonzero"/><path stroke="#333333" stroke-width="1.0" stroke-linecap="butt" d="M45.5 318.5L686.5 318.5" fill-rule="nonzero"/><path stroke="#cccccc" stroke-width="1.0" stroke-linecap="butt" d="M45.5 267.5L686.5 267.5" fill-rule="nonzero"/><path stroke="#cccccc" stroke-width="1.0" stroke-linecap="butt" d="M45.5 215.5L686.5 215.5" fill-rule="nonzero"/><path stroke="#cccccc" stroke-width="1.0" stroke-linecap="butt" d="M45.5 164.5L686.5 164.5" fill-rule="nonzero"/><path stroke="#cccccc" stroke-width="1.0" stroke-linecap="butt" d="M45.5 113.5L686.5 113.5" fill-rule="nonzero"/><path stroke="#cccccc" stroke-width="1.0" stroke-linecap="butt" d="M45.5 61.5L686.5 61.5" fill-rule="nonzero"/><clipPath id="id_0"><path d="M45.55 61.916668L686.45 61.916668L686.45 318.45L45.55 318.45L45.55 61.916668Z" clip-rule="nonzero"/></clipPath><path stroke="#000000" stroke-width="2.0" stroke-linecap="butt" stroke-opacity="0.0" clip-path="url(#id_0)" d="M133.0 318.0L76.0 318.0L76.0 74.0C76.0 72.89543 76.89543 72.0 78.0 72.0L131.0 72.0C132.10457 72.0 133.0 72.89543 133.0 74.0Z" fill-rule="nonzero"/><path fill="#5891ad" clip-path="url(#id_0)" d="M133.0 318.0L76.0 318.0L76.0 74.0C76.0 72.89543 76.89543 72.0 78.0 72.0L131.0 72.0C132.10457 72.0 133.0 72.89543 133.0 74.0Z" fill-rule="nonzero"/><path stroke="#000000" stroke-width="2.0" stroke-linecap="butt" stroke-opacity="0.0" clip-path="url(#id_0)" d="M221.0 318.0L164.0 318.0L164.0 125.0C164.0 123.89543 164.89543 123.0 166.0 123.0L219.0 123.0C220.10457 123.0 221.0 123.89543 221.0 125.0Z" fill-rule="nonzero"/><path fill="#5891ad" clip-path="url(#id_0)" d="M221.0 318.0L164.0 318.0L164.0 125.0C164.0 123.89543 164.89543 123.0 166.0 123.0L219.0 123.0C220.10457 123.0 221.0 123.89543 221.0 125.0Z" fill-rule="nonzero"/><path stroke="#000000" stroke-width="2.0" stroke-linecap="butt" stroke-opacity="0.0" clip-path="url(#id_0)" d="M308.0 318.0L251.0 318.0L251.0 228.0C251.0 226.89543 251.89543 226.0 253.0 226.0L306.0 226.0C307.10458 226.0 308.0 226.89543 308.0 228.0Z" fill-rule="nonzero"/><path fill="#5891ad" clip-path="url(#id_0)" d="M308.0 318.0L251.0 318.0L251.0 228.0C251.0 226.89543 251.89543 226.0 253.0 226.0L306.0 226.0C307.10458 226.0 308.0 226.89543 308.0 228.0Z" fill-rule="nonzero"/><path stroke="#000000" stroke-width="2.0" stroke-linecap="butt" stroke-opacity="0.0" clip-path="url(#id_0)" d="M395.0 318.0L338.0 318.0L338.0 249.0C338.0 247.89543 338.89542 247.0 340.0 247.0L393.0 247.0C394.10458 247.0 395.0 247.89543 395.0 249.0Z" fill-rule="nonzero"/><path fill="#5891ad" clip-path="url(#id_0)" d="M395.0 318.0L338.0 318.0L338.0 249.0C338.0 247.89543 338.89542 247.0 340.0 247.0L393.0 247.0C394.10458 247.0 395.0 247.89543 395.0 249.0Z" fill-rule="nonzero"/><path stroke="#000000" stroke-width="2.0" stroke-linecap="butt" stroke-opacity="0.0" clip-path="url(#id_0)" d="M482.0 318.0L425.0 318.0L425.0 259.0C425.0 257.89542 425.89542 257.0 427.0 257.0L480.0 257.0C481.10458 257.0 482.0 257.89542 482.0 259.0Z" fill-rule="nonzero"/><path fill="#5891ad" clip-path="url(#id_0)" d="M482.0 318.0L425.0 318.0L425.0 259.0C425.0 257.89542 425.89542 257.0 427.0 257.0L480.0 257.0C481.10458 257.0 482.0 257.89542 482.0 259.0Z" fill-rule="nonzero"/><path stroke="#000000" stroke-width="2.0" stroke-linecap="butt" stroke-opacity="0.0" clip-path="url(#id_0)" d="M569.0 318.0L512.0 318.0L512.0 290.0C512.0 288.89542 512.89545 288.0 514.0 288.0L567.0 288.0C568.10455 288.0 569.0 288.89542 569.0 290.0Z" fill-rule="nonzero"/><path fill="#5891ad" clip-path="url(#id_0)" d="M569.0 318.0L512.0 318.0L512.0 290.0C512.0 288.89542 512.89545 288.0 514.0 288.0L567.0 288.0C568.10455 288.0 569.0 288.89542 569.0 290.0Z" fill-rule="nonzero"/><path stroke="#000000" stroke-width="2.0" stroke-linecap="butt" stroke-opacity="0.0" clip-path="url(#id_0)" d="M657.0 318.0L600.0 318.0L600.0 290.0C600.0 288.89542 600.89545 288.0 602.0 288.0L655.0 288.0C656.10455 288.0 657.0 288.89542 657.0 290.0Z" fill-rule="nonzero"/><path fill="#5891ad" clip-path="url(#id_0)" d="M657.0 318.0L600.0 318.0L600.0 290.0C600.0 288.89542 600.89545 288.0 602.0 288.0L655.0 288.0C656.10455 288.0 657.0 288.89542 657.0 290.0Z" fill-rule="nonzero"/><path fill="#000000" d="M33.05 318.21564Q33.05 316.6844 33.3625 315.7625Q33.675 314.825 34.284374 314.325Q34.909374 313.825 35.846874 313.825Q36.534374 313.825 37.05 314.10626Q37.58125 314.3875 37.925 314.91876Q38.26875 315.4344 38.45625 316.1844Q38.64375 316.9344 38.64375 318.21564Q38.64375 319.73126 38.33125 320.65314Q38.034374 321.575 37.409374 322.09064Q36.8 322.59064 35.846874 322.59064Q34.6125 322.59064 33.89375 321.7Q33.05 320.6375 33.05 318.21564ZM34.128124 318.21564Q34.128124 320.325 34.628124 321.02814Q35.128124 321.73126 35.846874 321.73126Q36.58125 321.73126 37.065624 321.02814Q37.565624 320.325 37.565624 318.21564Q37.565624 316.09064 37.065624 315.40314Q36.58125 314.7 35.83125 314.7Q35.1125 314.7 34.675 315.3094Q34.128124 316.09064 34.128124 318.21564Z" fill-rule="nonzero"/><path fill="#000000" d="M33.05 268.89334L34.159374 268.7996Q34.284374 269.6121 34.721874 270.01834Q35.175 270.4246 35.815624 270.4246Q36.565624 270.4246 37.096874 269.84647Q37.628124 269.26834 37.628124 268.33084Q37.628124 267.4246 37.1125 266.90897Q36.6125 266.37772 35.784374 266.37772Q35.284374 266.37772 34.8625 266.6121Q34.45625 266.84647 34.221874 267.20584L33.2375 267.08084L34.065624 262.6746L38.346874 262.6746L38.346874 263.6746L34.909374 263.6746L34.45625 265.9871Q35.221874 265.44022 36.065624 265.44022Q37.190624 265.44022 37.95625 266.22147Q38.7375 267.00272 38.7375 268.2371Q38.7375 269.39334 38.065624 270.25272Q37.2375 271.28397 35.815624 271.28397Q34.64375 271.28397 33.89375 270.62772Q33.159374 269.97147 33.05 268.89334Z" fill-rule="nonzero"/><path fill="#000000" d="M30.01875 219.83667L28.971874 219.83667L28.971874 213.11792Q28.58125 213.4773 27.95625 213.8523Q27.346874 214.21167 26.8625 214.38354L26.8625 213.36792Q27.7375 212.94604 28.39375 212.36792Q29.065624 211.77417 29.346874 211.21167L30.01875 211.21167L30.01875 219.83667ZM33.05 215.6023Q33.05 214.07104 33.3625 213.14917Q33.675 212.21167 34.284374 211.71167Q34.909374 211.21167 35.846874 211.21167Q36.534374 211.21167 37.05 211.49292Q37.58125 211.77417 37.925 212.30542Q38.26875 212.82104 38.45625 213.57104Q38.64375 214.32104 38.64375 215.6023Q38.64375 217.11792 38.33125 218.0398Q38.034374 218.96167 37.409374 219.4773Q36.8 219.9773 35.846874 219.9773Q34.6125 219.9773 33.89375 219.08667Q33.05 218.02417 33.05 215.6023ZM34.128124 215.6023Q34.128124 217.71167 34.628124 218.4148Q35.128124 219.11792 35.846874 219.11792Q36.58125 219.11792 37.065624 218.4148Q37.565624 217.71167 37.565624 215.6023Q37.565624 213.4773 37.065624 212.7898Q36.58125 212.08667 35.83125 212.08667Q35.1125 212.08667 34.675 212.69604Q34.128124 213.4773 34.128124 215.6023Z" fill-rule="nonzero"/><path fill="#000000" d="M30.01875 168.53L28.971874 168.53L28.971874 161.81125Q28.58125 162.17062 27.95625 162.54562Q27.346874 162.905 26.8625 163.07687L26.8625 162.06125Q27.7375 161.63937 28.39375 161.06125Q29.065624 160.4675 29.346874 159.905L30.01875 159.905L30.01875 168.53ZM33.05 166.28L34.159374 166.18625Q34.284374 166.99875 34.721874 167.405Q35.175 167.81125 35.815624 167.81125Q36.565624 167.81125 37.096874 167.23312Q37.628124 166.655 37.628124 165.7175Q37.628124 164.81125 37.1125 164.29562Q36.6125 163.76437 35.784374 163.76437Q35.284374 163.76437 34.8625 163.99875Q34.45625 164.23312 34.221874 164.5925L33.2375 164.4675L34.065624 160.06125L38.346874 160.06125L38.346874 161.06125L34.909374 161.06125L34.45625 163.37375Q35.221874 162.82687 36.065624 162.82687Q37.190624 162.82687 37.95625 163.60812Q38.7375 164.38937 38.7375 165.62375Q38.7375 166.78 38.065624 167.63937Q37.2375 168.67062 35.815624 168.67062Q34.64375 168.67062 33.89375 168.01437Q33.159374 167.35812 33.05 166.28Z" fill-rule="nonzero"/><path fill="#000000" d="M31.596874 116.20771L31.596874 117.223335L25.909374 117.223335Q25.909374 116.848335 26.034374 116.48896Q26.253124 115.910835 26.721874 115.348335Q27.20625 114.785835 28.1125 114.05146Q29.51875 112.89521 30.003124 112.223335Q30.503124 111.55146 30.503124 110.95771Q30.503124 110.33271 30.05 109.910835Q29.596874 109.473335 28.878124 109.473335Q28.1125 109.473335 27.659374 109.92646Q27.20625 110.379585 27.190624 111.192085L26.1125 111.08271Q26.221874 109.86396 26.940624 109.23896Q27.675 108.598335 28.909374 108.598335Q30.14375 108.598335 30.8625 109.285835Q31.58125 109.973335 31.58125 110.98896Q31.58125 111.504585 31.3625 112.004585Q31.159374 112.48896 30.659374 113.05146Q30.175 113.598335 29.05 114.55146Q28.096874 115.348335 27.815624 115.64521Q27.55 115.92646 27.378124 116.20771L31.596874 116.20771ZM33.05 112.98896Q33.05 111.45771 33.3625 110.535835Q33.675 109.598335 34.284374 109.098335Q34.909374 108.598335 35.846874 108.598335Q36.534374 108.598335 37.05 108.879585Q37.58125 109.160835 37.925 109.692085Q38.26875 110.20771 38.45625 110.95771Q38.64375 111.70771 38.64375 112.98896Q38.64375 114.504585 38.33125 115.42646Q38.034374 116.348335 37.409374 116.86396Q36.8 117.36396 35.846874 117.36396Q34.6125 117.36396 33.89375 116.473335Q33.05 115.410835 33.05 112.98896ZM34.128124 112.98896Q34.128124 115.098335 34.628124 115.80146Q35.128124 116.504585 35.846874 116.504585Q36.58125 116.504585 37.065624 115.80146Q37.565624 115.098335 37.565624 112.98896Q37.565624 110.86396 37.065624 110.17646Q36.58125 109.473335 35.83125 109.473335Q35.1125 109.473335 34.675 110.08271Q34.128124 110.86396 34.128124 112.98896Z" fill-rule="nonzero"/><path fill="#000000" d="M31.596874 64.90104L31.596874 65.916664L25.909374 65.916664Q25.909374 65.541664 26.034374 65.18229Q26.253124 64.604164 26.721874 64.041664Q27.20625 63.479164 28.1125 62.74479Q29.51875 61.58854 30.003124 60.916664Q30.503124 60.24479 30.503124 59.65104Q30.503124 59.02604 30.05 58.604164Q29.596874 58.166664 28.878124 58.166664Q28.1125 58.166664 27.659374 58.61979Q27.20625 59.072914 27.190624 59.885414L26.1125 59.77604Q26.221874 58.55729 26.940624 57.93229Q27.675 57.291664 28.909374 57.291664Q30.14375 57.291664 30.8625 57.979164Q31.58125 58.666664 31.58125 59.68229Q31.58125 60.197914 31.3625 60.697914Q31.159374 61.18229 30.659374 61.74479Q30.175 62.291664 29.05 63.24479Q28.096874 64.041664 27.815624 64.33854Q27.55 64.61979 27.378124 64.90104L31.596874 64.90104ZM33.05 63.666664L34.159374 63.572914Q34.284374 64.385414 34.721874 64.791664Q35.175 65.197914 35.815624 65.197914Q36.565624 65.197914 37.096874 64.61979Q37.628124 64.041664 37.628124 63.104164Q37.628124 62.197914 37.1125 61.68229Q36.6125 61.15104 35.784374 61.15104Q35.284374 61.15104 34.8625 61.385414Q34.45625 61.61979 34.221874 61.979164L33.2375 61.854164L34.065624 57.447914L38.346874 57.447914L38.346874 58.447914L34.909374 58.447914L34.45625 60.760414Q35.221874 60.21354 36.065624 60.21354Q37.190624 60.21354 37.95625 60.99479Q38.7375 61.77604 38.7375 63.010414Q38.7375 64.166664 38.065624 65.02604Q37.2375 66.05729 35.815624 66.05729Q34.64375 66.05729 33.89375 65.40104Q33.159374 64.74479 33.05 63.666664Z" fill-rule="nonzero"/><path fill="#000000" d="M93.79879 335.45L93.79879 326.85626L95.51754 326.85626L97.54879 332.9344Q97.83004 333.79376 97.95504 334.21564Q98.095665 333.7469 98.408165 332.84064L100.470665 326.85626L102.001915 326.85626L102.001915 335.45L100.908165 335.45L100.908165 328.2625L98.408165 335.45L97.376915 335.45L94.89254 328.1375L94.89254 335.45L93.79879 335.45ZM106.95504 333.45L108.04879 333.575Q107.79879 334.52814 107.095665 335.0594Q106.39254 335.59064 105.314415 335.59064Q103.95504 335.59064 103.14254 334.7469Q102.345665 333.90314 102.345665 332.3875Q102.345665 330.825 103.158165 329.96564Q103.970665 329.09064 105.251915 329.09064Q106.501915 329.09064 107.283165 329.9344Q108.08004 330.77814 108.08004 332.325Q108.08004 332.41876 108.08004 332.60626L103.439415 332.60626Q103.501915 333.6375 104.01754 334.1844Q104.533165 334.71564 105.314415 334.71564Q105.89254 334.71564 106.29879 334.41876Q106.720665 334.10626 106.95504 333.45ZM103.501915 331.7469L106.970665 331.7469Q106.908165 330.95 106.58004 330.5594Q106.064415 329.95 105.26754 329.95Q104.533165 329.95 104.033165 330.4344Q103.54879 330.91876 103.501915 331.7469ZM109.70504 335.45L109.70504 329.23126L110.64254 329.23126L110.64254 330.10626Q111.33004 329.09064 112.626915 329.09064Q113.189415 329.09064 113.658165 329.29376Q114.14254 329.4969 114.376915 329.825Q114.61129 330.15314 114.70504 330.59064Q114.751915 330.8875 114.751915 331.6219L114.751915 335.45L113.70504 335.45L113.70504 331.66876Q113.70504 331.0125 113.58004 330.7Q113.45504 330.3875 113.14254 330.2Q112.83004 329.9969 112.408165 329.9969Q111.73629 329.9969 111.23629 330.4344Q110.751915 330.85626 110.751915 332.04376L110.751915 335.45L109.70504 335.45Z" fill-rule="nonzero"/><path fill="#000000" d="M172.52731 335.45L170.24606 326.85626L171.41794 326.85626L172.73044 332.4969Q172.93356 333.3719 173.08981 334.2469Q173.41794 332.8719 173.48044 332.65314L175.10544 326.85626L176.48044 326.85626L177.71481 331.2Q178.16794 332.825 178.38669 334.2469Q178.54294 333.4344 178.80856 332.3719L180.15231 326.85626L181.29294 326.85626L178.94919 335.45L177.83981 335.45L176.04294 328.90314Q175.80856 328.09064 175.76169 327.90314Q175.63669 328.48126 175.51169 328.90314L173.69919 335.45L172.52731 335.45ZM181.51169 332.34064Q181.51169 330.60626 182.46481 329.77814Q183.26169 329.09064 184.41794 329.09064Q185.69919 329.09064 186.51169 329.9344Q187.33981 330.7625 187.33981 332.2469Q187.33981 333.45 186.98044 334.1375Q186.62106 334.825 185.91794 335.21564Q185.23044 335.59064 184.41794 335.59064Q183.12106 335.59064 182.30856 334.7625Q181.51169 333.91876 181.51169 332.34064ZM182.58981 332.34064Q182.58981 333.52814 183.10544 334.1219Q183.63669 334.71564 184.41794 334.71564Q185.21481 334.71564 185.73044 334.1219Q186.24606 333.52814 186.24606 332.3094Q186.24606 331.15314 185.71481 330.5594Q185.19919 329.96564 184.41794 329.96564Q183.63669 329.96564 183.10544 330.5594Q182.58981 331.1375 182.58981 332.34064ZM188.90231 335.45L188.90231 329.23126L189.83981 329.23126L189.83981 330.10626Q190.13669 329.6375 190.62106 329.3719Q191.10544 329.09064 191.73044 329.09064Q192.41794 329.09064 192.85544 329.3719Q193.30856 329.65314 193.48044 330.16876Q194.23044 329.09064 195.40231 329.09064Q196.33981 329.09064 196.82419 329.60626Q197.32419 330.10626 197.32419 331.1844L197.32419 335.45L196.27731 335.45L196.27731 331.52814Q196.27731 330.90314 196.16794 330.6219Q196.07419 330.34064 195.80856 330.16876Q195.54294 329.9969 195.16794 329.9969Q194.51169 329.9969 194.07419 330.4344Q193.65231 330.8719 193.65231 331.84064L193.65231 335.45L192.58981 335.45L192.58981 331.40314Q192.58981 330.7 192.32419 330.35626Q192.07419 329.9969 191.49606 329.9969Q191.04294 329.9969 190.66794 330.23126Q190.29294 330.46564 190.12106 330.91876Q189.94919 331.3719 189.94919 332.21564L189.94919 335.45L188.90231 335.45ZM204.15231 333.45L205.24606 333.575Q204.99606 334.52814 204.29294 335.0594Q203.58981 335.59064 202.51169 335.59064Q201.15231 335.59064 200.33981 334.7469Q199.54294 333.90314 199.54294 332.3875Q199.54294 330.825 200.35544 329.96564Q201.16794 329.09064 202.44919 329.09064Q203.69919 329.09064 204.48044 329.9344Q205.27731 330.77814 205.27731 332.325Q205.27731 332.41876 205.27731 332.60626L200.63669 332.60626Q200.69919 333.6375 201.21481 334.1844Q201.73044 334.71564 202.51169 334.71564Q203.08981 334.71564 203.49606 334.41876Q203.91794 334.10626 204.15231 333.45ZM200.69919 331.7469L204.16794 331.7469Q204.10544 330.95 203.77731 330.5594Q203.26169 329.95 202.46481 329.95Q201.73044 329.95 201.23044 330.4344Q200.74606 330.91876 200.69919 331.7469ZM206.90231 335.45L206.90231 329.23126L207.83981 329.23126L207.83981 330.10626Q208.52731 329.09064 209.82419 329.09064Q210.38669 329.09064 210.85544 329.29376Q211.33981 329.4969 211.57419 329.825Q211.80856 330.15314 211.90231 330.59064Q211.94919 330.8875 211.94919 331.6219L211.94919 335.45L210.90231 335.45L210.90231 331.66876Q210.90231 331.0125 210.77731 330.7Q210.65231 330.3875 210.33981 330.2Q210.02731 329.9969 209.60544 329.9969Q208.93356 329.9969 208.43356 330.4344Q207.94919 330.85626 207.94919 332.04376L207.94919 335.45L206.90231 335.45Z" fill-rule="nonzero"/><path fill="#000000" d="M258.2246 335.45L258.2246 326.85626L261.4746 326.85626Q262.31836 326.85626 262.77148 326.9344Q263.4121 327.04376 263.83398 327.34064Q264.27148 327.6375 264.52148 328.16876Q264.7871 328.7 264.7871 329.34064Q264.7871 330.4344 264.08398 331.2Q263.39648 331.95 261.56836 331.95L259.36523 331.95L259.36523 335.45L258.2246 335.45ZM259.36523 330.95L261.58398 330.95Q262.69336 330.95 263.14648 330.54376Q263.61523 330.1219 263.61523 329.3719Q263.61523 328.84064 263.33398 328.46564Q263.06836 328.075 262.63086 327.95Q262.33398 327.8719 261.56836 327.8719L259.36523 327.8719L259.36523 330.95ZM270.1621 334.6844Q269.56836 335.1844 269.02148 335.3875Q268.49023 335.59064 267.86523 335.59064Q266.83398 335.59064 266.2871 335.09064Q265.74023 334.59064 265.74023 333.8094Q265.74023 333.35626 265.94336 332.98126Q266.14648 332.59064 266.49023 332.3719Q266.83398 332.1375 267.25586 332.02814Q267.55273 331.9344 268.19336 331.85626Q269.45898 331.71564 270.06836 331.4969Q270.06836 331.27814 270.06836 331.23126Q270.06836 330.575 269.77148 330.3094Q269.36523 329.96564 268.56836 329.96564Q267.83398 329.96564 267.4746 330.23126Q267.11523 330.48126 266.94336 331.1375L265.9121 330.9969Q266.05273 330.34064 266.38086 329.9344Q266.70898 329.52814 267.31836 329.3094Q267.92773 329.09064 268.7246 329.09064Q269.52148 329.09064 270.02148 329.27814Q270.52148 329.46564 270.75586 329.7469Q270.99023 330.02814 271.08398 330.46564Q271.13086 330.73126 271.13086 331.4344L271.13086 332.84064Q271.13086 334.3094 271.19336 334.7Q271.27148 335.09064 271.4746 335.45L270.36523 335.45Q270.20898 335.1219 270.1621 334.6844ZM270.06836 332.325Q269.49023 332.5594 268.3496 332.73126Q267.69336 332.825 267.42773 332.95Q267.1621 333.0594 267.00586 333.27814Q266.86523 333.4969 266.86523 333.77814Q266.86523 334.2 267.17773 334.48126Q267.50586 334.7625 268.11523 334.7625Q268.7246 334.7625 269.19336 334.4969Q269.67773 334.23126 269.89648 333.7625Q270.06836 333.40314 270.06836 332.71564L270.06836 332.325ZM273.08398 335.45L273.08398 329.23126L274.0371 329.23126L274.0371 330.16876Q274.39648 329.5125 274.69336 329.3094Q275.00586 329.09064 275.38086 329.09064Q275.9121 329.09064 276.45898 329.41876L276.0996 330.40314Q275.70898 330.16876 275.33398 330.16876Q274.9746 330.16876 274.69336 330.3875Q274.42773 330.59064 274.31836 330.96564Q274.13086 331.52814 274.13086 332.1844L274.13086 335.45L273.08398 335.45ZM281.3496 333.45L282.44336 333.575Q282.19336 334.52814 281.49023 335.0594Q280.7871 335.59064 279.70898 335.59064Q278.3496 335.59064 277.5371 334.7469Q276.74023 333.90314 276.74023 332.3875Q276.74023 330.825 277.55273 329.96564Q278.36523 329.09064 279.64648 329.09064Q280.89648 329.09064 281.67773 329.9344Q282.4746 330.77814 282.4746 332.325Q282.4746 332.41876 282.4746 332.60626L277.83398 332.60626Q277.89648 333.6375 278.4121 334.1844Q278.92773 334.71564 279.70898 334.71564Q280.2871 334.71564 280.69336 334.41876Q281.11523 334.10626 281.3496 333.45ZM277.89648 331.7469L281.36523 331.7469Q281.30273 330.95 280.9746 330.5594Q280.45898 329.95 279.6621 329.95Q278.92773 329.95 278.42773 330.4344Q277.94336 330.91876 277.89648 331.7469ZM284.0996 335.45L284.0996 329.23126L285.0371 329.23126L285.0371 330.10626Q285.7246 329.09064 287.02148 329.09064Q287.58398 329.09064 288.05273 329.29376Q288.5371 329.4969 288.77148 329.825Q289.00586 330.15314 289.0996 330.59064Q289.14648 330.8875 289.14648 331.6219L289.14648 335.45L288.0996 335.45L288.0996 331.66876Q288.0996 331.0125 287.9746 330.7Q287.8496 330.3875 287.5371 330.2Q287.2246 329.9969 286.80273 329.9969Q286.13086 329.9969 285.63086 330.4344Q285.14648 330.85626 285.14648 332.04376L285.14648 335.45L284.0996 335.45ZM293.39648 334.5125L293.55273 335.4344Q293.0996 335.52814 292.75586 335.52814Q292.17773 335.52814 291.86523 335.35626Q291.55273 335.16876 291.4121 334.8719Q291.2871 334.575 291.2871 333.6219L291.2871 330.04376L290.52148 330.04376L290.52148 329.23126L291.2871 329.23126L291.2871 327.6844L292.33398 327.0594L292.33398 329.23126L293.39648 329.23126L293.39648 330.04376L292.33398 330.04376L292.33398 333.6844Q292.33398 334.1375 292.38086 334.2625Q292.44336 334.3875 292.56836 334.46564Q292.69336 334.54376 292.92773 334.54376Q293.11523 334.54376 293.39648 334.5125ZM293.67773 333.59064L294.70898 333.4344Q294.80273 334.0594 295.19336 334.3875Q295.5996 334.71564 296.33398 334.71564Q297.05273 334.71564 297.39648 334.4344Q297.75586 334.1375 297.75586 333.73126Q297.75586 333.3719 297.44336 333.16876Q297.2246 333.02814 296.36523 332.8094Q295.20898 332.5125 294.75586 332.3094Q294.31836 332.09064 294.08398 331.71564Q293.8496 331.34064 293.8496 330.8719Q293.8496 330.46564 294.0371 330.10626Q294.2246 329.7469 294.55273 329.5125Q294.80273 329.34064 295.2246 329.21564Q295.64648 329.09064 296.14648 329.09064Q296.86523 329.09064 297.4121 329.3094Q297.9746 329.5125 298.24023 329.8719Q298.50586 330.23126 298.5996 330.825L297.56836 330.96564Q297.50586 330.4969 297.1621 330.23126Q296.83398 329.95 296.20898 329.95Q295.49023 329.95 295.17773 330.2Q294.86523 330.4344 294.86523 330.7625Q294.86523 330.96564 294.99023 331.1219Q295.13086 331.29376 295.39648 331.40314Q295.55273 331.46564 296.33398 331.66876Q297.45898 331.98126 297.89648 332.16876Q298.33398 332.35626 298.58398 332.71564Q298.83398 333.075 298.83398 333.6219Q298.83398 334.15314 298.52148 334.6219Q298.2246 335.075 297.64648 335.34064Q297.06836 335.59064 296.33398 335.59064Q295.11523 335.59064 294.4746 335.09064Q293.8496 334.575 293.67773 333.59064Z" fill-rule="nonzero"/><path fill="#000000" d="M341.42188 335.45L341.42188 326.85626L342.57812 326.85626L347.09375 333.60626L347.09375 326.85626L348.1875 326.85626L348.1875 335.45L347.01562 335.45L342.5 328.7L342.5 335.45L341.42188 335.45ZM349.90625 332.34064Q349.90625 330.60626 350.85938 329.77814Q351.65625 329.09064 352.8125 329.09064Q354.09375 329.09064 354.90625 329.9344Q355.73438 330.7625 355.73438 332.2469Q355.73438 333.45 355.375 334.1375Q355.01562 334.825 354.3125 335.21564Q353.625 335.59064 352.8125 335.59064Q351.51562 335.59064 350.70312 334.7625Q349.90625 333.91876 349.90625 332.34064ZM350.98438 332.34064Q350.98438 333.52814 351.5 334.1219Q352.03125 334.71564 352.8125 334.71564Q353.60938 334.71564 354.125 334.1219Q354.64062 333.52814 354.64062 332.3094Q354.64062 331.15314 354.10938 330.5594Q353.59375 329.96564 352.8125 329.96564Q352.03125 329.96564 351.5 330.5594Q350.98438 331.1375 350.98438 332.34064ZM359.59375 334.5125L359.75 335.4344Q359.29688 335.52814 358.95312 335.52814Q358.375 335.52814 358.0625 335.35626Q357.75 335.16876 357.60938 334.8719Q357.48438 334.575 357.48438 333.6219L357.48438 330.04376L356.71875 330.04376L356.71875 329.23126L357.48438 329.23126L357.48438 327.6844L358.53125 327.0594L358.53125 329.23126L359.59375 329.23126L359.59375 330.04376L358.53125 330.04376L358.53125 333.6844Q358.53125 334.1375 358.57812 334.2625Q358.64062 334.3875 358.76562 334.46564Q358.89062 334.54376 359.125 334.54376Q359.3125 334.54376 359.59375 334.5125ZM364.4375 335.45L362.53125 329.23126L363.625 329.23126L364.60938 332.825L364.98438 334.15314Q365.01562 334.0594 365.3125 332.8719L366.29688 329.23126L367.375 329.23126L368.3125 332.84064L368.625 334.02814L368.98438 332.825L370.04688 329.23126L371.07812 329.23126L369.125 335.45L368.03125 335.45L367.04688 331.71564L366.79688 330.66876L365.54688 335.45L364.4375 335.45ZM372.29688 335.45L372.29688 326.85626L373.34375 326.85626L373.34375 329.9344Q374.07812 329.09064 375.20312 329.09064Q375.90625 329.09064 376.40625 329.3719Q376.92188 329.6375 377.14062 330.1219Q377.35938 330.59064 377.35938 331.5125L377.35938 335.45L376.3125 335.45L376.3125 331.5125Q376.3125 330.71564 375.96875 330.35626Q375.625 329.9969 375.0 329.9969Q374.53125 329.9969 374.10938 330.2469Q373.70312 330.48126 373.51562 330.90314Q373.34375 331.3094 373.34375 332.04376L373.34375 335.45L372.29688 335.45ZM379.29688 328.075L379.29688 326.85626L380.35938 326.85626L380.35938 328.075L379.29688 328.075ZM379.29688 335.45L379.29688 329.23126L380.35938 329.23126L380.35938 335.45L379.29688 335.45ZM384.59375 334.5125L384.75 335.4344Q384.29688 335.52814 383.95312 335.52814Q383.375 335.52814 383.0625 335.35626Q382.75 335.16876 382.60938 334.8719Q382.48438 334.575 382.48438 333.6219L382.48438 330.04376L381.71875 330.04376L381.71875 329.23126L382.48438 329.23126L382.48438 327.6844L383.53125 327.0594L383.53125 329.23126L384.59375 329.23126L384.59375 330.04376L383.53125 330.04376L383.53125 333.6844Q383.53125 334.1375 383.57812 334.2625Q383.64062 334.3875 383.76562 334.46564Q383.89062 334.54376 384.125 334.54376Q384.3125 334.54376 384.59375 334.5125ZM389.54688 333.45L390.64062 333.575Q390.39062 334.52814 389.6875 335.0594Q388.98438 335.59064 387.90625 335.59064Q386.54688 335.59064 385.73438 334.7469Q384.9375 333.90314 384.9375 332.3875Q384.9375 330.825 385.75 329.96564Q386.5625 329.09064 387.84375 329.09064Q389.09375 329.09064 389.875 329.9344Q390.67188 330.77814 390.67188 332.325Q390.67188 332.41876 390.67188 332.60626L386.03125 332.60626Q386.09375 333.6375 386.60938 334.1844Q387.125 334.71564 387.90625 334.71564Q388.48438 334.71564 388.89062 334.41876Q389.3125 334.10626 389.54688 333.45ZM386.09375 331.7469L389.5625 331.7469Q389.5 330.95 389.17188 330.5594Q388.65625 329.95 387.85938 329.95Q387.125 329.95 386.625 330.4344Q386.14062 330.91876 386.09375 331.7469Z" fill-rule="nonzero"/><path fill="#000000" d="M416.32227 335.45L416.32227 326.85626L417.44727 326.85626L417.44727 335.45L416.32227 335.45ZM418.99414 335.45L418.99414 329.23126L419.93164 329.23126L419.93164 330.10626Q420.22852 329.6375 420.7129 329.3719Q421.19727 329.09064 421.82227 329.09064Q422.50977 329.09064 422.94727 329.3719Q423.4004 329.65314 423.57227 330.16876Q424.32227 329.09064 425.49414 329.09064Q426.43164 329.09064 426.91602 329.60626Q427.41602 330.10626 427.41602 331.1844L427.41602 335.45L426.36914 335.45L426.36914 331.52814Q426.36914 330.90314 426.25977 330.6219Q426.16602 330.34064 425.9004 330.16876Q425.63477 329.9969 425.25977 329.9969Q424.60352 329.9969 424.16602 330.4344Q423.74414 330.8719 423.74414 331.84064L423.74414 335.45L422.68164 335.45L422.68164 331.40314Q422.68164 330.7 422.41602 330.35626Q422.16602 329.9969 421.5879 329.9969Q421.13477 329.9969 420.75977 330.23126Q420.38477 330.46564 420.2129 330.91876Q420.04102 331.3719 420.04102 332.21564L420.04102 335.45L418.99414 335.45ZM429.99414 335.45L429.99414 329.23126L430.93164 329.23126L430.93164 330.10626Q431.22852 329.6375 431.7129 329.3719Q432.19727 329.09064 432.82227 329.09064Q433.50977 329.09064 433.94727 329.3719Q434.4004 329.65314 434.57227 330.16876Q435.32227 329.09064 436.49414 329.09064Q437.43164 329.09064 437.91602 329.60626Q438.41602 330.10626 438.41602 331.1844L438.41602 335.45L437.36914 335.45L437.36914 331.52814Q437.36914 330.90314 437.25977 330.6219Q437.16602 330.34064 436.9004 330.16876Q436.63477 329.9969 436.25977 329.9969Q435.60352 329.9969 435.16602 330.4344Q434.74414 330.8719 434.74414 331.84064L434.74414 335.45L433.68164 335.45L433.68164 331.40314Q433.68164 330.7 433.41602 330.35626Q433.16602 329.9969 432.5879 329.9969Q432.13477 329.9969 431.75977 330.23126Q431.38477 330.46564 431.2129 330.91876Q431.04102 331.3719 431.04102 332.21564L431.04102 335.45L429.99414 335.45ZM440.99414 328.075L440.99414 326.85626L442.05664 326.85626L442.05664 328.075L440.99414 328.075ZM440.99414 335.45L440.99414 329.23126L442.05664 329.23126L442.05664 335.45L440.99414 335.45ZM443.79102 335.96564L444.82227 336.1219Q444.88477 336.59064 445.18164 336.8094Q445.57227 337.10626 446.24414 337.10626Q446.97852 337.10626 447.36914 336.8094Q447.7754 336.5125 447.91602 335.9969Q448.00977 335.66876 447.99414 334.6375Q447.30664 335.45 446.2754 335.45Q444.99414 335.45 444.29102 334.52814Q443.5879 333.59064 443.5879 332.3094Q443.5879 331.41876 443.9004 330.66876Q444.22852 329.90314 444.8379 329.4969Q445.44727 329.09064 446.2754 329.09064Q447.38477 329.09064 448.10352 329.98126L448.10352 329.23126L449.07227 329.23126L449.07227 334.60626Q449.07227 336.0594 448.7754 336.66876Q448.47852 337.27814 447.8379 337.6219Q447.19727 337.98126 446.25977 337.98126Q445.1504 337.98126 444.4629 337.48126Q443.7754 336.98126 443.79102 335.96564ZM444.66602 332.23126Q444.66602 333.45 445.1504 334.0125Q445.63477 334.575 446.36914 334.575Q447.10352 334.575 447.5879 334.0125Q448.0879 333.45 448.0879 332.2625Q448.0879 331.1219 447.57227 330.54376Q447.07227 329.96564 446.35352 329.96564Q445.6504 329.96564 445.1504 330.54376Q444.66602 331.10626 444.66602 332.23126ZM450.97852 335.45L450.97852 329.23126L451.93164 329.23126L451.93164 330.16876Q452.29102 329.5125 452.5879 329.3094Q452.9004 329.09064 453.2754 329.09064Q453.80664 329.09064 454.35352 329.41876L453.99414 330.40314Q453.60352 330.16876 453.22852 330.16876Q452.86914 330.16876 452.5879 330.3875Q452.32227 330.59064 452.2129 330.96564Q452.0254 331.52814 452.0254 332.1844L452.0254 335.45L450.97852 335.45ZM459.05664 334.6844Q458.4629 335.1844 457.91602 335.3875Q457.38477 335.59064 456.75977 335.59064Q455.72852 335.59064 455.18164 335.09064Q454.63477 334.59064 454.63477 333.8094Q454.63477 333.35626 454.8379 332.98126Q455.04102 332.59064 455.38477 332.3719Q455.72852 332.1375 456.1504 332.02814Q456.44727 331.9344 457.0879 331.85626Q458.35352 331.71564 458.9629 331.4969Q458.9629 331.27814 458.9629 331.23126Q458.9629 330.575 458.66602 330.3094Q458.25977 329.96564 457.4629 329.96564Q456.72852 329.96564 456.36914 330.23126Q456.00977 330.48126 455.8379 331.1375L454.80664 330.9969Q454.94727 330.34064 455.2754 329.9344Q455.60352 329.52814 456.2129 329.3094Q456.82227 329.09064 457.61914 329.09064Q458.41602 329.09064 458.91602 329.27814Q459.41602 329.46564 459.6504 329.7469Q459.88477 330.02814 459.97852 330.46564Q460.0254 330.73126 460.0254 331.4344L460.0254 332.84064Q460.0254 334.3094 460.0879 334.7Q460.16602 335.09064 460.36914 335.45L459.25977 335.45Q459.10352 335.1219 459.05664 334.6844ZM458.9629 332.325Q458.38477 332.5594 457.24414 332.73126Q456.5879 332.825 456.32227 332.95Q456.05664 333.0594 455.9004 333.27814Q455.75977 333.4969 455.75977 333.77814Q455.75977 334.2 456.07227 334.48126Q456.4004 334.7625 457.00977 334.7625Q457.61914 334.7625 458.0879 334.4969Q458.57227 334.23126 458.79102 333.7625Q458.9629 333.40314 458.9629 332.71564L458.9629 332.325ZM461.99414 335.45L461.99414 329.23126L462.93164 329.23126L462.93164 330.10626Q463.61914 329.09064 464.91602 329.09064Q465.47852 329.09064 465.94727 329.29376Q466.43164 329.4969 466.66602 329.825Q466.9004 330.15314 466.99414 330.59064Q467.04102 330.8875 467.04102 331.6219L467.04102 335.45L465.99414 335.45L465.99414 331.66876Q465.99414 331.0125 465.86914 330.7Q465.74414 330.3875 465.43164 330.2Q465.11914 329.9969 464.69727 329.9969Q464.0254 329.9969 463.5254 330.4344Q463.04102 330.85626 463.04102 332.04376L463.04102 335.45L461.99414 335.45ZM471.29102 334.5125L471.44727 335.4344Q470.99414 335.52814 470.6504 335.52814Q470.07227 335.52814 469.75977 335.35626Q469.44727 335.16876 469.30664 334.8719Q469.18164 334.575 469.18164 333.6219L469.18164 330.04376L468.41602 330.04376L468.41602 329.23126L469.18164 329.23126L469.18164 327.6844L470.22852 327.0594L470.22852 329.23126L471.29102 329.23126L471.29102 330.04376L470.22852 330.04376L470.22852 333.6844Q470.22852 334.1375 470.2754 334.2625Q470.3379 334.3875 470.4629 334.46564Q470.5879 334.54376 470.82227 334.54376Q471.00977 334.54376 471.29102 334.5125ZM471.57227 333.59064L472.60352 333.4344Q472.69727 334.0594 473.0879 334.3875Q473.49414 334.71564 474.22852 334.71564Q474.94727 334.71564 475.29102 334.4344Q475.6504 334.1375 475.6504 333.73126Q475.6504 333.3719 475.3379 333.16876Q475.11914 333.02814 474.25977 332.8094Q473.10352 332.5125 472.6504 332.3094Q472.2129 332.09064 471.97852 331.71564Q471.74414 331.34064 471.74414 330.8719Q471.74414 330.46564 471.93164 330.10626Q472.11914 329.7469 472.44727 329.5125Q472.69727 329.34064 473.11914 329.21564Q473.54102 329.09064 474.04102 329.09064Q474.75977 329.09064 475.30664 329.3094Q475.86914 329.5125 476.13477 329.8719Q476.4004 330.23126 476.49414 330.825L475.4629 330.96564Q475.4004 330.4969 475.05664 330.23126Q474.72852 329.95 474.10352 329.95Q473.38477 329.95 473.07227 330.2Q472.75977 330.4344 472.75977 330.7625Q472.75977 330.96564 472.88477 331.1219Q473.0254 331.29376 473.29102 331.40314Q473.44727 331.46564 474.22852 331.66876Q475.35352 331.98126 475.79102 332.16876Q476.22852 332.35626 476.47852 332.71564Q476.72852 333.075 476.72852 333.6219Q476.72852 334.15314 476.41602 334.6219Q476.11914 335.075 475.54102 335.34064Q474.9629 335.59064 474.22852 335.59064Q473.00977 335.59064 472.36914 335.09064Q471.74414 334.575 471.57227 333.59064ZM484.29102 334.5125L484.44727 335.4344Q483.99414 335.52814 483.6504 335.52814Q483.07227 335.52814 482.75977 335.35626Q482.44727 335.16876 482.30664 334.8719Q482.18164 334.575 482.18164 333.6219L482.18164 330.04376L481.41602 330.04376L481.41602 329.23126L482.18164 329.23126L482.18164 327.6844L483.22852 327.0594L483.22852 329.23126L484.29102 329.23126L484.29102 330.04376L483.22852 330.04376L483.22852 333.6844Q483.22852 334.1375 483.2754 334.2625Q483.3379 334.3875 483.4629 334.46564Q483.5879 334.54376 483.82227 334.54376Q484.00977 334.54376 484.29102 334.5125ZM484.60352 332.34064Q484.60352 330.60626 485.55664 329.77814Q486.35352 329.09064 487.50977 329.09064Q488.79102 329.09064 489.60352 329.9344Q490.43164 330.7625 490.43164 332.2469Q490.43164 333.45 490.07227 334.1375Q489.7129 334.825 489.00977 335.21564Q488.32227 335.59064 487.50977 335.59064Q486.2129 335.59064 485.4004 334.7625Q484.60352 333.91876 484.60352 332.34064ZM485.68164 332.34064Q485.68164 333.52814 486.19727 334.1219Q486.72852 334.71564 487.50977 334.71564Q488.30664 334.71564 488.82227 334.1219Q489.3379 333.52814 489.3379 332.3094Q489.3379 331.15314 488.80664 330.5594Q488.29102 329.96564 487.50977 329.96564Q486.72852 329.96564 486.19727 330.5594Q485.68164 331.1375 485.68164 332.34064Z" fill-rule="nonzero"/><path fill="#000000" d="M438.25977 346.4344L439.38477 346.73126Q439.0254 348.1219 438.10352 348.85626Q437.18164 349.59064 435.8379 349.59064Q434.44727 349.59064 433.57227 349.02814Q432.69727 348.46564 432.24414 347.40314Q431.79102 346.325 431.79102 345.09064Q431.79102 343.7469 432.30664 342.7469Q432.82227 341.7469 433.75977 341.23126Q434.7129 340.71564 435.85352 340.71564Q437.13477 340.71564 438.00977 341.3719Q438.9004 342.02814 439.24414 343.21564L438.11914 343.48126Q437.82227 342.54376 437.24414 342.1219Q436.68164 341.6844 435.82227 341.6844Q434.8379 341.6844 434.16602 342.16876Q433.50977 342.6375 433.22852 343.4344Q432.9629 344.23126 432.9629 345.09064Q432.9629 346.1844 433.2754 346.9969Q433.60352 347.8094 434.2754 348.21564Q434.94727 348.6219 435.74414 348.6219Q436.69727 348.6219 437.35352 348.075Q438.0254 347.52814 438.25977 346.4344ZM445.05664 348.6844Q444.4629 349.1844 443.91602 349.3875Q443.38477 349.59064 442.75977 349.59064Q441.72852 349.59064 441.18164 349.09064Q440.63477 348.59064 440.63477 347.8094Q440.63477 347.35626 440.8379 346.98126Q441.04102 346.59064 441.38477 346.3719Q441.72852 346.1375 442.1504 346.02814Q442.44727 345.9344 443.0879 345.85626Q444.35352 345.71564 444.9629 345.4969Q444.9629 345.27814 444.9629 345.23126Q444.9629 344.575 444.66602 344.3094Q444.25977 343.96564 443.4629 343.96564Q442.72852 343.96564 442.36914 344.23126Q442.00977 344.48126 441.8379 345.1375L440.80664 344.9969Q440.94727 344.34064 441.2754 343.9344Q441.60352 343.52814 442.2129 343.3094Q442.82227 343.09064 443.61914 343.09064Q444.41602 343.09064 444.91602 343.27814Q445.41602 343.46564 445.6504 343.7469Q445.88477 344.02814 445.97852 344.46564Q446.0254 344.73126 446.0254 345.4344L446.0254 346.84064Q446.0254 348.3094 446.0879 348.7Q446.16602 349.09064 446.36914 349.45L445.25977 349.45Q445.10352 349.1219 445.05664 348.6844ZM444.9629 346.325Q444.38477 346.5594 443.24414 346.73126Q442.5879 346.825 442.32227 346.95Q442.05664 347.0594 441.9004 347.27814Q441.75977 347.4969 441.75977 347.77814Q441.75977 348.2 442.07227 348.48126Q442.4004 348.7625 443.00977 348.7625Q443.61914 348.7625 444.0879 348.4969Q444.57227 348.23126 444.79102 347.7625Q444.9629 347.40314 444.9629 346.71564L444.9629 346.325ZM447.99414 349.45L447.99414 343.23126L448.93164 343.23126L448.93164 344.10626Q449.61914 343.09064 450.91602 343.09064Q451.47852 343.09064 451.94727 343.29376Q452.43164 343.4969 452.66602 343.825Q452.9004 344.15314 452.99414 344.59064Q453.04102 344.8875 453.04102 345.6219L453.04102 349.45L451.99414 349.45L451.99414 345.66876Q451.99414 345.0125 451.86914 344.7Q451.74414 344.3875 451.43164 344.2Q451.11914 343.9969 450.69727 343.9969Q450.0254 343.9969 449.5254 344.4344Q449.04102 344.85626 449.04102 346.04376L449.04102 349.45L447.99414 349.45ZM459.05664 348.6844Q458.4629 349.1844 457.91602 349.3875Q457.38477 349.59064 456.75977 349.59064Q455.72852 349.59064 455.18164 349.09064Q454.63477 348.59064 454.63477 347.8094Q454.63477 347.35626 454.8379 346.98126Q455.04102 346.59064 455.38477 346.3719Q455.72852 346.1375 456.1504 346.02814Q456.44727 345.9344 457.0879 345.85626Q458.35352 345.71564 458.9629 345.4969Q458.9629 345.27814 458.9629 345.23126Q458.9629 344.575 458.66602 344.3094Q458.25977 343.96564 457.4629 343.96564Q456.72852 343.96564 456.36914 344.23126Q456.00977 344.48126 455.8379 345.1375L454.80664 344.9969Q454.94727 344.34064 455.2754 343.9344Q455.60352 343.52814 456.2129 343.3094Q456.82227 343.09064 457.61914 343.09064Q458.41602 343.09064 458.91602 343.27814Q459.41602 343.46564 459.6504 343.7469Q459.88477 344.02814 459.97852 344.46564Q460.0254 344.73126 460.0254 345.4344L460.0254 346.84064Q460.0254 348.3094 460.0879 348.7Q460.16602 349.09064 460.36914 349.45L459.25977 349.45Q459.10352 349.1219 459.05664 348.6844ZM458.9629 346.325Q458.38477 346.5594 457.24414 346.73126Q456.5879 346.825 456.32227 346.95Q456.05664 347.0594 455.9004 347.27814Q455.75977 347.4969 455.75977 347.77814Q455.75977 348.2 456.07227 348.48126Q456.4004 348.7625 457.00977 348.7625Q457.61914 348.7625 458.0879 348.4969Q458.57227 348.23126 458.79102 347.7625Q458.9629 347.40314 458.9629 346.71564L458.9629 346.325ZM466.0254 349.45L466.0254 348.66876Q465.43164 349.59064 464.29102 349.59064Q463.54102 349.59064 462.91602 349.1844Q462.29102 348.7625 461.94727 348.02814Q461.60352 347.29376 461.60352 346.34064Q461.60352 345.41876 461.91602 344.65314Q462.22852 343.8875 462.85352 343.4969Q463.47852 343.09064 464.24414 343.09064Q464.80664 343.09064 465.24414 343.325Q465.68164 343.5594 465.9629 343.9344L465.9629 340.85626L467.00977 340.85626L467.00977 349.45L466.0254 349.45ZM462.69727 346.34064Q462.69727 347.54376 463.19727 348.1375Q463.69727 348.71564 464.38477 348.71564Q465.07227 348.71564 465.55664 348.15314Q466.04102 347.59064 466.04102 346.4344Q466.04102 345.15314 465.54102 344.5594Q465.05664 343.96564 464.3379 343.96564Q463.63477 343.96564 463.16602 344.54376Q462.69727 345.10626 462.69727 346.34064ZM473.05664 348.6844Q472.4629 349.1844 471.91602 349.3875Q471.38477 349.59064 470.75977 349.59064Q469.72852 349.59064 469.18164 349.09064Q468.63477 348.59064 468.63477 347.8094Q468.63477 347.35626 468.8379 346.98126Q469.04102 346.59064 469.38477 346.3719Q469.72852 346.1375 470.1504 346.02814Q470.44727 345.9344 471.0879 345.85626Q472.35352 345.71564 472.9629 345.4969Q472.9629 345.27814 472.9629 345.23126Q472.9629 344.575 472.66602 344.3094Q472.25977 343.96564 471.4629 343.96564Q470.72852 343.96564 470.36914 344.23126Q470.00977 344.48126 469.8379 345.1375L468.80664 344.9969Q468.94727 344.34064 469.2754 343.9344Q469.60352 343.52814 470.2129 343.3094Q470.82227 343.09064 471.61914 343.09064Q472.41602 343.09064 472.91602 343.27814Q473.41602 343.46564 473.6504 343.7469Q473.88477 344.02814 473.97852 344.46564Q474.0254 344.73126 474.0254 345.4344L474.0254 346.84064Q474.0254 348.3094 474.0879 348.7Q474.16602 349.09064 474.36914 349.45L473.25977 349.45Q473.10352 349.1219 473.05664 348.6844ZM472.9629 346.325Q472.38477 346.5594 471.24414 346.73126Q470.5879 346.825 470.32227 346.95Q470.05664 347.0594 469.9004 347.27814Q469.75977 347.4969 469.75977 347.77814Q469.75977 348.2 470.07227 348.48126Q470.4004 348.7625 471.00977 348.7625Q471.61914 348.7625 472.0879 348.4969Q472.57227 348.23126 472.79102 347.7625Q472.9629 347.40314 472.9629 346.71564L472.9629 346.325Z" fill-rule="nonzero"/><path fill="#000000" d="M513.76953 335.45L513.76953 326.85626L514.91016 326.85626L514.91016 334.4344L519.14453 334.4344L519.14453 335.45L513.76953 335.45ZM520.76953 335.45L520.76953 326.85626L524.0039 326.85626Q524.9883 326.85626 525.58203 327.1219Q526.1758 327.3875 526.5039 327.9344Q526.84766 328.46564 526.84766 329.0594Q526.84766 329.60626 526.5508 330.09064Q526.2539 330.575 525.64453 330.8719Q526.4258 331.10626 526.83203 331.66876Q527.2539 332.21564 527.2539 332.96564Q527.2539 333.5594 527.0039 334.09064Q526.7539 334.60626 526.3789 334.8875Q526.0039 335.16876 525.4258 335.3094Q524.8633 335.45 524.0508 335.45L520.76953 335.45ZM521.91016 330.46564L523.76953 330.46564Q524.51953 330.46564 524.84766 330.3719Q525.28516 330.2469 525.5039 329.95Q525.72266 329.6375 525.72266 329.1844Q525.72266 328.7625 525.51953 328.4344Q525.3164 328.10626 524.9258 327.9969Q524.5508 327.8719 523.6289 327.8719L521.91016 327.8719L521.91016 330.46564ZM521.91016 334.4344L524.0508 334.4344Q524.59766 334.4344 524.8164 334.3875Q525.22266 334.325 525.47266 334.16876Q525.7383 333.9969 525.91016 333.6844Q526.08203 333.3719 526.08203 332.96564Q526.08203 332.48126 525.83203 332.1219Q525.59766 331.7625 525.16016 331.6219Q524.72266 331.48126 523.89453 331.48126L521.91016 331.48126L521.91016 334.4344ZM532.84766 332.075L532.84766 331.075L536.47266 331.0594L536.47266 334.2469Q535.64453 334.91876 534.7539 335.2625Q533.8633 335.59064 532.9258 335.59064Q531.66016 335.59064 530.6133 335.0594Q529.58203 334.5125 529.0508 333.4969Q528.53516 332.46564 528.53516 331.2Q528.53516 329.9344 529.0508 328.85626Q529.58203 327.7625 530.5664 327.2469Q531.5508 326.71564 532.83203 326.71564Q533.76953 326.71564 534.51953 327.0125Q535.26953 327.3094 535.6914 327.85626Q536.1289 328.3875 536.34766 329.2625L535.33203 329.54376Q535.1289 328.8875 534.83203 328.5125Q534.5508 328.1375 534.01953 327.91876Q533.4883 327.6844 532.84766 327.6844Q532.0664 327.6844 531.4883 327.91876Q530.9258 328.15314 530.5664 328.54376Q530.22266 328.9344 530.03516 329.40314Q529.70703 330.2 529.70703 331.1219Q529.70703 332.27814 530.09766 333.0594Q530.5039 333.825 531.2539 334.2Q532.0039 334.575 532.8633 334.575Q533.59766 334.575 534.3008 334.29376Q535.0039 333.9969 535.3633 333.6844L535.3633 332.075L532.84766 332.075ZM540.0039 335.45L540.0039 327.8719L537.1758 327.8719L537.1758 326.85626L543.9883 326.85626L543.9883 327.8719L541.14453 327.8719L541.14453 335.45L540.0039 335.45ZM551.33203 334.52814Q552.1289 335.075 552.78516 335.325L552.45703 336.1219Q551.53516 335.77814 550.6133 335.0594Q549.66016 335.59064 548.5039 335.59064Q547.33203 335.59064 546.3789 335.02814Q545.4414 334.46564 544.9258 333.45Q544.41016 332.4344 544.41016 331.15314Q544.41016 329.8875 544.9258 328.84064Q545.4414 327.79376 546.39453 327.2469Q547.34766 326.7 548.51953 326.7Q549.70703 326.7 550.66016 327.27814Q551.6289 327.84064 552.1289 328.85626Q552.6289 329.8719 552.6289 331.15314Q552.6289 332.21564 552.3008 333.0594Q551.9883 333.90314 551.33203 334.52814ZM548.83203 333.075Q549.8164 333.35626 550.45703 333.90314Q551.45703 332.98126 551.45703 331.15314Q551.45703 330.10626 551.09766 329.325Q550.7383 328.54376 550.0508 328.1219Q549.3789 327.6844 548.53516 327.6844Q547.2539 327.6844 546.41016 328.5594Q545.58203 329.41876 545.58203 331.15314Q545.58203 332.825 546.41016 333.73126Q547.2383 334.6219 548.53516 334.6219Q549.14453 334.6219 549.6758 334.3875Q549.14453 334.04376 548.5508 333.90314L548.83203 333.075ZM553.4414 332.6844L554.5039 332.59064Q554.58203 333.2469 554.8633 333.65314Q555.14453 334.0594 555.72266 334.325Q556.3164 334.575 557.0508 334.575Q557.6914 334.575 558.1914 334.3875Q558.6914 334.1844 558.9258 333.85626Q559.1758 333.5125 559.1758 333.1219Q559.1758 332.71564 558.9414 332.41876Q558.70703 332.10626 558.1758 331.90314Q557.8164 331.7625 556.6289 331.48126Q555.45703 331.2 554.9883 330.95Q554.3633 330.6219 554.0664 330.15314Q553.76953 329.66876 553.76953 329.075Q553.76953 328.4344 554.1289 327.8719Q554.5039 327.29376 555.20703 327.0125Q555.9258 326.71564 556.78516 326.71564Q557.7383 326.71564 558.47266 327.02814Q559.20703 327.325 559.59766 327.9344Q559.9883 328.52814 560.01953 329.27814L558.9258 329.35626Q558.83203 328.54376 558.3164 328.1375Q557.8164 327.71564 556.83203 327.71564Q555.8008 327.71564 555.33203 328.09064Q554.8633 328.46564 554.8633 328.9969Q554.8633 329.46564 555.1914 329.7625Q555.51953 330.0594 556.89453 330.3719Q558.28516 330.6844 558.8008 330.91876Q559.5508 331.27814 559.91016 331.8094Q560.26953 332.325 560.26953 333.02814Q560.26953 333.71564 559.8789 334.325Q559.4883 334.91876 558.7539 335.2625Q558.01953 335.59064 557.09766 335.59064Q555.9258 335.59064 555.1289 335.2625Q554.34766 334.91876 553.89453 334.23126Q553.45703 333.54376 553.4414 332.6844ZM563.89453 334.0594L563.89453 331.7L561.5664 331.7L561.5664 330.71564L563.89453 330.71564L563.89453 328.3875L564.89453 328.3875L564.89453 330.71564L567.2383 330.71564L567.2383 331.7L564.89453 331.7L564.89453 334.0594L563.89453 334.0594Z" fill-rule="nonzero"/><path fill="#000000" d="M594.045 335.45L594.045 326.85626L600.2481 326.85626L600.2481 327.8719L595.1856 327.8719L595.1856 330.4969L599.9356 330.4969L599.9356 331.5125L595.1856 331.5125L595.1856 334.4344L600.45123 334.4344L600.45123 335.45L594.045 335.45ZM601.88873 335.45L601.88873 329.23126L602.82623 329.23126L602.82623 330.10626Q603.51373 329.09064 604.8106 329.09064Q605.3731 329.09064 605.84186 329.29376Q606.32623 329.4969 606.5606 329.825Q606.795 330.15314 606.88873 330.59064Q606.9356 330.8875 606.9356 331.6219L606.9356 335.45L605.88873 335.45L605.88873 331.66876Q605.88873 331.0125 605.76373 330.7Q605.63873 330.3875 605.32623 330.2Q605.01373 329.9969 604.59186 329.9969Q603.92 329.9969 603.42 330.4344Q602.9356 330.85626 602.9356 332.04376L602.9356 335.45L601.88873 335.45ZM608.6856 335.96564L609.71686 336.1219Q609.77936 336.59064 610.07623 336.8094Q610.46686 337.10626 611.13873 337.10626Q611.8731 337.10626 612.26373 336.8094Q612.67 336.5125 612.8106 335.9969Q612.90436 335.66876 612.88873 334.6375Q612.20123 335.45 611.17 335.45Q609.88873 335.45 609.1856 334.52814Q608.4825 333.59064 608.4825 332.3094Q608.4825 331.41876 608.795 330.66876Q609.1231 329.90314 609.7325 329.4969Q610.34186 329.09064 611.17 329.09064Q612.27936 329.09064 612.9981 329.98126L612.9981 329.23126L613.96686 329.23126L613.96686 334.60626Q613.96686 336.0594 613.67 336.66876Q613.3731 337.27814 612.7325 337.6219Q612.09186 337.98126 611.15436 337.98126Q610.045 337.98126 609.3575 337.48126Q608.67 336.98126 608.6856 335.96564ZM609.5606 332.23126Q609.5606 333.45 610.045 334.0125Q610.52936 334.575 611.26373 334.575Q611.9981 334.575 612.4825 334.0125Q612.9825 333.45 612.9825 332.2625Q612.9825 331.1219 612.46686 330.54376Q611.96686 329.96564 611.2481 329.96564Q610.545 329.96564 610.045 330.54376Q609.5606 331.10626 609.5606 332.23126ZM615.8575 335.45L615.8575 326.85626L616.92 326.85626L616.92 335.45L615.8575 335.45ZM618.88873 328.075L618.88873 326.85626L619.95123 326.85626L619.95123 328.075L618.88873 328.075ZM618.88873 335.45L618.88873 329.23126L619.95123 329.23126L619.95123 335.45L618.88873 335.45ZM621.46686 333.59064L622.4981 333.4344Q622.59186 334.0594 622.9825 334.3875Q623.38873 334.71564 624.1231 334.71564Q624.84186 334.71564 625.1856 334.4344Q625.545 334.1375 625.545 333.73126Q625.545 333.3719 625.2325 333.16876Q625.01373 333.02814 624.15436 332.8094Q622.9981 332.5125 622.545 332.3094Q622.1075 332.09064 621.8731 331.71564Q621.63873 331.34064 621.63873 330.8719Q621.63873 330.46564 621.82623 330.10626Q622.01373 329.7469 622.34186 329.5125Q622.59186 329.34064 623.01373 329.21564Q623.4356 329.09064 623.9356 329.09064Q624.65436 329.09064 625.20123 329.3094Q625.76373 329.5125 626.02936 329.8719Q626.295 330.23126 626.38873 330.825L625.3575 330.96564Q625.295 330.4969 624.95123 330.23126Q624.6231 329.95 623.9981 329.95Q623.27936 329.95 622.96686 330.2Q622.65436 330.4344 622.65436 330.7625Q622.65436 330.96564 622.77936 331.1219Q622.92 331.29376 623.1856 331.40314Q623.34186 331.46564 624.1231 331.66876Q625.2481 331.98126 625.6856 332.16876Q626.1231 332.35626 626.3731 332.71564Q626.6231 333.075 626.6231 333.6219Q626.6231 334.15314 626.3106 334.6219Q626.01373 335.075 625.4356 335.34064Q624.8575 335.59064 624.1231 335.59064Q622.90436 335.59064 622.26373 335.09064Q621.63873 334.575 621.46686 333.59064ZM628.88873 335.45L628.88873 326.85626L629.9356 326.85626L629.9356 329.9344Q630.67 329.09064 631.795 329.09064Q632.4981 329.09064 632.9981 329.3719Q633.51373 329.6375 633.7325 330.1219Q633.95123 330.59064 633.95123 331.5125L633.95123 335.45L632.90436 335.45L632.90436 331.5125Q632.90436 330.71564 632.5606 330.35626Q632.21686 329.9969 631.59186 329.9969Q631.1231 329.9969 630.70123 330.2469Q630.295 330.48126 630.1075 330.90314Q629.9356 331.3094 629.9356 332.04376L629.9356 335.45L628.88873 335.45ZM642.95123 334.6844Q642.3575 335.1844 641.8106 335.3875Q641.27936 335.59064 640.65436 335.59064Q639.6231 335.59064 639.07623 335.09064Q638.52936 334.59064 638.52936 333.8094Q638.52936 333.35626 638.7325 332.98126Q638.9356 332.59064 639.27936 332.3719Q639.6231 332.1375 640.045 332.02814Q640.34186 331.9344 640.9825 331.85626Q642.2481 331.71564 642.8575 331.4969Q642.8575 331.27814 642.8575 331.23126Q642.8575 330.575 642.5606 330.3094Q642.15436 329.96564 641.3575 329.96564Q640.6231 329.96564 640.26373 330.23126Q639.90436 330.48126 639.7325 331.1375L638.70123 330.9969Q638.84186 330.34064 639.17 329.9344Q639.4981 329.52814 640.1075 329.3094Q640.71686 329.09064 641.51373 329.09064Q642.3106 329.09064 642.8106 329.27814Q643.3106 329.46564 643.545 329.7469Q643.77936 330.02814 643.8731 330.46564Q643.92 330.73126 643.92 331.4344L643.92 332.84064Q643.92 334.3094 643.9825 334.7Q644.0606 335.09064 644.26373 335.45L643.15436 335.45Q642.9981 335.1219 642.95123 334.6844ZM642.8575 332.325Q642.27936 332.5594 641.13873 332.73126Q640.4825 332.825 640.21686 332.95Q639.95123 333.0594 639.795 333.27814Q639.65436 333.4969 639.65436 333.77814Q639.65436 334.2 639.96686 334.48126Q640.295 334.7625 640.90436 334.7625Q641.51373 334.7625 641.9825 334.4969Q642.46686 334.23126 642.6856 333.7625Q642.8575 333.40314 642.8575 332.71564L642.8575 332.325ZM645.46686 333.59064L646.4981 333.4344Q646.59186 334.0594 646.9825 334.3875Q647.38873 334.71564 648.1231 334.71564Q648.84186 334.71564 649.1856 334.4344Q649.545 334.1375 649.545 333.73126Q649.545 333.3719 649.2325 333.16876Q649.01373 333.02814 648.15436 332.8094Q646.9981 332.5125 646.545 332.3094Q646.1075 332.09064 645.8731 331.71564Q645.63873 331.34064 645.63873 330.8719Q645.63873 330.46564 645.82623 330.10626Q646.01373 329.7469 646.34186 329.5125Q646.59186 329.34064 647.01373 329.21564Q647.4356 329.09064 647.9356 329.09064Q648.65436 329.09064 649.20123 329.3094Q649.76373 329.5125 650.02936 329.8719Q650.295 330.23126 650.38873 330.825L649.3575 330.96564Q649.295 330.4969 648.95123 330.23126Q648.6231 329.95 647.9981 329.95Q647.27936 329.95 646.96686 330.2Q646.65436 330.4344 646.65436 330.7625Q646.65436 330.96564 646.77936 331.1219Q646.92 331.29376 647.1856 331.40314Q647.34186 331.46564 648.1231 331.66876Q649.2481 331.98126 649.6856 332.16876Q650.1231 332.35626 650.3731 332.71564Q650.6231 333.075 650.6231 333.6219Q650.6231 334.15314 650.3106 334.6219Q650.01373 335.075 649.4356 335.34064Q648.8575 335.59064 648.1231 335.59064Q646.90436 335.59064 646.26373 335.09064Q645.63873 334.575 645.46686 333.59064ZM659.95123 334.6844Q659.3575 335.1844 658.8106 335.3875Q658.27936 335.59064 657.65436 335.59064Q656.6231 335.59064 656.07623 335.09064Q655.52936 334.59064 655.52936 333.8094Q655.52936 333.35626 655.7325 332.98126Q655.9356 332.59064 656.27936 332.3719Q656.6231 332.1375 657.045 332.02814Q657.34186 331.9344 657.9825 331.85626Q659.2481 331.71564 659.8575 331.4969Q659.8575 331.27814 659.8575 331.23126Q659.8575 330.575 659.5606 330.3094Q659.15436 329.96564 658.3575 329.96564Q657.6231 329.96564 657.26373 330.23126Q656.90436 330.48126 656.7325 331.1375L655.70123 330.9969Q655.84186 330.34064 656.17 329.9344Q656.4981 329.52814 657.1075 329.3094Q657.71686 329.09064 658.51373 329.09064Q659.3106 329.09064 659.8106 329.27814Q660.3106 329.46564 660.545 329.7469Q660.77936 330.02814 660.8731 330.46564Q660.92 330.73126 660.92 331.4344L660.92 332.84064Q660.92 334.3094 660.9825 334.7Q661.0606 335.09064 661.26373 335.45L660.15436 335.45Q659.9981 335.1219 659.95123 334.6844ZM659.8575 332.325Q659.27936 332.5594 658.13873 332.73126Q657.4825 332.825 657.21686 332.95Q656.95123 333.0594 656.795 333.27814Q656.65436 333.4969 656.65436 333.77814Q656.65436 334.2 656.96686 334.48126Q657.295 334.7625 657.90436 334.7625Q658.51373 334.7625 658.9825 334.4969Q659.46686 334.23126 659.6856 333.7625Q659.8575 333.40314 659.8575 332.71564L659.8575 332.325Z" fill-rule="nonzero"/><path fill="#000000" d="M593.63873 348.4344L593.63873 349.45L587.95123 349.45Q587.95123 349.075 588.07623 348.71564Q588.295 348.1375 588.76373 347.575Q589.2481 347.0125 590.15436 346.27814Q591.5606 345.1219 592.045 344.45Q592.545 343.77814 592.545 343.1844Q592.545 342.5594 592.09186 342.1375Q591.63873 341.7 590.92 341.7Q590.15436 341.7 589.70123 342.15314Q589.2481 342.60626 589.2325 343.41876L588.15436 343.3094Q588.26373 342.09064 588.9825 341.46564Q589.71686 340.825 590.95123 340.825Q592.1856 340.825 592.90436 341.5125Q593.6231 342.2 593.6231 343.21564Q593.6231 343.73126 593.40436 344.23126Q593.20123 344.71564 592.70123 345.27814Q592.21686 345.825 591.09186 346.77814Q590.13873 347.575 589.8575 347.8719Q589.59186 348.15314 589.42 348.4344L593.63873 348.4344ZM595.38873 349.45L595.38873 343.23126L596.32623 343.23126L596.32623 344.10626Q597.01373 343.09064 598.3106 343.09064Q598.8731 343.09064 599.34186 343.29376Q599.82623 343.4969 600.0606 343.825Q600.295 344.15314 600.38873 344.59064Q600.4356 344.8875 600.4356 345.6219L600.4356 349.45L599.38873 349.45L599.38873 345.66876Q599.38873 345.0125 599.26373 344.7Q599.13873 344.3875 598.82623 344.2Q598.51373 343.9969 598.09186 343.9969Q597.42 343.9969 596.92 344.4344Q596.4356 344.85626 596.4356 346.04376L596.4356 349.45L595.38873 349.45ZM606.42 349.45L606.42 348.66876Q605.82623 349.59064 604.6856 349.59064Q603.9356 349.59064 603.3106 349.1844Q602.6856 348.7625 602.34186 348.02814Q601.9981 347.29376 601.9981 346.34064Q601.9981 345.41876 602.3106 344.65314Q602.6231 343.8875 603.2481 343.4969Q603.8731 343.09064 604.63873 343.09064Q605.20123 343.09064 605.63873 343.325Q606.07623 343.5594 606.3575 343.9344L606.3575 340.85626L607.40436 340.85626L607.40436 349.45L606.42 349.45ZM603.09186 346.34064Q603.09186 347.54376 603.59186 348.1375Q604.09186 348.71564 604.77936 348.71564Q605.46686 348.71564 605.95123 348.15314Q606.4356 347.59064 606.4356 346.4344Q606.4356 345.15314 605.9356 344.5594Q605.45123 343.96564 604.7325 343.96564Q604.02936 343.96564 603.5606 344.54376Q603.09186 345.10626 603.09186 346.34064ZM612.46686 349.45L612.46686 340.85626L613.6075 340.85626L613.6075 348.4344L617.84186 348.4344L617.84186 349.45L612.46686 349.45ZM623.45123 348.6844Q622.8575 349.1844 622.3106 349.3875Q621.77936 349.59064 621.15436 349.59064Q620.1231 349.59064 619.57623 349.09064Q619.02936 348.59064 619.02936 347.8094Q619.02936 347.35626 619.2325 346.98126Q619.4356 346.59064 619.77936 346.3719Q620.1231 346.1375 620.545 346.02814Q620.84186 345.9344 621.4825 345.85626Q622.7481 345.71564 623.3575 345.4969Q623.3575 345.27814 623.3575 345.23126Q623.3575 344.575 623.0606 344.3094Q622.65436 343.96564 621.8575 343.96564Q621.1231 343.96564 620.76373 344.23126Q620.40436 344.48126 620.2325 345.1375L619.20123 344.9969Q619.34186 344.34064 619.67 343.9344Q619.9981 343.52814 620.6075 343.3094Q621.21686 343.09064 622.01373 343.09064Q622.8106 343.09064 623.3106 343.27814Q623.8106 343.46564 624.045 343.7469Q624.27936 344.02814 624.3731 344.46564Q624.42 344.73126 624.42 345.4344L624.42 346.84064Q624.42 348.3094 624.4825 348.7Q624.5606 349.09064 624.76373 349.45L623.65436 349.45Q623.4981 349.1219 623.45123 348.6844ZM623.3575 346.325Q622.77936 346.5594 621.63873 346.73126Q620.9825 346.825 620.71686 346.95Q620.45123 347.0594 620.295 347.27814Q620.15436 347.4969 620.15436 347.77814Q620.15436 348.2 620.46686 348.48126Q620.795 348.7625 621.40436 348.7625Q622.01373 348.7625 622.4825 348.4969Q622.96686 348.23126 623.1856 347.7625Q623.3575 347.40314 623.3575 346.71564L623.3575 346.325ZM626.38873 349.45L626.38873 343.23126L627.32623 343.23126L627.32623 344.10626Q628.01373 343.09064 629.3106 343.09064Q629.8731 343.09064 630.34186 343.29376Q630.82623 343.4969 631.0606 343.825Q631.295 344.15314 631.38873 344.59064Q631.4356 344.8875 631.4356 345.6219L631.4356 349.45L630.38873 349.45L630.38873 345.66876Q630.38873 345.0125 630.26373 344.7Q630.13873 344.3875 629.82623 344.2Q629.51373 343.9969 629.09186 343.9969Q628.42 343.9969 627.92 344.4344Q627.4356 344.85626 627.4356 346.04376L627.4356 349.45L626.38873 349.45ZM633.1856 349.96564L634.21686 350.1219Q634.27936 350.59064 634.57623 350.8094Q634.96686 351.10626 635.63873 351.10626Q636.3731 351.10626 636.76373 350.8094Q637.17 350.5125 637.3106 349.9969Q637.40436 349.66876 637.38873 348.6375Q636.70123 349.45 635.67 349.45Q634.38873 349.45 633.6856 348.52814Q632.9825 347.59064 632.9825 346.3094Q632.9825 345.41876 633.295 344.66876Q633.6231 343.90314 634.2325 343.4969Q634.84186 343.09064 635.67 343.09064Q636.77936 343.09064 637.4981 343.98126L637.4981 343.23126L638.46686 343.23126L638.46686 348.60626Q638.46686 350.0594 638.17 350.66876Q637.8731 351.27814 637.2325 351.6219Q636.59186 351.98126 635.65436 351.98126Q634.545 351.98126 633.8575 351.48126Q633.17 350.98126 633.1856 349.96564ZM634.0606 346.23126Q634.0606 347.45 634.545 348.0125Q635.02936 348.575 635.76373 348.575Q636.4981 348.575 636.9825 348.0125Q637.4825 347.45 637.4825 346.2625Q637.4825 345.1219 636.96686 344.54376Q636.46686 343.96564 635.7481 343.96564Q635.045 343.96564 634.545 344.54376Q634.0606 345.10626 634.0606 346.23126ZM644.46686 349.45L644.46686 348.52814Q643.7325 349.59064 642.4825 349.59064Q641.9356 349.59064 641.45123 349.3875Q640.9825 349.16876 640.7481 348.85626Q640.51373 348.52814 640.42 348.0594Q640.3575 347.7625 640.3575 347.075L640.3575 343.23126L641.42 343.23126L641.42 346.6844Q641.42 347.4969 641.4825 347.79376Q641.57623 348.2 641.88873 348.45Q642.21686 348.6844 642.70123 348.6844Q643.17 348.6844 643.57623 348.45Q643.9981 348.2 644.17 347.77814Q644.3575 347.35626 644.3575 346.5594L644.3575 343.23126L645.40436 343.23126L645.40436 349.45L644.46686 349.45ZM651.45123 348.6844Q650.8575 349.1844 650.3106 349.3875Q649.77936 349.59064 649.15436 349.59064Q648.1231 349.59064 647.57623 349.09064Q647.02936 348.59064 647.02936 347.8094Q647.02936 347.35626 647.2325 346.98126Q647.4356 346.59064 647.77936 346.3719Q648.1231 346.1375 648.545 346.02814Q648.84186 345.9344 649.4825 345.85626Q650.7481 345.71564 651.3575 345.4969Q651.3575 345.27814 651.3575 345.23126Q651.3575 344.575 651.0606 344.3094Q650.65436 343.96564 649.8575 343.96564Q649.1231 343.96564 648.76373 344.23126Q648.40436 344.48126 648.2325 345.1375L647.20123 344.9969Q647.34186 344.34064 647.67 343.9344Q647.9981 343.52814 648.6075 343.3094Q649.21686 343.09064 650.01373 343.09064Q650.8106 343.09064 651.3106 343.27814Q651.8106 343.46564 652.045 343.7469Q652.27936 344.02814 652.3731 344.46564Q652.42 344.73126 652.42 345.4344L652.42 346.84064Q652.42 348.3094 652.4825 348.7Q652.5606 349.09064 652.76373 349.45L651.65436 349.45Q651.4981 349.1219 651.45123 348.6844ZM651.3575 346.325Q650.77936 346.5594 649.63873 346.73126Q648.9825 346.825 648.71686 346.95Q648.45123 347.0594 648.295 347.27814Q648.15436 347.4969 648.15436 347.77814Q648.15436 348.2 648.46686 348.48126Q648.795 348.7625 649.40436 348.7625Q650.01373 348.7625 650.4825 348.4969Q650.96686 348.23126 651.1856 347.7625Q651.3575 347.40314 651.3575 346.71564L651.3575 346.325ZM654.1856 349.96564L655.21686 350.1219Q655.27936 350.59064 655.57623 350.8094Q655.96686 351.10626 656.63873 351.10626Q657.3731 351.10626 657.76373 350.8094Q658.17 350.5125 658.3106 349.9969Q658.40436 349.66876 658.38873 348.6375Q657.70123 349.45 656.67 349.45Q655.38873 349.45 654.6856 348.52814Q653.9825 347.59064 653.9825 346.3094Q653.9825 345.41876 654.295 344.66876Q654.6231 343.90314 655.2325 343.4969Q655.84186 343.09064 656.67 343.09064Q657.77936 343.09064 658.4981 343.98126L658.4981 343.23126L659.46686 343.23126L659.46686 348.60626Q659.46686 350.0594 659.17 350.66876Q658.8731 351.27814 658.2325 351.6219Q657.59186 351.98126 656.65436 351.98126Q655.545 351.98126 654.8575 351.48126Q654.17 350.98126 654.1856 349.96564ZM655.0606 346.23126Q655.0606 347.45 655.545 348.0125Q656.02936 348.575 656.76373 348.575Q657.4981 348.575 657.9825 348.0125Q658.4825 347.45 658.4825 346.2625Q658.4825 345.1219 657.96686 344.54376Q657.46686 343.96564 656.7481 343.96564Q656.045 343.96564 655.545 344.54376Q655.0606 345.10626 655.0606 346.23126ZM665.63873 347.45L666.7325 347.575Q666.4825 348.52814 665.77936 349.0594Q665.07623 349.59064 663.9981 349.59064Q662.63873 349.59064 661.82623 348.7469Q661.02936 347.90314 661.02936 346.3875Q661.02936 344.825 661.84186 343.96564Q662.65436 343.09064 663.9356 343.09064Q665.1856 343.09064 665.96686 343.9344Q666.76373 344.77814 666.76373 346.325Q666.76373 346.41876 666.76373 346.60626L662.1231 346.60626Q662.1856 347.6375 662.70123 348.1844Q663.21686 348.71564 663.9981 348.71564Q664.57623 348.71564 664.9825 348.41876Q665.40436 348.10626 665.63873 347.45ZM662.1856 345.7469L665.65436 345.7469Q665.59186 344.95 665.26373 344.5594Q664.7481 343.95 663.95123 343.95Q663.21686 343.95 662.71686 344.4344Q662.2325 344.91876 662.1856 345.7469Z" fill-rule="nonzero"/><path fill="#757575" d="M20.409374 37.55L20.409374 23.2375L22.315624 23.2375L22.315624 37.55L20.409374 37.55ZM32.596874 37.55L32.596874 36.2375Q31.6125 37.784374 29.690624 37.784374Q28.45625 37.784374 27.409374 37.096874Q26.378124 36.409374 25.8 35.190624Q25.2375 33.971874 25.2375 32.378124Q25.2375 30.815624 25.753124 29.55Q26.26875 28.284374 27.3 27.6125Q28.346874 26.940624 29.6125 26.940624Q30.55 26.940624 31.284374 27.346874Q32.01875 27.7375 32.4875 28.3625L32.4875 23.2375L34.221874 23.2375L34.221874 37.55L32.596874 37.55ZM27.034374 32.378124Q27.034374 34.3625 27.878124 35.346874Q28.721874 36.33125 29.8625 36.33125Q31.01875 36.33125 31.815624 35.39375Q32.628124 34.45625 32.628124 32.51875Q32.628124 30.39375 31.8 29.39375Q30.9875 28.39375 29.784374 28.39375Q28.6125 28.39375 27.815624 29.3625Q27.034374 30.315624 27.034374 32.378124ZM43.971874 34.20625L45.784374 34.440624Q45.3625 36.01875 44.190624 36.909374Q43.034374 37.784374 41.221874 37.784374Q38.95625 37.784374 37.6125 36.39375Q36.284374 34.9875 36.284374 32.45625Q36.284374 29.83125 37.628124 28.39375Q38.971874 26.940624 41.128124 26.940624Q43.20625 26.940624 44.51875 28.3625Q45.846874 29.76875 45.846874 32.346874Q45.846874 32.503124 45.83125 32.815624L38.096874 32.815624Q38.190624 34.51875 39.065624 35.425Q39.940624 36.33125 41.2375 36.33125Q42.20625 36.33125 42.878124 35.83125Q43.565624 35.315624 43.971874 34.20625ZM38.190624 31.3625L43.9875 31.3625Q43.878124 30.065624 43.33125 29.409374Q42.4875 28.39375 41.14375 28.39375Q39.940624 28.39375 39.1125 29.20625Q38.284374 30.003124 38.190624 31.3625ZM47.8625 37.55L47.8625 27.175L49.45625 27.175L49.45625 28.659374Q50.596874 26.940624 52.753124 26.940624Q53.690624 26.940624 54.471874 27.284374Q55.26875 27.6125 55.659374 28.159374Q56.05 28.70625 56.20625 29.45625Q56.3 29.95625 56.3 31.175L56.3 37.55L54.534374 37.55L54.534374 31.2375Q54.534374 30.159374 54.33125 29.628124Q54.128124 29.096874 53.596874 28.784374Q53.08125 28.471874 52.378124 28.471874Q51.253124 28.471874 50.440624 29.190624Q49.628124 29.89375 49.628124 31.878124L49.628124 37.55L47.8625 37.55ZM61.70625 35.971874L61.95625 37.534374Q61.221874 37.690624 60.628124 37.690624Q59.675 37.690624 59.14375 37.39375Q58.628124 37.08125 58.409374 36.596874Q58.190624 36.096874 58.190624 34.51875L58.190624 28.55L56.909374 28.55L56.909374 27.175L58.190624 27.175L58.190624 24.6125L59.940624 23.55L59.940624 27.175L61.70625 27.175L61.70625 28.55L59.940624 28.55L59.940624 34.6125Q59.940624 35.3625 60.034374 35.58125Q60.128124 35.784374 60.33125 35.925Q60.55 36.05 60.940624 36.05Q61.221874 36.05 61.70625 35.971874ZM63.878124 25.253124L63.878124 23.2375L65.64375 23.2375L65.64375 25.253124L63.878124 25.253124ZM63.878124 37.55L63.878124 27.175L65.64375 27.175L65.64375 37.55L63.878124 37.55ZM71.70625 35.971874L71.95625 37.534374Q71.22188 37.690624 70.62813 37.690624Q69.675 37.690624 69.14375 37.39375Q68.62813 37.08125 68.40938 36.596874Q68.19063 36.096874 68.19063 34.51875L68.19063 28.55L66.90938 28.55L66.90938 27.175L68.19063 27.175L68.19063 24.6125L69.94063 23.55L69.94063 27.175L71.70625 27.175L71.70625 28.55L69.94063 28.55L69.94063 34.6125Q69.94063 35.3625 70.03438 35.58125Q70.12813 35.784374 70.33125 35.925Q70.55 36.05 70.94063 36.05Q71.22188 36.05 71.70625 35.971874ZM73.87813 25.253124L73.87813 23.2375L75.64375 23.2375L75.64375 25.253124L73.87813 25.253124ZM73.87813 37.55L73.87813 27.175L75.64375 27.175L75.64375 37.55L73.87813 37.55ZM84.97188 34.20625L86.78438 34.440624Q86.3625 36.01875 85.19063 36.909374Q84.03438 37.784374 82.22188 37.784374Q79.95625 37.784374 78.6125 36.39375Q77.28438 34.9875 77.28438 32.45625Q77.28438 29.83125 78.62813 28.39375Q79.97188 26.940624 82.12813 26.940624Q84.20625 26.940624 85.51875 28.3625Q86.84688 29.76875 86.84688 32.346874Q86.84688 32.503124 86.83125 32.815624L79.09688 32.815624Q79.19063 34.51875 80.06563 35.425Q80.94063 36.33125 82.2375 36.33125Q83.20625 36.33125 83.87813 35.83125Q84.56563 35.315624 84.97188 34.20625ZM79.19063 31.3625L84.9875 31.3625Q84.87813 30.065624 84.33125 29.409374Q83.4875 28.39375 82.14375 28.39375Q80.94063 28.39375 80.1125 29.20625Q79.28438 30.003124 79.19063 31.3625ZM88.15938 34.45625L89.90938 34.175Q90.05 35.221874 90.72188 35.784374Q91.39375 36.33125 92.59688 36.33125Q93.8 36.33125 94.37813 35.846874Q94.97188 35.346874 94.97188 34.690624Q94.97188 34.096874 94.45625 33.753124Q94.09688 33.51875 92.65938 33.159374Q90.72188 32.659374 89.97188 32.315624Q89.2375 31.95625 88.84688 31.33125Q88.45625 30.690624 88.45625 29.925Q88.45625 29.2375 88.76875 28.64375Q89.09688 28.05 89.64375 27.659374Q90.05 27.3625 90.75313 27.159374Q91.47188 26.940624 92.28438 26.940624Q93.50313 26.940624 94.425 27.3Q95.34688 27.64375 95.78438 28.253124Q96.22188 28.846874 96.39375 29.846874L94.675 30.08125Q94.55 29.284374 93.9875 28.846874Q93.425 28.39375 92.40938 28.39375Q91.19063 28.39375 90.675 28.8Q90.15938 29.190624 90.15938 29.721874Q90.15938 30.065624 90.37813 30.346874Q90.58125 30.628124 91.05 30.815624Q91.31563 30.909374 92.59688 31.253124Q94.47188 31.753124 95.20625 32.08125Q95.94063 32.39375 96.3625 33.003124Q96.78438 33.596874 96.78438 34.503124Q96.78438 35.378124 96.26875 36.159374Q95.75313 36.940624 94.78438 37.3625Q93.81563 37.784374 92.59688 37.784374Q90.58125 37.784374 89.51875 36.940624Q88.45625 36.096874 88.15938 34.45625Z" fill-rule="nonzero"/></svg>