<svg version="1.1" viewBox="0.0 0.0 600.0 371.0" fill="none" stroke="none" stroke-linecap="square" stroke-miterlimit="10" width="600" height="371" xmlns:xlink="http://www.w3.org/1999/xlink" xmlns="http://www.w3.org/2000/svg"><path fill="#ffffff" d="M0 0L600.0 0L600.0 371.0L0 371.0L0 0Z" fill-rule="nonzero"/><path stroke="#333333" stroke-width="1.0" stroke-linecap="butt" d="M45.5 332.5L581.5 332.5" fill-rule="nonzero"/><path stroke="#cccccc" stroke-width="1.0" stroke-linecap="butt" d="M45.5 264.5L581.5 264.5" fill-rule="nonzero"/><path stroke="#cccccc" stroke-width="1.0" stroke-linecap="butt" d="M45.5 197.5L581.5 197.5" fill-rule="nonzero"/><path stroke="#cccccc" stroke-width="1.0" stroke-linecap="butt" d="M45.5 129.5L581.5 129.5" fill-rule="nonzero"/><path stroke="#cccccc" stroke-width="1.0" stroke-linecap="butt" d="M45.5 61.5L581.5 61.5" fill-rule="nonzero"/><clipPath id="id_0"><path d="M45.55 61.916668L581.45 61.916668L581.45 332.45L45.55 332.45L45.55 61.916668Z" clip-rule="nonzero"/></clipPath><path stroke="#000000" stroke-width="2.0" stroke-linecap="butt" stroke-opacity="0.0" clip-path="url(#id_0)" d="M206.0 332.0L102.0 332.0L102.0 64.0C102.0 62.89543 102.89543 62.0 104.0 62.0L204.0 62.0C205.10457 62.0 206.0 62.89543 206.0 64.0Z" fill-rule="nonzero"/><path fill="#5891ad" clip-path="url(#id_0)" d="M206.0 332.0L102.0 332.0L102.0 64.0C102.0 62.89543 102.89543 62.0 104.0 62.0L204.0 62.0C205.10457 62.0 206.0 62.89543 206.0 64.0Z" fill-rule="nonzero"/><path stroke="#000000" stroke-width="2.0" stroke-linecap="butt" stroke-opacity="0.0" clip-path="url(#id_0)" d="M366.0 332.0L262.0 332.0L262.0 118.0C262.0 116.89543 262.89542 116.0 264.0 116.0L364.0 116.0C365.10458 116.0 366.0 116.89543 366.0 118.0Z" fill-rule="nonzero"/><path fill="#5891ad" clip-path="url(#id_0)" d="M366.0 332.0L262.0 332.0L262.0 118.0C262.0 116.89543 262.89542 116.0 264.0 116.0L364.0 116.0C365.10458 116.0 366.0 116.89543 366.0 118.0Z" fill-rule="nonzero"/><path stroke="#000000" stroke-width="2.0" stroke-linecap="butt" stroke-opacity="0.0" clip-path="url(#id_0)" d="M525.0 332.0L421.0 332.0L421.0 280.0C421.0 278.89542 421.89542 278.0 423.0 278.0L523.0 278.0C524.10455 278.0 525.0 278.89542 525.0 280.0Z" fill-rule="nonzero"/><path fill="#5891ad" clip-path="url(#id_0)" d="M525.0 332.0L421.0 332.0L421.0 280.0C421.0 278.89542 421.89542 278.0 423.0 278.0L523.0 278.0C524.10455 278.0 525.0 278.89542 525.0 280.0Z" fill-rule="nonzero"/><path fill="#000000" d="M33.05 332.21564Q33.05 330.6844 33.3625 329.7625Q33.675 328.825 34.284374 328.325Q34.909374 327.825 35.846874 327.825Q36.534374 327.825 37.05 328.10626Q37.58125 328.3875 37.925 328.91876Q38.26875 329.4344 38.45625 330.1844Q38.64375 330.9344 38.64375 332.21564Q38.64375 333.73126 38.33125 334.65314Q38.034374 335.575 37.409374 336.09064Q36.8 336.59064 35.846874 336.59064Q34.6125 336.59064 33.89375 335.7Q33.05 334.6375 33.05 332.21564ZM34.128124 332.21564Q34.128124 334.325 34.628124 335.02814Q35.128124 335.73126 35.846874 335.73126Q36.58125 335.73126 37.065624 335.02814Q37.565624 334.325 37.565624 332.21564Q37.565624 330.09064 37.065624 329.40314Q36.58125 328.7 35.83125 328.7Q35.1125 328.7 34.675 329.3094Q34.128124 330.09064 34.128124 332.21564Z" fill-rule="nonzero"/><path fill="#000000" d="M33.05 266.56668L34.159374 266.47293Q34.284374 267.28543 34.721874 267.69168Q35.175 268.09793 35.815624 268.09793Q36.565624 268.09793 37.096874 267.5198Q37.628124 266.94168 37.628124 266.00418Q37.628124 265.09793 37.1125 264.5823Q36.6125 264.05106 35.784374 264.05106Q35.284374 264.05106 34.8625 264.28543Q34.45625 264.5198 34.221874 264.87918L33.2375 264.75418L34.065624 260.34793L38.346874 260.34793L38.346874 261.34793L34.909374 261.34793L34.45625 263.66043Q35.221874 263.11356 36.065624 263.11356Q37.190624 263.11356 37.95625 263.8948Q38.7375 264.67606 38.7375 265.91043Q38.7375 267.06668 38.065624 267.92606Q37.2375 268.9573 35.815624 268.9573Q34.64375 268.9573 33.89375 268.30106Q33.159374 267.6448 33.05 266.56668Z" fill-rule="nonzero"/><path fill="#000000" d="M30.01875 201.18333L28.971874 201.18333L28.971874 194.46458Q28.58125 194.82396 27.95625 195.19896Q27.346874 195.55833 26.8625 195.73021L26.8625 194.71458Q27.7375 194.29271 28.39375 193.71458Q29.065624 193.12083 29.346874 192.55833L30.01875 192.55833L30.01875 201.18333ZM33.05 196.94896Q33.05 195.41771 33.3625 194.49583Q33.675 193.55833 34.284374 193.05833Q34.909374 192.55833 35.846874 192.55833Q36.534374 192.55833 37.05 192.83958Q37.58125 193.12083 37.925 193.65208Q38.26875 194.16771 38.45625 194.91771Q38.64375 195.66771 38.64375 196.94896Q38.64375 198.46458 38.33125 199.38646Q38.034374 200.30833 37.409374 200.82396Q36.8 201.32396 35.846874 201.32396Q34.6125 201.32396 33.89375 200.43333Q33.05 199.37083 33.05 196.94896ZM34.128124 196.94896Q34.128124 199.05833 34.628124 199.76146Q35.128124 200.46458 35.846874 200.46458Q36.58125 200.46458 37.065624 199.76146Q37.565624 199.05833 37.565624 196.94896Q37.565624 194.82396 37.065624 194.13646Q36.58125 193.43333 35.83125 193.43333Q35.1125 193.43333 34.675 194.04271Q34.128124 194.82396 34.128124 196.94896Z" fill-rule="nonzero"/><path fill="#000000" d="M30.01875 133.55L28.971874 133.55L28.971874 126.83125Q28.58125 127.19063 27.95625 127.56563Q27.346874 127.925 26.8625 128.09688L26.8625 127.08125Q27.7375 126.65938 28.39375 126.08125Q29.065624 125.4875 29.346874 124.925L30.01875 124.925L30.01875 133.55ZM33.05 131.3L34.159374 131.20625Q34.284374 132.01875 34.721874 132.425Q35.175 132.83125 35.815624 132.83125Q36.565624 132.83125 37.096874 132.25313Q37.628124 131.675 37.628124 130.7375Q37.628124 129.83125 37.1125 129.31563Q36.6125 128.78438 35.784374 128.78438Q35.284374 128.78438 34.8625 129.01875Q34.45625 129.25313 34.221874 129.6125L33.2375 129.4875L34.065624 125.08125L38.346874 125.08125L38.346874 126.08125L34.909374 126.08125L34.45625 128.39375Q35.221874 127.84688 36.065624 127.84688Q37.190624 127.84688 37.95625 128.62813Q38.7375 129.40938 38.7375 130.64375Q38.7375 131.8 38.065624 132.65938Q37.2375 133.69063 35.815624 133.69063Q34.64375 133.69063 33.89375 133.03438Q33.159374 132.37813 33.05 131.3Z" fill-rule="nonzero"/><path fill="#000000" d="M31.596874 64.90104L31.596874 65.916664L25.909374 65.916664Q25.909374 65.541664 26.034374 65.18229Q26.253124 64.604164 26.721874 64.041664Q27.20625 63.479164 28.1125 62.74479Q29.51875 61.58854 30.003124 60.916664Q30.503124 60.24479 30.503124 59.65104Q30.503124 59.02604 30.05 58.604164Q29.596874 58.166664 28.878124 58.166664Q28.1125 58.166664 27.659374 58.61979Q27.20625 59.072914 27.190624 59.885414L26.1125 59.77604Q26.221874 58.55729 26.940624 57.93229Q27.675 57.291664 28.909374 57.291664Q30.14375 57.291664 30.8625 57.979164Q31.58125 58.666664 31.58125 59.68229Q31.58125 60.197914 31.3625 60.697914Q31.159374 61.18229 30.659374 61.74479Q30.175 62.291664 29.05 63.24479Q28.096874 64.041664 27.815624 64.33854Q27.55 64.61979 27.378124 64.90104L31.596874 64.90104ZM33.05 61.68229Q33.05 60.15104 33.3625 59.229164Q33.675 58.291664 34.284374 57.791664Q34.909374 57.291664 35.846874 57.291664Q36.534374 57.291664 37.05 57.572914Q37.58125 57.854164 37.925 58.385414Q38.26875 58.90104 38.45625 59.65104Q38.64375 60.40104 38.64375 61.68229Q38.64375 63.197914 38.33125 64.11979Q38.034374 65.041664 37.409374 65.55729Q36.8 66.05729 35.846874 66.05729Q34.6125 66.05729 33.89375 65.166664Q33.05 64.104164 33.05 61.68229ZM34.128124 61.68229Q34.128124 63.791664 34.628124 64.49479Q35.128124 65.197914 35.846874 65.197914Q36.58125 65.197914 37.065624 64.49479Q37.565624 63.791664 37.565624 61.68229Q37.565624 59.55729 37.065624 58.86979Q36.58125 58.166664 35.83125 58.166664Q35.1125 58.166664 34.675 58.77604Q34.128124 59.55729 34.128124 61.68229Z" fill-rule="nonzero"/><path fill="#000000" d="M134.90485 349.45L134.90485 340.85626L136.04547 340.85626L136.04547 348.4344L140.27985 348.4344L140.27985 349.45L134.90485 349.45ZM146.07672 347.45L147.17047 347.575Q146.92047 348.52814 146.21735 349.0594Q145.51422 349.59064 144.4361 349.59064Q143.07672 349.59064 142.26422 348.7469Q141.46735 347.90314 141.46735 346.3875Q141.46735 344.825 142.27985 343.96564Q143.09235 343.09064 144.3736 343.09064Q145.6236 343.09064 146.40485 343.9344Q147.20172 344.77814 147.20172 346.325Q147.20172 346.41876 147.20172 346.60626L142.5611 346.60626Q142.6236 347.6375 143.13922 348.1844Q143.65485 348.71564 144.4361 348.71564Q145.01422 348.71564 145.42047 348.41876Q145.84235 348.10626 146.07672 347.45ZM142.6236 345.7469L146.09235 345.7469Q146.02985 344.95 145.70172 344.5594Q145.1861 343.95 144.38922 343.95Q143.65485 343.95 143.15485 344.4344Q142.67047 344.91876 142.6236 345.7469ZM152.88922 348.6844Q152.29547 349.1844 151.7486 349.3875Q151.21735 349.59064 150.59235 349.59064Q149.5611 349.59064 149.01422 349.09064Q148.46735 348.59064 148.46735 347.8094Q148.46735 347.35626 148.67047 346.98126Q148.8736 346.59064 149.21735 346.3719Q149.5611 346.1375 149.98297 346.02814Q150.27985 345.9344 150.92047 345.85626Q152.1861 345.71564 152.79547 345.4969Q152.79547 345.27814 152.79547 345.23126Q152.79547 344.575 152.4986 344.3094Q152.09235 343.96564 151.29547 343.96564Q150.5611 343.96564 150.20172 344.23126Q149.84235 344.48126 149.67047 345.1375L148.63922 344.9969Q148.77985 344.34064 149.10797 343.9344Q149.4361 343.52814 150.04547 343.3094Q150.65485 343.09064 151.45172 343.09064Q152.2486 343.09064 152.7486 343.27814Q153.2486 343.46564 153.48297 343.7469Q153.71735 344.02814 153.8111 344.46564Q153.85797 344.73126 153.85797 345.4344L153.85797 346.84064Q153.85797 348.3094 153.92047 348.7Q153.9986 349.09064 154.20172 349.45L153.09235 349.45Q152.9361 349.1219 152.88922 348.6844ZM152.79547 346.325Q152.21735 346.5594 151.07672 346.73126Q150.42047 346.825 150.15485 346.95Q149.88922 347.0594 149.73297 347.27814Q149.59235 347.4969 149.59235 347.77814Q149.59235 348.2 149.90485 348.48126Q150.23297 348.7625 150.84235 348.7625Q151.45172 348.7625 151.92047 348.4969Q152.40485 348.23126 152.6236 347.7625Q152.79547 347.40314 152.79547 346.71564L152.79547 346.325ZM159.85797 349.45L159.85797 348.66876Q159.26422 349.59064 158.1236 349.59064Q157.3736 349.59064 156.7486 349.1844Q156.1236 348.7625 155.77985 348.02814Q155.4361 347.29376 155.4361 346.34064Q155.4361 345.41876 155.7486 344.65314Q156.0611 343.8875 156.6861 343.4969Q157.3111 343.09064 158.07672 343.09064Q158.63922 343.09064 159.07672 343.325Q159.51422 343.5594 159.79547 343.9344L159.79547 340.85626L160.84235 340.85626L160.84235 349.45L159.85797 349.45ZM156.52985 346.34064Q156.52985 347.54376 157.02985 348.1375Q157.52985 348.71564 158.21735 348.71564Q158.90485 348.71564 159.38922 348.15314Q159.8736 347.59064 159.8736 346.4344Q159.8736 345.15314 159.3736 344.5594Q158.88922 343.96564 158.17047 343.96564Q157.46735 343.96564 156.9986 344.54376Q156.52985 345.10626 156.52985 346.34064ZM167.07672 347.45L168.17047 347.575Q167.92047 348.52814 167.21735 349.0594Q166.51422 349.59064 165.4361 349.59064Q164.07672 349.59064 163.26422 348.7469Q162.46735 347.90314 162.46735 346.3875Q162.46735 344.825 163.27985 343.96564Q164.09235 343.09064 165.3736 343.09064Q166.6236 343.09064 167.40485 343.9344Q168.20172 344.77814 168.20172 346.325Q168.20172 346.41876 168.20172 346.60626L163.5611 346.60626Q163.6236 347.6375 164.13922 348.1844Q164.65485 348.71564 165.4361 348.71564Q166.01422 348.71564 166.42047 348.41876Q166.84235 348.10626 167.07672 347.45ZM163.6236 345.7469L167.09235 345.7469Q167.02985 344.95 166.70172 344.5594Q166.1861 343.95 165.38922 343.95Q164.65485 343.95 164.15485 344.4344Q163.67047 344.91876 163.6236 345.7469ZM169.8111 349.45L169.8111 343.23126L170.76422 343.23126L170.76422 344.16876Q171.1236 343.5125 171.42047 343.3094Q171.73297 343.09064 172.10797 343.09064Q172.63922 343.09064 173.1861 343.41876L172.82672 344.40314Q172.4361 344.16876 172.0611 344.16876Q171.70172 344.16876 171.42047 344.3875Q171.15485 344.59064 171.04547 344.96564Q170.85797 345.52814 170.85797 346.1844L170.85797 349.45L169.8111 349.45Z" fill-rule="nonzero"/><path fill="#000000" d="M284.125 349.45L284.125 340.85626L285.25 340.85626L285.25 349.45L284.125 349.45ZM293.0625 346.4344L294.1875 346.73126Q293.82812 348.1219 292.90625 348.85626Q291.98438 349.59064 290.64062 349.59064Q289.25 349.59064 288.375 349.02814Q287.5 348.46564 287.04688 347.40314Q286.59375 346.325 286.59375 345.09064Q286.59375 343.7469 287.10938 342.7469Q287.625 341.7469 288.5625 341.23126Q289.51562 340.71564 290.65625 340.71564Q291.9375 340.71564 292.8125 341.3719Q293.70312 342.02814 294.04688 343.21564L292.92188 343.48126Q292.625 342.54376 292.04688 342.1219Q291.48438 341.6844 290.625 341.6844Q289.64062 341.6844 288.96875 342.16876Q288.3125 342.6375 288.03125 343.4344Q287.76562 344.23126 287.76562 345.09064Q287.76562 346.1844 288.07812 346.9969Q288.40625 347.8094 289.07812 348.21564Q289.75 348.6219 290.54688 348.6219Q291.5 348.6219 292.15625 348.075Q292.82812 347.52814 293.0625 346.4344ZM298.54688 346.6844L299.60938 346.59064Q299.6875 347.2469 299.96875 347.65314Q300.25 348.0594 300.82812 348.325Q301.42188 348.575 302.15625 348.575Q302.79688 348.575 303.29688 348.3875Q303.79688 348.1844 304.03125 347.85626Q304.28125 347.5125 304.28125 347.1219Q304.28125 346.71564 304.04688 346.41876Q303.8125 346.10626 303.28125 345.90314Q302.92188 345.7625 301.73438 345.48126Q300.5625 345.2 300.09375 344.95Q299.46875 344.6219 299.17188 344.15314Q298.875 343.66876 298.875 343.075Q298.875 342.4344 299.23438 341.8719Q299.60938 341.29376 300.3125 341.0125Q301.03125 340.71564 301.89062 340.71564Q302.84375 340.71564 303.57812 341.02814Q304.3125 341.325 304.70312 341.9344Q305.09375 342.52814 305.125 343.27814L304.03125 343.35626Q303.9375 342.54376 303.42188 342.1375Q302.92188 341.71564 301.9375 341.71564Q300.90625 341.71564 300.4375 342.09064Q299.96875 342.46564 299.96875 342.9969Q299.96875 343.46564 300.29688 343.7625Q300.625 344.0594 302.0 344.3719Q303.39062 344.6844 303.90625 344.91876Q304.65625 345.27814 305.01562 345.8094Q305.375 346.325 305.375 347.02814Q305.375 347.71564 304.98438 348.325Q304.59375 348.91876 303.85938 349.2625Q303.125 349.59064 302.20312 349.59064Q301.03125 349.59064 300.23438 349.2625Q299.45312 348.91876 299.0 348.23126Q298.5625 347.54376 298.54688 346.6844ZM311.04688 347.45L312.14062 347.575Q311.89062 348.52814 311.1875 349.0594Q310.48438 349.59064 309.40625 349.59064Q308.04688 349.59064 307.23438 348.7469Q306.4375 347.90314 306.4375 346.3875Q306.4375 344.825 307.25 343.96564Q308.0625 343.09064 309.34375 343.09064Q310.59375 343.09064 311.375 343.9344Q312.17188 344.77814 312.17188 346.325Q312.17188 346.41876 312.17188 346.60626L307.53125 346.60626Q307.59375 347.6375 308.10938 348.1844Q308.625 348.71564 309.40625 348.71564Q309.98438 348.71564 310.39062 348.41876Q310.8125 348.10626 311.04688 347.45ZM307.59375 345.7469L311.0625 345.7469Q311.0 344.95 310.67188 344.5594Q310.15625 343.95 309.35938 343.95Q308.625 343.95 308.125 344.4344Q307.64062 344.91876 307.59375 345.7469ZM313.79688 349.45L313.79688 343.23126L314.73438 343.23126L314.73438 344.10626Q315.42188 343.09064 316.71875 343.09064Q317.28125 343.09064 317.75 343.29376Q318.23438 343.4969 318.46875 343.825Q318.70312 344.15314 318.79688 344.59064Q318.84375 344.8875 318.84375 345.6219L318.84375 349.45L317.79688 349.45L317.79688 345.66876Q317.79688 345.0125 317.67188 344.7Q317.54688 344.3875 317.23438 344.2Q316.92188 343.9969 316.5 343.9969Q315.82812 343.9969 315.32812 344.4344Q314.84375 344.85626 314.84375 346.04376L314.84375 349.45L313.79688 349.45ZM320.79688 342.075L320.79688 340.85626L321.85938 340.85626L321.85938 342.075L320.79688 342.075ZM320.79688 349.45L320.79688 343.23126L321.85938 343.23126L321.85938 349.45L320.79688 349.45ZM323.40625 346.34064Q323.40625 344.60626 324.35938 343.77814Q325.15625 343.09064 326.3125 343.09064Q327.59375 343.09064 328.40625 343.9344Q329.23438 344.7625 329.23438 346.2469Q329.23438 347.45 328.875 348.1375Q328.51562 348.825 327.8125 349.21564Q327.125 349.59064 326.3125 349.59064Q325.01562 349.59064 324.20312 348.7625Q323.40625 347.91876 323.40625 346.34064ZM324.48438 346.34064Q324.48438 347.52814 325.0 348.1219Q325.53125 348.71564 326.3125 348.71564Q327.10938 348.71564 327.625 348.1219Q328.14062 347.52814 328.14062 346.3094Q328.14062 345.15314 327.60938 344.5594Q327.09375 343.96564 326.3125 343.96564Q325.53125 343.96564 325.0 344.5594Q324.48438 345.1375 324.48438 346.34064ZM330.78125 349.45L330.78125 343.23126L331.73438 343.23126L331.73438 344.16876Q332.09375 343.5125 332.39062 343.3094Q332.70312 343.09064 333.07812 343.09064Q333.60938 343.09064 334.15625 343.41876L333.79688 344.40314Q333.40625 344.16876 333.03125 344.16876Q332.67188 344.16876 332.39062 344.3875Q332.125 344.59064 332.01562 344.96564Q331.82812 345.52814 331.82812 346.1844L331.82812 349.45L330.78125 349.45ZM340.0 348.0594L340.0 345.7L337.67188 345.7L337.67188 344.71564L340.0 344.71564L340.0 342.3875L341.0 342.3875L341.0 344.71564L343.34375 344.71564L343.34375 345.7L341.0 345.7L341.0 348.0594L340.0 348.0594Z" fill-rule="nonzero"/><path fill="#000000" d="M420.3139 347.0125L421.34515 346.8719Q421.3764 347.85626 421.70453 348.21564Q422.03265 348.575 422.6264 348.575Q423.04828 348.575 423.36078 348.3875Q423.67328 348.1844 423.78265 347.85626Q423.90765 347.5125 423.90765 346.77814L423.90765 340.85626L425.03265 340.85626L425.03265 346.71564Q425.03265 347.79376 424.76703 348.3875Q424.51703 348.98126 423.95453 349.29376Q423.39203 349.59064 422.6264 349.59064Q421.5014 349.59064 420.89203 348.95Q420.29828 348.29376 420.3139 347.0125ZM430.84515 349.45L430.84515 348.52814Q430.11078 349.59064 428.86078 349.59064Q428.3139 349.59064 427.82953 349.3875Q427.36078 349.16876 427.1264 348.85626Q426.89203 348.52814 426.79828 348.0594Q426.73578 347.7625 426.73578 347.075L426.73578 343.23126L427.79828 343.23126L427.79828 346.6844Q427.79828 347.4969 427.86078 347.79376Q427.95453 348.2 428.26703 348.45Q428.59515 348.6844 429.07953 348.6844Q429.54828 348.6844 429.95453 348.45Q430.3764 348.2 430.54828 347.77814Q430.73578 347.35626 430.73578 346.5594L430.73578 343.23126L431.78265 343.23126L431.78265 349.45L430.84515 349.45ZM433.76703 349.45L433.76703 343.23126L434.70453 343.23126L434.70453 344.10626Q435.39203 343.09064 436.6889 343.09064Q437.2514 343.09064 437.72015 343.29376Q438.20453 343.4969 438.4389 343.825Q438.67328 344.15314 438.76703 344.59064Q438.8139 344.8875 438.8139 345.6219L438.8139 349.45L437.76703 349.45L437.76703 345.66876Q437.76703 345.0125 437.64203 344.7Q437.51703 344.3875 437.20453 344.2Q436.89203 343.9969 436.47015 343.9969Q435.79828 343.9969 435.29828 344.4344Q434.8139 344.85626 434.8139 346.04376L434.8139 349.45L433.76703 349.45ZM440.76703 342.075L440.76703 340.85626L441.82953 340.85626L441.82953 342.075L440.76703 342.075ZM440.76703 349.45L440.76703 343.23126L441.82953 343.23126L441.82953 349.45L440.76703 349.45ZM443.3764 346.34064Q443.3764 344.60626 444.32953 343.77814Q445.1264 343.09064 446.28265 343.09064Q447.5639 343.09064 448.3764 343.9344Q449.20453 344.7625 449.20453 346.2469Q449.20453 347.45 448.84515 348.1375Q448.48578 348.825 447.78265 349.21564Q447.09515 349.59064 446.28265 349.59064Q444.98578 349.59064 444.17328 348.7625Q443.3764 347.91876 443.3764 346.34064ZM444.45453 346.34064Q444.45453 347.52814 444.97015 348.1219Q445.5014 348.71564 446.28265 348.71564Q447.07953 348.71564 447.59515 348.1219Q448.11078 347.52814 448.11078 346.3094Q448.11078 345.15314 447.57953 344.5594Q447.0639 343.96564 446.28265 343.96564Q445.5014 343.96564 444.97015 344.5594Q444.45453 345.1375 444.45453 346.34064ZM450.7514 349.45L450.7514 343.23126L451.70453 343.23126L451.70453 344.16876Q452.0639 343.5125 452.36078 343.3094Q452.67328 343.09064 453.04828 343.09064Q453.57953 343.09064 454.1264 343.41876L453.76703 344.40314Q453.3764 344.16876 453.0014 344.16876Q452.64203 344.16876 452.36078 344.3875Q452.09515 344.59064 451.98578 344.96564Q451.79828 345.52814 451.79828 346.1844L451.79828 349.45L450.7514 349.45ZM454.34515 346.8719L454.34515 345.8094L457.59515 345.8094L457.59515 346.8719L454.34515 346.8719ZM459.09515 349.45L459.09515 340.85626L460.22015 340.85626L460.22015 349.45L459.09515 349.45ZM461.76703 349.45L461.76703 343.23126L462.70453 343.23126L462.70453 344.10626Q463.39203 343.09064 464.6889 343.09064Q465.2514 343.09064 465.72015 343.29376Q466.20453 343.4969 466.4389 343.825Q466.67328 344.15314 466.76703 344.59064Q466.8139 344.8875 466.8139 345.6219L466.8139 349.45L465.76703 349.45L465.76703 345.66876Q465.76703 345.0125 465.64203 344.7Q465.51703 344.3875 465.20453 344.2Q464.89203 343.9969 464.47015 343.9969Q463.79828 343.9969 463.29828 344.4344Q462.8139 344.85626 462.8139 346.04376L462.8139 349.45L461.76703 349.45ZM471.0639 348.5125L471.22015 349.4344Q470.76703 349.52814 470.42328 349.52814Q469.84515 349.52814 469.53265 349.35626Q469.22015 349.16876 469.07953 348.8719Q468.95453 348.575 468.95453 347.6219L468.95453 344.04376L468.1889 344.04376L468.1889 343.23126L468.95453 343.23126L468.95453 341.6844L470.0014 341.0594L470.0014 343.23126L471.0639 343.23126L471.0639 344.04376L470.0014 344.04376L470.0014 347.6844Q470.0014 348.1375 470.04828 348.2625Q470.11078 348.3875 470.23578 348.46564Q470.36078 348.54376 470.59515 348.54376Q470.78265 348.54376 471.0639 348.5125ZM476.01703 347.45L477.11078 347.575Q476.86078 348.52814 476.15765 349.0594Q475.45453 349.59064 474.3764 349.59064Q473.01703 349.59064 472.20453 348.7469Q471.40765 347.90314 471.40765 346.3875Q471.40765 344.825 472.22015 343.96564Q473.03265 343.09064 474.3139 343.09064Q475.5639 343.09064 476.34515 343.9344Q477.14203 344.77814 477.14203 346.325Q477.14203 346.41876 477.14203 346.60626L472.5014 346.60626Q472.5639 347.6375 473.07953 348.1844Q473.59515 348.71564 474.3764 348.71564Q474.95453 348.71564 475.36078 348.41876Q475.78265 348.10626 476.01703 347.45ZM472.5639 345.7469L476.03265 345.7469Q475.97015 344.95 475.64203 344.5594Q475.1264 343.95 474.32953 343.95Q473.59515 343.95 473.09515 344.4344Q472.61078 344.91876 472.5639 345.7469ZM478.7514 349.45L478.7514 343.23126L479.70453 343.23126L479.70453 344.16876Q480.0639 343.5125 480.36078 343.3094Q480.67328 343.09064 481.04828 343.09064Q481.57953 343.09064 482.1264 343.41876L481.76703 344.40314Q481.3764 344.16876 481.0014 344.16876Q480.64203 344.16876 480.36078 344.3875Q480.09515 344.59064 479.98578 344.96564Q479.79828 345.52814 479.79828 346.1844L479.79828 349.45L478.7514 349.45ZM482.76703 349.45L482.76703 343.23126L483.70453 343.23126L483.70453 344.10626Q484.0014 343.6375 484.48578 343.3719Q484.97015 343.09064 485.59515 343.09064Q486.28265 343.09064 486.72015 343.3719Q487.17328 343.65314 487.34515 344.16876Q488.09515 343.09064 489.26703 343.09064Q490.20453 343.09064 490.6889 343.60626Q491.1889 344.10626 491.1889 345.1844L491.1889 349.45L490.14203 349.45L490.14203 345.52814Q490.14203 344.90314 490.03265 344.6219Q489.9389 344.34064 489.67328 344.16876Q489.40765 343.9969 489.03265 343.9969Q488.3764 343.9969 487.9389 344.4344Q487.51703 344.8719 487.51703 345.84064L487.51703 349.45L486.45453 349.45L486.45453 345.40314Q486.45453 344.7 486.1889 344.35626Q485.9389 343.9969 485.36078 343.9969Q484.90765 343.9969 484.53265 344.23126Q484.15765 344.46564 483.98578 344.91876Q483.8139 345.3719 483.8139 346.21564L483.8139 349.45L482.76703 349.45ZM498.01703 347.45L499.11078 347.575Q498.86078 348.52814 498.15765 349.0594Q497.45453 349.59064 496.3764 349.59064Q495.01703 349.59064 494.20453 348.7469Q493.40765 347.90314 493.40765 346.3875Q493.40765 344.825 494.22015 343.96564Q495.03265 343.09064 496.3139 343.09064Q497.5639 343.09064 498.34515 343.9344Q499.14203 344.77814 499.14203 346.325Q499.14203 346.41876 499.14203 346.60626L494.5014 346.60626Q494.5639 347.6375 495.07953 348.1844Q495.59515 348.71564 496.3764 348.71564Q496.95453 348.71564 497.36078 348.41876Q497.78265 348.10626 498.01703 347.45ZM494.5639 345.7469L498.03265 345.7469Q497.97015 344.95 497.64203 344.5594Q497.1264 343.95 496.32953 343.95Q495.59515 343.95 495.09515 344.4344Q494.61078 344.91876 494.5639 345.7469ZM504.79828 349.45L504.79828 348.66876Q504.20453 349.59064 503.0639 349.59064Q502.3139 349.59064 501.6889 349.1844Q501.0639 348.7625 500.72015 348.02814Q500.3764 347.29376 500.3764 346.34064Q500.3764 345.41876 500.6889 344.65314Q501.0014 343.8875 501.6264 343.4969Q502.2514 343.09064 503.01703 343.09064Q503.57953 343.09064 504.01703 343.325Q504.45453 343.5594 504.73578 343.9344L504.73578 340.85626L505.78265 340.85626L505.78265 349.45L504.79828 349.45ZM501.47015 346.34064Q501.47015 347.54376 501.97015 348.1375Q502.47015 348.71564 503.15765 348.71564Q503.84515 348.71564 504.32953 348.15314Q504.8139 347.59064 504.8139 346.4344Q504.8139 345.15314 504.3139 344.5594Q503.82953 343.96564 503.11078 343.96564Q502.40765 343.96564 501.9389 344.54376Q501.47015 345.10626 501.47015 346.34064ZM507.76703 342.075L507.76703 340.85626L508.82953 340.85626L508.82953 342.075L507.76703 342.075ZM507.76703 349.45L507.76703 343.23126L508.82953 343.23126L508.82953 349.45L507.76703 349.45ZM514.8295 348.6844Q514.2358 349.1844 513.6889 349.3875Q513.15765 349.59064 512.53265 349.59064Q511.5014 349.59064 510.95453 349.09064Q510.40765 348.59064 510.40765 347.8094Q510.40765 347.35626 510.61078 346.98126Q510.8139 346.59064 511.15765 346.3719Q511.5014 346.1375 511.92328 346.02814Q512.22015 345.9344 512.8608 345.85626Q514.1264 345.71564 514.7358 345.4969Q514.7358 345.27814 514.7358 345.23126Q514.7358 344.575 514.4389 344.3094Q514.03265 343.96564 513.2358 343.96564Q512.5014 343.96564 512.142 344.23126Q511.78265 344.48126 511.61078 345.1375L510.57953 344.9969Q510.72015 344.34064 511.04828 343.9344Q511.3764 343.52814 511.98578 343.3094Q512.59515 343.09064 513.392 343.09064Q514.1889 343.09064 514.6889 343.27814Q515.1889 343.46564 515.4233 343.7469Q515.65765 344.02814 515.7514 344.46564Q515.7983 344.73126 515.7983 345.4344L515.7983 346.84064Q515.7983 348.3094 515.8608 348.7Q515.9389 349.09064 516.142 349.45L515.03265 349.45Q514.8764 349.1219 514.8295 348.6844ZM514.7358 346.325Q514.15765 346.5594 513.017 346.73126Q512.3608 346.825 512.09515 346.95Q511.82953 347.0594 511.67328 347.27814Q511.53265 347.4969 511.53265 347.77814Q511.53265 348.2 511.84515 348.48126Q512.1733 348.7625 512.78265 348.7625Q513.392 348.7625 513.8608 348.4969Q514.34515 348.23126 514.5639 347.7625Q514.7358 347.40314 514.7358 346.71564L514.7358 346.325ZM520.0639 348.5125L520.22015 349.4344Q519.767 349.52814 519.4233 349.52814Q518.84515 349.52814 518.53265 349.35626Q518.22015 349.16876 518.0795 348.8719Q517.9545 348.575 517.9545 347.6219L517.9545 344.04376L517.1889 344.04376L517.1889 343.23126L517.9545 343.23126L517.9545 341.6844L519.0014 341.0594L519.0014 343.23126L520.0639 343.23126L520.0639 344.04376L519.0014 344.04376L519.0014 347.6844Q519.0014 348.1375 519.0483 348.2625Q519.1108 348.3875 519.2358 348.46564Q519.3608 348.54376 519.59515 348.54376Q519.78265 348.54376 520.0639 348.5125ZM525.017 347.45L526.1108 347.575Q525.8608 348.52814 525.15765 349.0594Q524.4545 349.59064 523.3764 349.59064Q522.017 349.59064 521.2045 348.7469Q520.40765 347.90314 520.40765 346.3875Q520.40765 344.825 521.22015 343.96564Q522.03265 343.09064 523.3139 343.09064Q524.5639 343.09064 525.34515 343.9344Q526.142 344.77814 526.142 346.325Q526.142 346.41876 526.142 346.60626L521.5014 346.60626Q521.5639 347.6375 522.0795 348.1844Q522.59515 348.71564 523.3764 348.71564Q523.9545 348.71564 524.3608 348.41876Q524.78265 348.10626 525.017 347.45ZM521.5639 345.7469L525.03265 345.7469Q524.97015 344.95 524.642 344.5594Q524.1264 343.95 523.3295 343.95Q522.59515 343.95 522.09515 344.4344Q521.6108 344.91876 521.5639 345.7469Z" fill-rule="nonzero"/><path fill="#757575" d="M20.096874 37.55L20.096874 23.2375L25.4875 23.2375Q26.925 23.2375 27.675 23.3625Q28.721874 23.55 29.440624 24.05Q30.159374 24.534374 30.58125 25.425Q31.01875 26.315624 31.01875 27.378124Q31.01875 29.20625 29.846874 30.471874Q28.690624 31.721874 25.659374 31.721874L21.9875 31.721874L21.9875 37.55L20.096874 37.55ZM21.9875 30.034374L25.690624 30.034374Q27.51875 30.034374 28.284374 29.3625Q29.065624 28.675 29.065624 27.425Q29.065624 26.534374 28.6125 25.89375Q28.159374 25.253124 27.425 25.05Q26.940624 24.925 25.64375 24.925L21.9875 24.925L21.9875 30.034374ZM32.221874 32.3625Q32.221874 29.4875 33.815624 28.096874Q35.159374 26.940624 37.08125 26.940624Q39.221874 26.940624 40.565624 28.346874Q41.925 29.753124 41.925 32.221874Q41.925 34.221874 41.33125 35.378124Q40.7375 36.51875 39.58125 37.159374Q38.440624 37.784374 37.08125 37.784374Q34.89375 37.784374 33.55 36.39375Q32.221874 34.9875 32.221874 32.3625ZM34.01875 32.3625Q34.01875 34.3625 34.878124 35.346874Q35.753124 36.33125 37.08125 36.33125Q38.39375 36.33125 39.253124 35.346874Q40.128124 34.346874 40.128124 32.3Q40.128124 30.378124 39.253124 29.39375Q38.378124 28.39375 37.08125 28.39375Q35.753124 28.39375 34.878124 29.39375Q34.01875 30.378124 34.01875 32.3625ZM45.784374 37.55L42.6125 27.175L44.425 27.175L46.08125 33.159374L46.690624 35.39375Q46.7375 35.221874 47.221874 33.253124L48.878124 27.175L50.690624 27.175L52.2375 33.190624L52.753124 35.175L53.346874 33.175L55.128124 27.175L56.83125 27.175L53.596874 37.55L51.76875 37.55L50.1125 31.33125L49.721874 29.565624L47.6125 37.55L45.784374 37.55ZM65.97188 34.20625L67.78438 34.440624Q67.3625 36.01875 66.19063 36.909374Q65.03438 37.784374 63.221874 37.784374Q60.95625 37.784374 59.6125 36.39375Q58.284374 34.9875 58.284374 32.45625Q58.284374 29.83125 59.628124 28.39375Q60.971874 26.940624 63.128124 26.940624Q65.20625 26.940624 66.51875 28.3625Q67.84688 29.76875 67.84688 32.346874Q67.84688 32.503124 67.83125 32.815624L60.096874 32.815624Q60.190624 34.51875 61.065624 35.425Q61.940624 36.33125 63.2375 36.33125Q64.20625 36.33125 64.87813 35.83125Q65.56563 35.315624 65.97188 34.20625ZM60.190624 31.3625L65.9875 31.3625Q65.87813 30.065624 65.33125 29.409374Q64.4875 28.39375 63.14375 28.39375Q61.940624 28.39375 61.1125 29.20625Q60.284374 30.003124 60.190624 31.3625ZM69.84688 37.55L69.84688 27.175L71.425 27.175L71.425 28.753124Q72.03438 27.64375 72.55 27.3Q73.06563 26.940624 73.675 26.940624Q74.56563 26.940624 75.4875 27.503124L74.87813 29.14375Q74.2375 28.753124 73.59688 28.753124Q73.01875 28.753124 72.55 29.1125Q72.09688 29.45625 71.89375 30.065624Q71.6125 31.003124 71.6125 32.1125L71.6125 37.55L69.84688 37.55Z" fill-rule="nonzero"/></svg>