<svg version="1.1" viewBox="0.0 0.0 600.0 371.0" fill="none" stroke="none" stroke-linecap="square" stroke-miterlimit="10" width="600" height="371" xmlns:xlink="http://www.w3.org/1999/xlink" xmlns="http://www.w3.org/2000/svg"><path fill="#ffffff" d="M0 0L600.0 0L600.0 371.0L0 371.0L0 0Z" fill-rule="nonzero"/><path stroke="#333333" stroke-width="1.0" stroke-linecap="butt" d="M45.5 292.5L581.5 292.5" fill-rule="nonzero"/><path stroke="#cccccc" stroke-width="1.0" stroke-linecap="butt" d="M45.5 235.5L581.5 235.5" fill-rule="nonzero"/><path stroke="#cccccc" stroke-width="1.0" stroke-linecap="butt" d="M45.5 177.5L581.5 177.5" fill-rule="nonzero"/><path stroke="#cccccc" stroke-width="1.0" stroke-linecap="butt" d="M45.5 119.5L581.5 119.5" fill-rule="nonzero"/><path stroke="#cccccc" stroke-width="1.0" stroke-linecap="butt" d="M45.5 61.5L581.5 61.5" fill-rule="nonzero"/><clipPath id="id_0"><path d="M45.55 61.916668L581.45 61.916668L581.45 292.70987L45.55 292.70987L45.55 61.916668Z" clip-rule="nonzero"/></clipPath><path stroke="#000000" stroke-width="2.0" stroke-linecap="butt" stroke-opacity="0.0" clip-path="url(#id_0)" d="M103.0 293.0L66.0 293.0L66.0 75.0C66.0 73.89543 66.89543 73.0 68.0 73.0L101.0 73.0C102.10457 73.0 103.0 73.89543 103.0 75.0Z" fill-rule="nonzero"/><path fill="#5891ad" clip-path="url(#id_0)" d="M103.0 293.0L66.0 293.0L66.0 75.0C66.0 73.89543 66.89543 73.0 68.0 73.0L101.0 73.0C102.10457 73.0 103.0 73.89543 103.0 75.0Z" fill-rule="nonzero"/><path stroke="#000000" stroke-width="2.0" stroke-linecap="butt" stroke-opacity="0.0" clip-path="url(#id_0)" d="M161.0 293.0L124.0 293.0L124.0 237.0C124.0 235.89543 124.89543 235.0 126.0 235.0L159.0 235.0C160.10457 235.0 161.0 235.89543 161.0 237.0Z" fill-rule="nonzero"/><path fill="#5891ad" clip-path="url(#id_0)" d="M161.0 293.0L124.0 293.0L124.0 237.0C124.0 235.89543 124.89543 235.0 126.0 235.0L159.0 235.0C160.10457 235.0 161.0 235.89543 161.0 237.0Z" fill-rule="nonzero"/><path stroke="#000000" stroke-width="2.0" stroke-linecap="butt" stroke-opacity="0.0" clip-path="url(#id_0)" d="M218.0 293.0L181.0 293.0L181.0 249.0C181.0 247.89543 181.89543 247.0 183.0 247.0L216.0 247.0C217.10457 247.0 218.0 247.89543 218.0 249.0Z" fill-rule="nonzero"/><path fill="#5891ad" clip-path="url(#id_0)" d="M218.0 293.0L181.0 293.0L181.0 249.0C181.0 247.89543 181.89543 247.0 183.0 247.0L216.0 247.0C217.10457 247.0 218.0 247.89543 218.0 249.0Z" fill-rule="nonzero"/><path stroke="#000000" stroke-width="2.0" stroke-linecap="butt" stroke-opacity="0.0" clip-path="url(#id_0)" d="M275.0 293.0L238.0 293.0L238.0 249.0C238.0 247.89543 238.89543 247.0 240.0 247.0L273.0 247.0C274.10458 247.0 275.0 247.89543 275.0 249.0Z" fill-rule="nonzero"/><path fill="#5891ad" clip-path="url(#id_0)" d="M275.0 293.0L238.0 293.0L238.0 249.0C238.0 247.89543 238.89543 247.0 240.0 247.0L273.0 247.0C274.10458 247.0 275.0 247.89543 275.0 249.0Z" fill-rule="nonzero"/><path stroke="#000000" stroke-width="2.0" stroke-linecap="butt" stroke-opacity="0.0" clip-path="url(#id_0)" d="M333.0 293.0L296.0 293.0L296.0 272.0C296.0 270.89542 296.89542 270.0 298.0 270.0L331.0 270.0C332.10458 270.0 333.0 270.89542 333.0 272.0Z" fill-rule="nonzero"/><path fill="#5891ad" clip-path="url(#id_0)" d="M333.0 293.0L296.0 293.0L296.0 272.0C296.0 270.89542 296.89542 270.0 298.0 270.0L331.0 270.0C332.10458 270.0 333.0 270.89542 333.0 272.0Z" fill-rule="nonzero"/><path stroke="#000000" stroke-width="2.0" stroke-linecap="butt" stroke-opacity="0.0" clip-path="url(#id_0)" d="M390.0 293.0L353.0 293.0L353.0 272.0C353.0 270.89542 353.89542 270.0 355.0 270.0L388.0 270.0C389.10458 270.0 390.0 270.89542 390.0 272.0Z" fill-rule="nonzero"/><path fill="#5891ad" clip-path="url(#id_0)" d="M390.0 293.0L353.0 293.0L353.0 272.0C353.0 270.89542 353.89542 270.0 355.0 270.0L388.0 270.0C389.10458 270.0 390.0 270.89542 390.0 272.0Z" fill-rule="nonzero"/><path stroke="#000000" stroke-width="2.0" stroke-linecap="butt" stroke-opacity="0.0" clip-path="url(#id_0)" d="M447.0 293.0L410.0 293.0L410.0 283.0C410.0 281.89542 410.89542 281.0 412.0 281.0L445.0 281.0C446.10458 281.0 447.0 281.89542 447.0 283.0Z" fill-rule="nonzero"/><path fill="#5891ad" clip-path="url(#id_0)" d="M447.0 293.0L410.0 293.0L410.0 283.0C410.0 281.89542 410.89542 281.0 412.0 281.0L445.0 281.0C446.10458 281.0 447.0 281.89542 447.0 283.0Z" fill-rule="nonzero"/><path stroke="#000000" stroke-width="2.0" stroke-linecap="butt" stroke-opacity="0.0" clip-path="url(#id_0)" d="M504.0 293.0L467.0 293.0L467.0 283.0C467.0 281.89542 467.89542 281.0 469.0 281.0L502.0 281.0C503.10458 281.0 504.0 281.89542 504.0 283.0Z" fill-rule="nonzero"/><path fill="#5891ad" clip-path="url(#id_0)" d="M504.0 293.0L467.0 293.0L467.0 283.0C467.0 281.89542 467.89542 281.0 469.0 281.0L502.0 281.0C503.10458 281.0 504.0 281.89542 504.0 283.0Z" fill-rule="nonzero"/><path stroke="#000000" stroke-width="2.0" stroke-linecap="butt" stroke-opacity="0.0" clip-path="url(#id_0)" d="M562.0 293.0L525.0 293.0L525.0 283.0C525.0 281.89542 525.89545 281.0 527.0 281.0L560.0 281.0C561.10455 281.0 562.0 281.89542 562.0 283.0Z" fill-rule="nonzero"/><path fill="#5891ad" clip-path="url(#id_0)" d="M562.0 293.0L525.0 293.0L525.0 283.0C525.0 281.89542 525.89545 281.0 527.0 281.0L560.0 281.0C561.10455 281.0 562.0 281.89542 562.0 283.0Z" fill-rule="nonzero"/><path fill="#000000" d="M33.05 292.4755Q33.05 290.94424 33.3625 290.02237Q33.675 289.08487 34.284374 288.58487Q34.909374 288.08487 35.846874 288.08487Q36.534374 288.08487 37.05 288.36612Q37.58125 288.64737 37.925 289.17862Q38.26875 289.69424 38.45625 290.44424Q38.64375 291.19424 38.64375 292.4755Q38.64375 293.99112 38.33125 294.913Q38.034374 295.83487 37.409374 296.3505Q36.8 296.8505 35.846874 296.8505Q34.6125 296.8505 33.89375 295.95987Q33.05 294.89737 33.05 292.4755ZM34.128124 292.4755Q34.128124 294.58487 34.628124 295.288Q35.128124 295.99112 35.846874 295.99112Q36.58125 295.99112 37.065624 295.288Q37.565624 294.58487 37.565624 292.4755Q37.565624 290.3505 37.065624 289.663Q36.58125 288.95987 35.83125 288.95987Q35.1125 288.95987 34.675 289.56924Q34.128124 290.3505 34.128124 292.4755Z" fill-rule="nonzero"/><path fill="#000000" d="M33.05 236.76158L34.159374 236.66783Q34.284374 237.48033 34.721874 237.88658Q35.175 238.29283 35.815624 238.29283Q36.565624 238.29283 37.096874 237.7147Q37.628124 237.13658 37.628124 236.19908Q37.628124 235.29283 37.1125 234.7772Q36.6125 234.24596 35.784374 234.24596Q35.284374 234.24596 34.8625 234.48033Q34.45625 234.7147 34.221874 235.07408L33.2375 234.94908L34.065624 230.54283L38.346874 230.54283L38.346874 231.54283L34.909374 231.54283L34.45625 233.85533Q35.221874 233.30846 36.065624 233.30846Q37.190624 233.30846 37.95625 234.0897Q38.7375 234.87096 38.7375 236.10533Q38.7375 237.26158 38.065624 238.12096Q37.2375 239.1522 35.815624 239.1522Q34.64375 239.1522 33.89375 238.49596Q33.159374 237.8397 33.05 236.76158Z" fill-rule="nonzero"/><path fill="#000000" d="M30.01875 181.31328L28.971874 181.31328L28.971874 174.59453Q28.58125 174.9539 27.95625 175.3289Q27.346874 175.68828 26.8625 175.86015L26.8625 174.84453Q27.7375 174.42265 28.39375 173.84453Q29.065624 173.25078 29.346874 172.68828L30.01875 172.68828L30.01875 181.31328ZM33.05 177.0789Q33.05 175.54765 33.3625 174.62578Q33.675 173.68828 34.284374 173.18828Q34.909374 172.68828 35.846874 172.68828Q36.534374 172.68828 37.05 172.96953Q37.58125 173.25078 37.925 173.78203Q38.26875 174.29765 38.45625 175.04765Q38.64375 175.79765 38.64375 177.0789Q38.64375 178.59453 38.33125 179.5164Q38.034374 180.43828 37.409374 180.9539Q36.8 181.4539 35.846874 181.4539Q34.6125 181.4539 33.89375 180.56328Q33.05 179.50078 33.05 177.0789ZM34.128124 177.0789Q34.128124 179.18828 34.628124 179.8914Q35.128124 180.59453 35.846874 180.59453Q36.58125 180.59453 37.065624 179.8914Q37.565624 179.18828 37.565624 177.0789Q37.565624 174.9539 37.065624 174.2664Q36.58125 173.56328 35.83125 173.56328Q35.1125 173.56328 34.675 174.17265Q34.128124 174.9539 34.128124 177.0789Z" fill-rule="nonzero"/><path fill="#000000" d="M30.01875 123.61497L28.971874 123.61497L28.971874 116.89622Q28.58125 117.25559 27.95625 117.63059Q27.346874 117.98997 26.8625 118.16184L26.8625 117.14622Q27.7375 116.72434 28.39375 116.14622Q29.065624 115.55247 29.346874 114.98997L30.01875 114.98997L30.01875 123.61497ZM33.05 121.36497L34.159374 121.27122Q34.284374 122.08372 34.721874 122.48997Q35.175 122.89622 35.815624 122.89622Q36.565624 122.89622 37.096874 122.31809Q37.628124 121.73997 37.628124 120.80247Q37.628124 119.89622 37.1125 119.38059Q36.6125 118.84934 35.784374 118.84934Q35.284374 118.84934 34.8625 119.08372Q34.45625 119.31809 34.221874 119.67747L33.2375 119.55247L34.065624 115.14622L38.346874 115.14622L38.346874 116.14622L34.909374 116.14622L34.45625 118.45872Q35.221874 117.91184 36.065624 117.91184Q37.190624 117.91184 37.95625 118.69309Q38.7375 119.47434 38.7375 120.70872Q38.7375 121.86497 38.065624 122.72434Q37.2375 123.75559 35.815624 123.75559Q34.64375 123.75559 33.89375 123.09934Q33.159374 122.44309 33.05 121.36497Z" fill-rule="nonzero"/><path fill="#000000" d="M31.596874 64.90104L31.596874 65.916664L25.909374 65.916664Q25.909374 65.541664 26.034374 65.18229Q26.253124 64.604164 26.721874 64.041664Q27.20625 63.479164 28.1125 62.74479Q29.51875 61.58854 30.003124 60.916664Q30.503124 60.24479 30.503124 59.65104Q30.503124 59.02604 30.05 58.604164Q29.596874 58.166664 28.878124 58.166664Q28.1125 58.166664 27.659374 58.61979Q27.20625 59.072914 27.190624 59.885414L26.1125 59.77604Q26.221874 58.55729 26.940624 57.93229Q27.675 57.291664 28.909374 57.291664Q30.14375 57.291664 30.8625 57.979164Q31.58125 58.666664 31.58125 59.68229Q31.58125 60.197914 31.3625 60.697914Q31.159374 61.18229 30.659374 61.74479Q30.175 62.291664 29.05 63.24479Q28.096874 64.041664 27.815624 64.33854Q27.55 64.61979 27.378124 64.90104L31.596874 64.90104ZM33.05 61.68229Q33.05 60.15104 33.3625 59.229164Q33.675 58.291664 34.284374 57.791664Q34.909374 57.291664 35.846874 57.291664Q36.534374 57.291664 37.05 57.572914Q37.58125 57.854164 37.925 58.385414Q38.26875 58.90104 38.45625 59.65104Q38.64375 60.40104 38.64375 61.68229Q38.64375 63.197914 38.33125 64.11979Q38.034374 65.041664 37.409374 65.55729Q36.8 66.05729 35.846874 66.05729Q34.6125 66.05729 33.89375 65.166664Q33.05 64.104164 33.05 61.68229ZM34.128124 61.68229Q34.128124 63.791664 34.628124 64.49479Q35.128124 65.197914 35.846874 65.197914Q36.58125 65.197914 37.065624 64.49479Q37.565624 63.791664 37.565624 61.68229Q37.565624 59.55729 37.065624 58.86979Q36.58125 58.166664 35.83125 58.166664Q35.1125 58.166664 34.675 58.77604Q34.128124 59.55729 34.128124 61.68229Z" fill-rule="nonzero"/><path fill="#000000" d="M53.070023 345.43417L46.993324 339.35748L49.09255 337.25824Q49.799652 336.55115 50.26369 336.2639Q50.904507 335.86612 51.57847 335.81088Q52.473404 335.73355 53.346237 336.14233Q54.219074 336.52905 55.02562 337.33557Q55.721676 338.03165 56.086277 338.7277Q56.46193 339.41272 56.561367 340.0204Q56.6608 340.62805 56.550312 341.1363Q56.45088 341.63348 56.141518 342.1638Q55.82111 342.68307 55.268684 343.2355L53.070023 345.43417ZM53.158413 343.90945L54.45109 342.6168Q55.05876 342.00912 55.29078 341.55612Q55.5228 341.10315 55.51175 340.69434Q55.5228 340.13086 55.19134 339.49005Q54.870934 338.8382 54.185925 338.15317Q53.235752 337.203 52.40711 337.01517Q51.57847 336.80527 50.95975 337.07043Q50.50676 337.28033 49.799652 337.98746L48.518024 339.26907L53.158413 343.90945ZM60.93659 334.73917L61.798374 334.05417Q62.29556 334.9049 62.174026 335.77774Q62.05249 336.65057 61.290142 337.41293Q60.32892 338.37415 59.157772 338.35205Q57.997677 338.3189 56.92597 337.2472Q55.821114 336.14233 55.787968 334.96014Q55.743774 333.7669 56.649754 332.86093Q57.533638 331.97705 58.682686 332.02124Q59.84278 332.05438 60.93659 333.1482Q61.00288 333.21448 61.135464 333.34705L57.854046 336.62848Q58.62744 337.31348 59.378742 337.33557Q60.118996 337.34662 60.671425 336.79422Q61.08022 336.3854 61.15756 335.8882Q61.234898 335.36896 60.93659 334.73917ZM57.29057 335.97662L59.743347 333.52383Q59.135677 333.00455 58.62744 332.96036Q57.831947 332.89407 57.26847 333.45755Q56.74919 333.97684 56.73814 334.67288Q56.73814 335.35788 57.29057 335.97662ZM65.51069 332.9935L59.445034 330.26453L60.22948 329.48007L63.809208 331.15945Q64.383736 331.44672 64.96931 331.76712Q64.72624 331.32516 64.41688 330.66226L62.715405 326.99414L63.477753 326.2318L66.20674 332.29745L65.51069 332.9935ZM69.42187 326.2539L70.28365 325.56888Q70.78084 326.41962 70.65931 327.29245Q70.53777 328.16528 69.77542 328.92764Q68.8142 329.88885 67.64305 329.86676Q66.482956 329.83362 65.41125 328.7619Q64.3064 327.65707 64.27325 326.47485Q64.22906 325.28162 65.13503 324.37564Q66.01892 323.49176 67.16797 323.53595Q68.328064 323.5691 69.42187 324.6629Q69.48816 324.7292 69.62074 324.8618L66.339325 328.1432Q67.112724 328.82822 67.86403 328.8503Q68.60428 328.86136 69.15671 328.30893Q69.5655 327.90012 69.64284 327.40295Q69.72018 326.88367 69.42187 326.2539ZM65.77585 327.49133L68.22863 325.03854Q67.62096 324.5193 67.112724 324.47507Q66.31723 324.40878 65.75375 324.97226Q65.234474 325.49155 65.22343 326.1876Q65.22343 326.87262 65.77585 327.49133ZM72.75853 325.74567L66.68183 319.66898L67.43313 318.91766L73.509834 324.99435L72.75853 325.74567ZM72.42707 321.6798Q71.20068 320.4534 71.28907 319.19388Q71.36642 318.14426 72.184006 317.32666Q73.08999 316.4207 74.26113 316.44278Q75.432274 316.44278 76.48189 317.4924Q77.33263 318.34314 77.564644 319.0834Q77.79667 319.82364 77.57569 320.59705Q77.35472 321.34833 76.7802 321.92285Q75.86317 322.8399 74.70307 322.82886Q73.54298 322.79572 72.42707 321.6798ZM73.18942 320.91745Q74.02911 321.75714 74.81356 321.81238Q75.609055 321.85657 76.16148 321.30414Q76.72496 320.74066 76.669716 319.95624Q76.61447 319.17178 75.752686 318.31Q74.9351 317.4924 74.139595 317.4482Q73.35515 317.39297 72.80273 317.9454Q72.2503 318.4978 72.294495 319.2933Q72.338684 320.0667 73.18942 320.91745ZM81.54212 320.34293L75.45438 314.2552L76.128334 313.5812L76.69181 314.14468Q76.603424 313.57016 76.73601 313.10614Q76.87964 312.63104 77.31053 312.20013Q77.87401 311.63666 78.59216 311.49304Q79.31032 311.3494 80.05057 311.66983Q80.80187 311.9792 81.43163 312.60895Q82.1056 313.2829 82.40391 314.06735Q82.713264 314.84076 82.53649 315.59204Q82.35971 316.34335 81.85148 316.8516Q81.47583 317.22723 81.02284 317.37088Q80.5588 317.50345 80.138954 317.45926L82.28237 319.60266L81.54212 320.34293ZM78.34909 315.80197Q79.19983 316.6527 79.95113 316.719Q80.69138 316.77423 81.17752 316.28812Q81.674706 315.79092 81.60841 315.01752Q81.54212 314.24414 80.65824 313.36023Q79.81855 312.52057 79.067245 312.45425Q78.3049 312.37692 77.81876 312.86307Q77.34367 313.33813 77.42101 314.14468Q77.49835 314.95123 78.34909 315.80197ZM86.39243 309.28333L87.25422 308.59833Q87.7514 309.44907 87.62987 310.3219Q87.50834 311.19473 86.74599 311.9571Q85.78476 312.9183 84.61362 312.8962Q83.45352 312.86307 82.38181 311.79135Q81.276955 310.6865 81.24381 309.5043Q81.199615 308.31107 82.1056 307.4051Q82.98948 306.5212 84.13853 306.5654Q85.29863 306.59854 86.39243 307.69235Q86.458725 307.75864 86.59131 307.8912L83.30989 311.17264Q84.08329 311.85764 84.83459 311.87973Q85.57484 311.89078 86.127266 311.33835Q86.536064 310.92957 86.6134 310.43237Q86.69074 309.9131 86.39243 309.28333ZM82.746414 310.52078L85.19919 308.068Q84.59152 307.5487 84.08329 307.50452Q83.28779 307.43823 82.72432 308.0017Q82.20503 308.521 82.193985 309.21704Q82.193985 309.90204 82.746414 310.52078ZM89.74014 308.76404L85.34282 304.36673L86.016785 303.69278L86.679695 304.35568Q86.46977 303.6375 86.536064 303.28397Q86.602356 302.90833 86.86752 302.64316Q87.24317 302.26752 87.861885 302.11282L88.30383 303.063Q87.861885 303.1735 87.596725 303.43866Q87.342606 303.69278 87.298416 304.04633Q87.25422 304.37778 87.44205 304.72028Q87.70721 305.2506 88.17125 305.71466L90.48039 308.0238L89.74014 308.76404Z" fill-rule="nonzero"/><path fill="#000000" d="M137.28874 318.53098L131.21204 312.45425L132.00754 311.65878L134.5045 314.15573L137.66438 310.99585L135.16742 308.4989L135.97395 307.69235L142.05066 313.76904L141.24411 314.5756L138.38254 311.71402L135.22266 314.8739L138.08423 317.73547L137.28874 318.53098ZM143.6306 312.1891L137.5539 306.1124L140.24974 303.41656Q141.06734 302.59897 141.65291 302.34485Q142.23848 302.09073 142.91245 302.25647Q143.57536 302.41113 144.07254 302.90833Q144.72441 303.56018 144.7465 304.42197Q144.7686 305.28375 144.0173 306.27814Q144.49239 306.1124 144.80174 306.0903Q145.47571 306.05716 146.2712 306.23395L148.98914 306.83057L147.97267 307.84702L145.91765 307.383Q145.01167 307.1841 144.49239 307.12888Q143.98415 307.06256 143.68584 307.13992Q143.38753 307.19516 143.14447 307.32773Q142.98978 307.43823 142.68042 307.7476L141.7413 308.6867L144.43715 311.38257L143.6306 312.1891ZM141.04524 307.99066L142.77986 306.25604Q143.32124 305.71466 143.52011 305.2948Q143.719 304.85287 143.6306 304.4551Q143.5422 304.03528 143.2439 303.73697Q142.813 303.30606 142.21638 303.35025Q141.63081 303.38342 140.95685 304.05737L139.03441 305.97983L141.04524 307.99066Z" fill-rule="nonzero"/><path fill="#000000" d="M174.8163 338.3189L168.73961 332.24222L172.83861 328.1432L173.55676 328.86136L170.2643 332.1538L172.14255 334.03207L174.99307 331.18155L175.71123 331.8997L172.8607 334.7502L175.62285 337.51236L174.8163 338.3189ZM177.15858 331.57928Q175.9322 330.3529 176.0206 329.09338Q176.09793 328.04376 176.91553 327.22617Q177.8215 326.3202 178.99265 326.3423Q180.1638 326.3423 181.21341 327.3919Q182.06415 328.24265 182.29616 328.98288Q182.52818 329.72314 182.30722 330.49655Q182.08624 331.24783 181.51172 331.82236Q180.5947 332.73938 179.43459 332.72833Q178.27449 332.6952 177.15858 331.57928ZM177.92094 330.81696Q178.76064 331.65665 179.54507 331.71188Q180.34058 331.75607 180.893 331.20364Q181.45648 330.64017 181.40123 329.8557Q181.346 329.0713 180.4842 328.2095Q179.66661 327.3919 178.87111 327.34772Q178.08667 327.29245 177.53424 327.84488Q176.98181 328.3973 177.02602 329.1928Q177.0702 329.96622 177.92094 330.81696ZM187.46689 325.66833L186.81502 325.01645Q187.04704 326.28705 186.16316 327.17093Q185.77646 327.55762 185.29031 327.7565Q184.80418 327.9333 184.41748 327.87802Q184.01974 327.81174 183.622 327.54657Q183.36787 327.38086 182.88174 326.8947L180.1638 324.17676L180.9151 323.42548L183.35683 325.8672Q183.93135 326.4417 184.18547 326.60745Q184.53902 326.82843 184.93677 326.78424Q185.33452 326.71793 185.67702 326.37543Q186.00847 326.04398 186.13 325.59097Q186.25154 325.1159 186.07477 324.69604Q185.90904 324.26517 185.34557 323.7017L182.99222 321.34836L183.73247 320.6081L188.12979 325.0054L187.46689 325.66833ZM189.53296 323.60223L185.13564 319.20493L185.79855 318.54202L186.41727 319.16074Q186.18526 317.95645 187.10228 317.0394Q187.50003 316.64166 187.97511 316.45383Q188.46126 316.25497 188.859 316.32126Q189.25674 316.38754 189.6324 316.6306Q189.87546 316.8074 190.39474 317.32666L193.10164 320.03357L192.36139 320.77383L189.68764 318.10007Q189.2236 317.63605 188.91425 317.50345Q188.60489 317.37088 188.25133 317.45926Q187.88673 317.5366 187.58841 317.8349Q187.11333 318.31 187.06914 318.9729Q187.02495 319.6137 187.86462 320.4534L190.27321 322.862L189.53296 323.60223ZM197.33324 315.80197L196.7808 315.24954Q197.01282 316.32126 196.20628 317.1278Q195.67595 317.65814 194.94675 317.8128Q194.2065 317.95645 193.44414 317.68024Q192.6818 317.40402 192.00783 316.73004Q191.35597 316.0782 191.03557 315.31583Q190.71515 314.5535 190.88089 313.83533Q191.03557 313.10614 191.57693 312.56476Q191.97469 312.167 192.44978 312.02338Q192.92487 311.87973 193.3889 311.94604L191.21234 309.76947L191.95259 309.0292L198.0293 315.10593L197.33324 315.80197ZM192.78123 315.95667Q193.63197 316.8074 194.40536 316.8737Q195.16772 316.92892 195.65385 316.44278Q196.13998 315.95667 196.08475 315.2164Q196.02951 314.47614 195.21191 313.65857Q194.30594 312.75256 193.53253 312.68628Q192.77019 312.60895 192.26195 313.1172Q191.76477 313.61435 191.8421 314.3546Q191.9084 315.08383 192.78123 315.95667ZM201.02345 309.28333L201.88524 308.59833Q202.38242 309.44907 202.26088 310.3219Q202.13934 311.19473 201.377 311.9571Q200.41577 312.9183 199.24463 312.8962Q198.08453 312.86307 197.01282 311.79135Q195.90797 310.6865 195.87482 309.5043Q195.83063 308.31107 196.73662 307.4051Q197.6205 306.5212 198.76955 306.5654Q199.92964 306.59854 201.02345 307.69235Q201.08974 307.75864 201.22232 307.8912L197.9409 311.17264Q198.7143 311.85764 199.4656 311.87973Q200.20586 311.89078 200.75829 311.33838Q201.16708 310.92957 201.24442 310.43237Q201.32176 309.91312 201.02345 309.28333ZM197.37743 310.52078L199.8302 308.068Q199.22253 307.5487 198.7143 307.50452Q197.91881 307.43823 197.35533 308.0017Q196.83604 308.521 196.825 309.21704Q196.825 309.90204 197.37743 310.52078ZM204.37115 308.76404L199.97383 304.36673L200.6478 303.69278L201.31071 304.35568Q201.10078 303.63754 201.16708 303.28397Q201.23337 302.90833 201.49854 302.64316Q201.87418 302.26752 202.4929 302.11282L202.93484 303.06302Q202.4929 303.1735 202.22774 303.43866Q201.97362 303.69278 201.92943 304.04633Q201.88524 304.37778 202.07306 304.72028Q202.33823 305.2506 202.80226 305.71466L205.1114 308.0238L204.37115 308.76404Z" fill-rule="nonzero"/><path fill="#000000" d="M236.33026 334.12045L230.25356 328.04376L232.35278 325.94455Q233.05989 325.23743 233.52393 324.95016Q234.16473 324.55243 234.8387 324.4972Q235.73363 324.41983 236.60646 324.82864Q237.47931 325.21533 238.28584 326.02188Q238.9819 326.71793 239.34651 327.414Q239.72215 328.099 239.8216 328.70667Q239.92104 329.31433 239.81055 329.82257Q239.7111 330.31976 239.40175 330.8501Q239.08134 331.3694 238.52892 331.9218L236.33026 334.12045ZM236.41864 332.59576L237.71132 331.30307Q238.31898 330.6954 238.55101 330.24243Q238.78304 329.78943 238.77199 329.38065Q238.78304 328.81717 238.45157 328.17633Q238.13116 327.52448 237.44615 326.83948Q236.49599 325.88928 235.66734 325.70148Q234.8387 325.49155 234.21999 325.7567Q233.767 325.96664 233.05989 326.67374L231.77826 327.95538L236.41864 332.59576ZM244.19682 323.42548L245.05861 322.74045Q245.55579 323.5912 245.43425 324.46402Q245.31271 325.33688 244.55037 326.0992Q243.58914 327.06046 242.418 327.03836Q241.2579 327.0052 240.18619 325.9335Q239.08134 324.82864 239.0482 323.64645Q239.004 322.4532 239.90999 321.5472Q240.79387 320.66333 241.94292 320.70752Q243.10301 320.74066 244.19682 321.83447Q244.2631 321.9008 244.39569 322.03336L241.11427 325.31476Q241.88766 325.9998 242.63898 326.02188Q243.37923 326.03293 243.93166 325.4805Q244.34045 325.07172 244.41779 324.57452Q244.49513 324.05524 244.19682 323.42548ZM240.5508 324.6629L243.00357 322.21014Q242.3959 321.69086 241.88766 321.64667Q241.09218 321.58035 240.5287 322.14383Q240.00941 322.66312 239.99837 323.3592Q239.99837 324.0442 240.5508 324.6629ZM245.94249 321.87866L246.5612 321.039Q247.06944 321.41464 247.57767 321.37045Q248.09695 321.3152 248.61624 320.79593Q249.12447 320.2877 249.16866 319.84573Q249.21286 319.3817 248.9256 319.09445Q248.67148 318.84033 248.30687 318.91766Q248.05276 318.9729 247.2904 319.4259Q246.2629 320.03357 245.79886 320.21036Q245.33482 320.36502 244.90393 320.2656Q244.47304 320.16614 244.14157 319.8347Q243.85431 319.54742 243.73277 319.16074Q243.61124 318.77405 243.67754 318.37628Q243.73277 318.07797 243.9427 317.69128Q244.15262 317.30457 244.50618 316.95102Q245.0144 316.44278 245.55579 316.2108Q246.09717 315.95667 246.53911 316.02295Q246.98105 316.08923 247.46718 316.44278L246.83742 317.27142Q246.46176 316.98416 246.03087 317.03943Q245.59998 317.07257 245.15804 317.5145Q244.64981 318.02274 244.6056 318.42047Q244.55037 318.8072 244.7824 319.0392Q244.92603 319.18283 245.1249 319.20493Q245.34587 319.22702 245.61102 319.11655Q245.76572 319.05026 246.46176 318.64145Q247.47824 318.06693 247.92018 317.89014Q248.36212 317.71338 248.79301 317.7907Q249.2239 317.86804 249.6106 318.25476Q249.98625 318.6304 250.09674 319.18283Q250.20723 319.71317 249.98625 320.30978Q249.75423 320.89536 249.23495 321.41464Q248.37317 322.27643 247.56662 322.37585Q246.76009 322.4532 245.94249 321.87866ZM247.2904 312.73047L246.42862 311.86868L247.17992 311.1174L248.0417 311.9792L247.2904 312.73047ZM252.50533 317.9454L248.108 313.54807L248.8593 312.79678L253.25662 317.1941L252.50533 317.9454ZM254.84761 316.3323L255.6873 315.7136Q256.06296 316.00085 256.42755 315.94562Q256.9137 315.8793 257.38876 315.40424Q257.90805 314.88495 257.97437 314.3988Q258.0517 313.90164 257.78653 313.4376Q257.6208 313.13928 256.88055 312.4211Q256.96893 313.48178 256.23972 314.211Q255.33376 315.11697 254.1847 314.96228Q253.0246 314.79657 252.11862 313.89056Q251.48886 313.2608 251.17949 312.50952Q250.87013 311.7361 251.01376 311.01794Q251.1574 310.2998 251.74297 309.71423Q252.52742 308.92978 253.66542 309.05133L253.13509 308.521L253.8201 307.83597L257.6208 311.6367Q258.64832 312.66418 258.8693 313.305Q259.09024 313.94583 258.88034 314.64188Q258.68146 315.349 258.01855 316.0119Q257.2341 316.79636 256.3944 316.92892Q255.55472 317.06152 254.84761 316.3323ZM252.82573 313.073Q253.68752 313.93478 254.42776 313.99002Q255.16801 314.04526 255.6873 313.52597Q256.20657 313.00668 256.15134 312.26645Q256.10715 311.51514 255.26746 310.67545Q254.4609 309.8689 253.68752 309.8247Q252.92517 309.76947 252.41693 310.2777Q251.91975 310.7749 251.97499 311.53723Q252.03023 312.2775 252.82573 313.073ZM259.5764 310.87433L255.17906 306.47702L255.84198 305.8141L256.4607 306.4328Q256.22867 305.22852 257.14572 304.3115Q257.54346 303.91376 258.01855 303.72592Q258.50467 303.52704 258.90244 303.59332Q259.30017 303.65964 259.6758 303.9027Q259.91888 304.07947 260.43817 304.59875L263.14508 307.30563L262.40482 308.0459L259.73108 305.37216Q259.26703 304.9081 258.95767 304.77554Q258.64832 304.64294 258.29477 304.73132Q257.93015 304.8087 257.63184 305.107Q257.15677 305.58206 257.11255 306.245Q257.06836 306.8858 257.90805 307.7255L260.31665 310.13406L259.5764 310.87433Z" fill-rule="nonzero"/><path fill="#000000" d="M292.23157 335.53467L286.15485 329.45798L288.45294 327.15988Q289.0496 326.56326 289.42523 326.2981Q289.95557 325.92242 290.46378 325.83405Q290.98306 325.73462 291.5355 325.93347Q292.09897 326.1213 292.55197 326.5743Q293.32538 327.3477 293.36957 328.38626Q293.41376 329.4027 292.12106 330.6954L290.56323 332.25323L293.0381 334.72812L292.23157 335.53467ZM289.8561 331.54614L291.42502 329.97723Q292.20947 329.1928 292.2426 328.58514Q292.27576 327.95535 291.74542 327.42505Q291.36978 327.04938 290.90573 326.9831Q290.44168 326.8947 290.04395 327.11566Q289.77878 327.27036 289.2374 327.81174L287.67957 329.36957L289.8561 331.54614ZM297.78897 329.97723L293.39166 325.57993L294.0656 324.90598L294.72852 325.56888Q294.51862 324.85074 294.5849 324.49716Q294.65118 324.12152 294.91635 323.85635Q295.292 323.4807 295.91074 323.32602L296.35266 324.2762Q295.91074 324.3867 295.64557 324.65186Q295.39145 324.90598 295.34726 325.25952Q295.30304 325.59097 295.49088 325.93347Q295.75604 326.4638 296.2201 326.92786L298.52924 329.237L297.78897 329.97723ZM298.15356 325.21533Q296.9272 323.98895 297.01556 322.7294Q297.09293 321.67978 297.91052 320.8622Q298.8165 319.9562 299.98764 319.9783Q301.15878 319.9783 302.2084 321.02792Q303.05914 321.87866 303.29114 322.61893Q303.52316 323.35916 303.3022 324.13257Q303.08124 324.88388 302.5067 325.4584Q301.58966 326.37543 300.42957 326.36438Q299.26947 326.33124 298.15356 325.21533ZM298.91592 324.45297Q299.7556 325.29266 300.54007 325.3479Q301.33557 325.3921 301.88797 324.83966Q302.45145 324.2762 302.3962 323.49176Q302.34097 322.7073 301.4792 321.84552Q300.6616 321.02792 299.8661 320.98373Q299.08167 320.9285 298.52924 321.48093Q297.9768 322.03336 298.021 322.82883Q298.0652 323.60223 298.91592 324.45297ZM308.4287 319.3375L307.87628 318.78506Q308.1083 319.85678 307.30176 320.66333Q306.77145 321.19366 306.04224 321.34833Q305.30197 321.49197 304.53964 321.21576Q303.77728 320.93954 303.10333 320.26556Q302.45145 319.6137 302.13104 318.85138Q301.81064 318.08902 301.97638 317.37085Q302.13104 316.64166 302.67242 316.10028Q303.0702 315.70255 303.54526 315.5589Q304.02036 315.41528 304.4844 315.48157L302.30783 313.305L303.0481 312.56476L309.1248 318.64145L308.4287 319.3375ZM303.8767 319.4922Q304.72745 320.34293 305.50085 320.4092Q306.2632 320.46445 306.74933 319.9783Q307.23547 319.4922 307.18024 318.75192Q307.125 318.0117 306.3074 317.1941Q305.40143 316.28812 304.62802 316.2218Q303.86566 316.14447 303.35745 316.6527Q302.86026 317.1499 302.9376 317.89014Q303.00388 318.61935 303.8767 319.4922ZM313.41162 314.3546L312.75977 313.70276Q312.99176 314.97333 312.10788 315.8572Q311.7212 316.2439 311.23505 316.44278Q310.7489 316.61957 310.3622 316.56433Q309.96448 316.49802 309.5667 316.23285Q309.3126 316.06714 308.82648 315.581L306.10852 312.86307L306.85983 312.11176L309.30154 314.55347Q309.87607 315.12802 310.1302 315.29373Q310.48376 315.5147 310.8815 315.47052Q311.27924 315.4042 311.62177 315.0617Q311.95322 314.73026 312.07474 314.27728Q312.1963 313.8022 312.0195 313.38232Q311.85376 312.95145 311.29028 312.38797L308.93695 310.03464L309.67722 309.29437L314.07452 313.69168L313.41162 314.3546ZM316.7372 307.80283L317.56586 307.17307Q318.19565 308.0459 318.12933 308.97397Q318.06305 309.90204 317.3449 310.6202Q316.4389 311.52618 315.3009 311.49304Q314.1629 311.4378 313.05807 310.33295Q312.35095 309.62582 312.05264 308.8635Q311.75433 308.07904 311.96426 307.33878Q312.18524 306.5875 312.75977 306.01297Q313.46686 305.30585 314.28445 305.21747Q315.10205 305.10696 315.9086 305.64835L315.28986 306.48804Q314.74847 306.14554 314.26236 306.18973Q313.76517 306.22287 313.38953 306.59854Q312.82605 307.16202 312.8813 307.92435Q312.92548 308.67566 313.7983 309.5485Q314.69324 310.44342 315.4335 310.49866Q316.17374 310.5539 316.71512 310.01254Q317.15707 309.5706 317.17917 309.01816Q317.2123 308.45468 316.7372 307.80283ZM320.68155 305.75885L321.4439 306.30023Q321.1898 306.68692 320.94672 306.93Q320.53793 307.33878 320.19543 307.43823Q319.84186 307.5266 319.5325 307.41614Q319.2342 307.2946 318.56024 306.62064L316.03012 304.0905L315.48874 304.6319L314.9142 304.05737L315.4556 303.516L314.3618 302.42218L314.6601 301.24L316.19586 302.77573L316.94714 302.02444L317.52167 302.59897L316.7704 303.35025L319.3447 305.92456Q319.6651 306.24496 319.78662 306.30023Q319.91922 306.34442 320.06284 306.31128Q320.20648 306.27814 320.3722 306.1124Q320.5048 305.9798 320.68155 305.75885Z" fill-rule="nonzero"/><path fill="#000000" d="M341.7468 343.33496L335.67007 337.25824L336.88544 336.0429L342.61963 338.90448Q343.42615 339.3133 343.81287 339.5232Q343.58084 339.09232 343.16098 338.23053L340.38782 332.54053L341.47058 331.45776L347.54727 337.53445L346.77386 338.30786L341.69153 333.22552L345.0061 340.07562L344.2769 340.80484L337.34946 337.39084L342.52017 342.56155L341.7468 343.33496ZM350.3757 333.6233Q350.30942 334.39667 350.06635 334.927Q349.83432 335.4463 349.39236 335.88824Q348.66318 336.61743 347.9229 336.65057Q347.18268 336.68372 346.63025 336.1313Q346.30984 335.81088 346.1883 335.4021Q346.05573 334.98224 346.1441 334.5845Q346.22144 334.17572 346.4424 333.80005Q346.58603 333.52383 346.9838 333.01562Q347.7793 332.02124 348.0555 331.43567Q347.90082 331.28098 347.86768 331.24783Q347.40363 330.7838 347.0059 330.8059Q346.47556 330.8501 345.91208 331.41357Q345.3928 331.93286 345.3265 332.3748Q345.24918 332.8057 345.59167 333.39127L344.76303 334.02103Q344.39844 333.45755 344.3432 332.93826Q344.28793 332.41898 344.56415 331.8334Q344.84036 331.24783 345.40384 330.68436Q345.96732 330.12088 346.45346 329.89993Q346.9396 329.67896 347.3042 329.7121Q347.6688 329.74524 348.04446 329.9883Q348.2654 330.14297 348.7626 330.64017L349.757 331.63455Q350.79553 332.6731 351.11594 332.90512Q351.4474 333.1261 351.84515 333.23657L351.0607 334.02103Q350.7182 333.8995 350.3757 333.6233ZM348.64108 332.02124Q348.398 332.59576 347.71298 333.52383Q347.31525 334.05417 347.21582 334.33038Q347.10532 334.59555 347.1495 334.86072Q347.20477 335.11484 347.40363 335.31372Q347.70193 335.61203 348.1218 335.58994Q348.55267 335.55676 348.98358 335.1259Q349.41446 334.69498 349.5581 334.17572Q349.71277 333.6454 349.536 333.15924Q349.4034 332.7836 348.9173 332.29745L348.64108 332.02124ZM352.98315 332.09857L348.58582 327.70126L349.2598 327.0273L349.9227 327.69022Q349.71277 326.97205 349.77908 326.6185Q349.84537 326.24286 350.11053 325.9777Q350.48618 325.60205 351.1049 325.44736L351.54684 326.39752Q351.1049 326.50803 350.83972 326.7732Q350.5856 327.0273 350.5414 327.38086Q350.49722 327.7123 350.68506 328.0548Q350.95023 328.58514 351.41425 329.0492L353.7234 331.35834L352.98315 332.09857ZM355.82263 329.2591L349.74594 323.1824L350.49722 322.4311L353.96646 325.90036L353.93332 322.35376L354.9056 321.3815L354.8393 324.69604L359.46866 325.6131L358.5516 326.53012L354.8393 325.73462L354.82825 326.76215L356.5739 328.5078L355.82263 329.2591ZM361.65625 320.59705L362.51804 319.91205Q363.01523 320.7628 362.8937 321.63562Q362.77216 322.50845 362.0098 323.27078Q361.04858 324.23203 359.87744 324.20993Q358.71735 324.1768 357.64563 323.10507Q356.54077 322.0002 356.50763 320.81802Q356.46344 319.6248 357.36942 318.71878Q358.2533 317.8349 359.40234 317.87912Q360.56244 317.91226 361.65625 319.00604Q361.72253 319.07236 361.85513 319.20493L358.5737 322.48636Q359.3471 323.17136 360.09842 323.19345Q360.83865 323.2045 361.39108 322.65207Q361.7999 322.2433 361.87723 321.7461Q361.95456 321.2268 361.65625 320.59705ZM358.01022 321.83447L360.463 319.3817Q359.85535 318.86243 359.3471 318.81824Q358.5516 318.75195 357.98813 319.31543Q357.46887 319.8347 357.45782 320.53076Q357.45782 321.21576 358.01022 321.83447ZM365.97623 317.77966L366.7386 318.32104Q366.48447 318.70773 366.2414 318.9508Q365.8326 319.35962 365.4901 319.45905Q365.13654 319.54742 364.82718 319.43695Q364.52887 319.31543 363.85492 318.64145L361.3248 316.11133L360.78342 316.6527L360.2089 316.0782L360.75027 315.5368L359.65646 314.44302L359.95477 313.2608L361.49054 314.79657L362.24182 314.04526L362.81635 314.61978L362.06506 315.3711L364.63937 317.9454Q364.95978 318.2658 365.0813 318.32104Q365.2139 318.36523 365.3575 318.3321Q365.50116 318.29895 365.66687 318.1332Q365.79947 318.00064 365.97623 317.77966ZM361.92142 312.7305L361.05963 311.86868L361.81094 311.1174L362.67273 311.9792L361.92142 312.7305ZM367.13632 317.9454L362.739 313.54807L363.49033 312.79678L367.88763 317.1941L367.13632 317.9454ZM369.25766 315.82407L364.86032 311.42676L365.52325 310.76385L366.14197 311.38257Q365.90994 310.17828 366.82697 309.26123Q367.22473 308.8635 367.6998 308.67566Q368.18594 308.4768 368.58368 308.5431Q368.98145 308.60938 369.3571 308.85245Q369.60016 309.02924 370.11945 309.5485L372.82632 312.2554L372.0861 312.99564L369.41232 310.3219Q368.9483 309.85785 368.63895 309.72528Q368.3296 309.5927 367.976 309.6811Q367.61142 309.75842 367.3131 310.05673Q366.838 310.53183 366.79382 311.19473Q366.74963 311.83554 367.58932 312.67523L369.9979 315.08383L369.25766 315.82407ZM374.42838 311.38257L375.26807 310.76385Q375.6437 311.05112 376.0083 310.99585Q376.49445 310.92957 376.96954 310.4545Q377.48883 309.9352 377.5551 309.44907Q377.63245 308.95187 377.36728 308.48785Q377.20157 308.18954 376.4613 307.47137Q376.54968 308.53204 375.8205 309.26123Q374.91452 310.16724 373.76547 310.01254Q372.60538 309.8468 371.69937 308.94083Q371.0696 308.31107 370.76025 307.55975Q370.4509 306.78638 370.59454 306.0682Q370.73816 305.35007 371.32373 304.7645Q372.1082 303.98004 373.2462 304.10156L372.71585 303.57123L373.40085 302.88623L377.20157 306.68692Q378.22906 307.71445 378.45004 308.35526Q378.67102 308.99606 378.4611 309.69214Q378.2622 310.39923 377.5993 311.06216Q376.81485 311.8466 375.97516 311.9792Q375.13547 312.11176 374.42838 311.38257ZM372.4065 308.12323Q373.26828 308.98502 374.0085 309.04028Q374.74878 309.09552 375.26807 308.57623Q375.78735 308.05695 375.7321 307.3167Q375.6879 306.5654 374.8482 305.7257Q374.0417 304.91916 373.26828 304.87497Q372.50592 304.81973 371.99768 305.32797Q371.50052 305.82513 371.55576 306.5875Q371.611 307.32776 372.4065 308.12323Z" fill-rule="nonzero"/><path fill="#000000" d="M390.22345 346.25177Q388.7098 344.7381 388.66562 343.0808Q388.62143 341.40146 389.90305 340.1198Q390.75378 339.26907 391.83655 339.0039Q392.90826 338.7277 393.97998 339.0923Q395.05167 339.4569 395.96872 340.37393Q396.88574 341.29095 397.2393 342.3958Q397.59283 343.50067 397.28348 344.56134Q396.98517 345.61093 396.18967 346.40643Q395.32788 347.26822 394.24515 347.5334Q393.15134 347.7875 392.09067 347.43396Q391.03 347.0583 390.22345 346.25177ZM391.06314 345.43417Q392.168 346.53903 393.38336 346.58322Q394.60974 346.61636 395.50467 345.72144Q396.41064 344.81546 396.36646 343.6001Q396.31122 342.37372 395.12903 341.19153Q394.38876 340.45126 393.5822 340.15295Q392.7867 339.8436 392.0023 340.03143Q391.2068 340.2082 390.61017 340.8048Q389.75943 341.65555 389.7263 342.85986Q389.69315 344.06415 391.06314 345.43417ZM401.39355 344.38455L395.3058 338.2968L395.97977 337.62283L396.54324 338.1863Q396.45483 337.6118 396.58743 337.14777Q396.73105 336.67267 397.16196 336.2418Q397.72543 335.6783 398.44357 335.53467Q399.16174 335.39105 399.90198 335.71146Q400.6533 336.0208 401.28305 336.65057Q401.95703 337.32452 402.25534 338.10898Q402.5647 338.8824 402.3879 339.63367Q402.21112 340.38498 401.7029 340.89322Q401.32724 341.26886 400.87427 341.4125Q400.41022 341.54507 399.9904 341.5009L402.1338 343.6443L401.39355 344.38455ZM398.2005 339.8436Q399.05124 340.69434 399.80255 340.76062Q400.54282 340.8159 401.02893 340.32974Q401.52612 339.83255 401.45984 339.05914Q401.39355 338.28577 400.50964 337.4019Q399.66998 336.5622 398.91867 336.49588Q398.1563 336.41855 397.6702 336.9047Q397.1951 337.37976 397.27243 338.1863Q397.34976 338.99286 398.2005 339.8436ZM406.24387 333.32495L407.10565 332.63995Q407.6028 333.4907 407.4813 334.36353Q407.35974 335.23636 406.5974 335.99872Q405.63617 336.95993 404.46503 336.93784Q403.30493 336.9047 402.23325 335.83298Q401.1284 334.72812 401.09525 333.54593Q401.05103 332.3527 401.95703 331.44672Q402.8409 330.56284 403.98996 330.60703Q405.15005 330.64017 406.24387 331.73398Q406.31015 331.80026 406.44272 331.93283L403.16132 335.21426Q403.9347 335.89926 404.686 335.92136Q405.42627 335.9324 405.9787 335.37997Q406.38748 334.9712 406.4648 334.474Q406.54218 333.9547 406.24387 333.32495ZM402.59784 334.5624L405.0506 332.10962Q404.44293 331.59033 403.9347 331.54614Q403.13922 331.47986 402.57574 332.04333Q402.05646 332.56262 402.0454 333.25867Q402.0454 333.94366 402.59784 334.5624ZM409.59155 332.80566L405.19424 328.40836L405.8682 327.7344L406.53113 328.3973Q406.3212 327.67917 406.38748 327.3256Q406.45377 326.94995 406.71893 326.68478Q407.0946 326.30914 407.71332 326.15445L408.15524 327.10464Q407.71332 327.21512 407.44815 327.4803Q407.19403 327.7344 407.14984 328.08795Q407.10565 328.4194 407.29346 328.7619Q407.55862 329.29224 408.02267 329.7563L410.33182 332.06543L409.59155 332.80566ZM414.76227 326.55222Q414.69598 327.3256 414.4529 327.85593Q414.2209 328.3752 413.77896 328.81717Q413.04974 329.54636 412.3095 329.5795Q411.56924 329.61264 411.0168 329.0602Q410.6964 328.7398 410.5749 328.33102Q410.4423 327.91116 410.5307 327.51343Q410.60803 327.10464 410.829 326.72897Q410.97263 326.45276 411.37036 325.94452Q412.16586 324.95016 412.44208 324.3646Q412.2874 324.2099 412.25427 324.17676Q411.79022 323.71274 411.3925 323.73483Q410.86215 323.77902 410.29868 324.3425Q409.7794 324.8618 409.7131 325.3037Q409.63574 325.73462 409.97827 326.3202L409.14963 326.94995Q408.785 326.38647 408.72977 325.8672Q408.67453 325.3479 408.95074 324.76233Q409.22696 324.17676 409.79044 323.61328Q410.3539 323.0498 410.84006 322.82886Q411.32617 322.60788 411.6908 322.64102Q412.0554 322.67416 412.43103 322.91724Q412.652 323.0719 413.1492 323.5691L414.14355 324.56348Q415.18213 325.60202 415.50253 325.83405Q415.83398 326.05502 416.23175 326.1655L415.4473 326.94995Q415.1048 326.82843 414.76227 326.55222ZM413.02765 324.95016Q412.78458 325.5247 412.09958 326.45276Q411.70184 326.9831 411.6024 327.2593Q411.4919 327.52448 411.5361 327.78964Q411.59134 328.04376 411.79022 328.24265Q412.08853 328.54095 412.50836 328.51883Q412.93927 328.4857 413.37015 328.0548Q413.80106 327.6239 413.9447 327.10464Q414.09937 326.5743 413.92258 326.08817Q413.79 325.71252 413.30386 325.22638L413.02765 324.95016ZM418.342 322.7294L419.10437 323.27078Q418.85025 323.65747 418.60718 323.90054Q418.19836 324.30936 417.85587 324.40878Q417.50232 324.49716 417.19296 324.3867Q416.89465 324.26517 416.22067 323.5912L413.69058 321.06107L413.1492 321.60245L412.57468 321.02792L413.11606 320.48654L412.02225 319.39276L412.32056 318.21054L413.8563 319.7463L414.6076 318.995L415.18213 319.56952L414.43082 320.32083L417.00513 322.89514Q417.32553 323.21555 417.44708 323.27078Q417.57965 323.31497 417.7233 323.28183Q417.8669 323.2487 418.03265 323.08295Q418.16522 322.95038 418.342 322.7294ZM414.2872 317.68024L413.4254 316.81845L414.1767 316.06714L415.03848 316.92892L414.2872 317.68024ZM419.5021 322.89514L415.1048 318.4978L415.85608 317.74652L420.25342 322.14383L419.5021 322.89514ZM419.14856 318.85138Q417.92215 317.62497 418.01056 316.36545Q418.0879 315.31583 418.9055 314.49823Q419.81146 313.59225 420.9826 313.61435Q422.15375 313.61435 423.20337 314.66397Q424.0541 315.5147 424.28613 316.25497Q424.51816 316.9952 424.29718 317.76862Q424.0762 318.5199 423.50168 319.09442Q422.58466 320.01147 421.42456 320.00043Q420.26447 319.9673 419.14856 318.85138ZM419.9109 318.08902Q420.75058 318.9287 421.53503 318.98395Q422.33054 319.02814 422.88297 318.4757Q423.44644 317.91223 423.3912 317.1278Q423.33594 316.34335 422.47415 315.48157Q421.65656 314.66397 420.86108 314.61978Q420.07663 314.56454 419.5242 315.11697Q418.97177 315.66937 419.01596 316.46487Q419.06015 317.23828 419.9109 318.08902ZM426.57318 315.82407L422.17584 311.42676L422.83878 310.76382L423.4575 311.38254Q423.22546 310.17825 424.1425 309.26123Q424.54025 308.8635 425.01532 308.67566Q425.50146 308.47678 425.8992 308.5431Q426.29697 308.60938 426.6726 308.85245Q426.91568 309.0292 427.43497 309.5485L430.14185 312.2554L429.4016 312.99564L426.72784 310.3219Q426.26382 309.85785 425.95447 309.72528Q425.64508 309.59268 425.29153 309.6811Q424.92694 309.75842 424.62863 310.05673Q424.15353 310.53183 424.10934 311.19473Q424.06516 311.83554 424.90485 312.67523L427.31342 315.0838L426.57318 315.82407ZM429.90982 309.85785L430.52856 309.01816Q431.03677 309.39383 431.545 309.3496Q432.0643 309.29437 432.5836 308.7751Q433.09183 308.26688 433.13602 307.82492Q433.1802 307.36087 432.89294 307.0736Q432.63882 306.81952 432.27423 306.89685Q432.0201 306.9521 431.25775 307.4051Q430.23026 308.01276 429.7662 308.1895Q429.30215 308.3442 428.87128 308.24478Q428.44037 308.14532 428.10892 307.81387Q427.82166 307.5266 427.70013 307.13992Q427.57858 306.7532 427.64487 306.35547Q427.70013 306.05716 427.91003 305.67044Q428.11996 305.28375 428.4735 304.9302Q428.98175 304.42197 429.52313 304.18994Q430.0645 303.93582 430.50644 304.00214Q430.9484 304.06842 431.43454 304.42197L430.80478 305.2506Q430.4291 304.96335 429.99823 305.0186Q429.56732 305.05173 429.1254 305.49368Q428.61716 306.00192 428.57297 306.39966Q428.51773 306.78635 428.74973 307.01837Q428.89337 307.16202 429.09225 307.1841Q429.3132 307.2062 429.57837 307.0957Q429.73306 307.02942 430.4291 306.62064Q431.4456 306.0461 431.8875 305.86932Q432.32947 305.69257 432.76035 305.7699Q433.19125 305.84723 433.57794 306.23392Q433.9536 306.6096 434.0641 307.16202Q434.17456 307.69235 433.9536 308.28897Q433.7216 308.87454 433.2023 309.39383Q432.3405 310.2556 431.53397 310.35504Q430.72742 310.43237 429.90982 309.85785Z" fill-rule="nonzero"/><path fill="#000000" d="M445.7933 353.91946L439.71658 347.84277L441.81583 345.74353Q442.52292 345.03644 442.98697 344.74918Q443.62778 344.3514 444.30173 344.29617Q445.19666 344.21884 446.0695 344.62762Q446.94235 345.01434 447.74887 345.82086Q448.44495 346.51694 448.80954 347.21298Q449.18518 347.898 449.28464 348.50568Q449.38406 349.11334 449.2736 349.62158Q449.17413 350.11874 448.86478 350.64908Q448.54437 351.16837 447.99194 351.7208L445.7933 353.91946ZM445.88168 352.39474L447.17435 351.10208Q447.782 350.49442 448.01404 350.0414Q448.24606 349.58844 448.23502 349.17963Q448.24606 348.61615 447.9146 347.97534Q447.5942 347.3235 446.90918 346.63846Q445.959 345.6883 445.13037 345.50046Q444.30173 345.29056 443.683 345.55573Q443.23004 345.76562 442.52292 346.47275L441.2413 347.75436L445.88168 352.39474ZM454.40012 344.2299Q454.3338 345.0033 454.09076 345.5336Q453.85873 346.0529 453.41678 346.49484Q452.6876 347.22403 451.94733 347.25717Q451.20706 347.29034 450.65466 346.7379Q450.33423 346.4175 450.2127 346.0087Q450.08014 345.58887 450.16852 345.1911Q450.24585 344.78232 450.46683 344.40665Q450.61044 344.13046 451.0082 343.62222Q451.8037 342.62784 452.07993 342.04227Q451.92523 341.8876 451.8921 341.85446Q451.42804 341.3904 451.0303 341.4125Q450.49997 341.4567 449.9365 342.02017Q449.4172 342.53946 449.35092 342.98138Q449.2736 343.4123 449.6161 343.99786L448.78745 344.62762Q448.42285 344.06415 448.3676 343.54486Q448.31235 343.0256 448.58856 342.44003Q448.86478 341.85446 449.42825 341.291Q449.99173 340.7275 450.47787 340.50653Q450.96402 340.28555 451.3286 340.3187Q451.6932 340.35184 452.06885 340.5949Q452.28983 340.7496 452.78702 341.24677L453.78137 342.24115Q454.81995 343.27972 455.14035 343.51172Q455.4718 343.7327 455.86957 343.8432L455.0851 344.62762Q454.7426 344.5061 454.40012 344.2299ZM452.6655 342.62784Q452.42242 343.20236 451.7374 344.13046Q451.33966 344.66077 451.24023 344.93698Q451.12973 345.20215 451.17392 345.46732Q451.2292 345.72144 451.42804 345.92032Q451.72635 346.21863 452.1462 346.19653Q452.5771 346.1634 453.008 345.73248Q453.43887 345.3016 453.58252 344.78232Q453.73718 344.25198 453.56042 343.76584Q453.42783 343.3902 452.9417 342.90405L452.6655 342.62784ZM457.97983 340.40707L458.7422 340.94846Q458.48807 341.33517 458.245 341.57825Q457.8362 341.98703 457.49368 342.08646Q457.14014 342.17487 456.83078 342.06436Q456.53247 341.94284 455.85852 341.26886L453.3284 338.73877L452.78702 339.28015L452.2125 338.70563L452.75388 338.16425L451.66006 337.07043L451.95837 335.88824L453.4941 337.42398L454.24542 336.67267L454.81995 337.2472L454.06863 337.9985L456.64297 340.5728Q456.96338 340.89322 457.0849 340.94846Q457.2175 340.99268 457.3611 340.9595Q457.50476 340.92636 457.67047 340.76065Q457.80307 340.62805 457.97983 340.40707ZM461.47116 337.1588Q461.40488 337.93222 461.1618 338.46255Q460.9298 338.9818 460.48785 339.42377Q459.75864 340.15298 459.0184 340.18613Q458.27814 340.21927 457.7257 339.66684Q457.4053 339.34644 457.28378 338.93762Q457.15118 338.5178 457.2396 338.12003Q457.31693 337.71124 457.5379 337.3356Q457.68152 337.0594 458.07928 336.55115Q458.87476 335.5568 459.15097 334.9712Q458.9963 334.81653 458.96317 334.7834Q458.4991 334.31934 458.10138 334.34143Q457.57104 334.38562 457.00757 334.9491Q456.48828 335.46838 456.422 335.91034Q456.34464 336.34122 456.68716 336.9268L455.85852 337.55658Q455.4939 336.9931 455.43866 336.47382Q455.38342 335.95453 455.65964 335.36896Q455.93585 334.7834 456.49933 334.2199Q457.0628 333.65643 457.54895 333.43546Q458.03506 333.21448 458.3997 333.24762Q458.76428 333.2808 459.13992 333.52383Q459.3609 333.67853 459.8581 334.17572L460.85245 335.17007Q461.89102 336.20865 462.21143 336.44067Q462.54288 336.66162 462.94064 336.77213L462.1562 337.55658Q461.8137 337.43503 461.47116 337.1588ZM459.73654 335.5568Q459.49347 336.13132 458.80847 337.0594Q458.41074 337.58972 458.31128 337.86594Q458.2008 338.1311 458.245 338.39624Q458.30023 338.65036 458.4991 338.84924Q458.79742 339.14755 459.2173 339.12546Q459.64816 339.09232 460.07907 338.6614Q460.50995 338.23053 460.6536 337.71124Q460.80826 337.1809 460.63147 336.69476Q460.4989 336.31912 460.01276 335.83298L459.73654 335.5568ZM465.63647 334.07626L461.89102 325.66833L462.7528 324.80655L471.31543 328.3973L470.40945 329.3033L467.8462 328.17636L465.31607 330.70648L466.4872 333.22552L465.63647 334.07626ZM464.8962 329.82257L466.95126 327.76755L464.64212 326.71796Q463.58145 326.2539 462.9517 325.8893Q463.4157 326.5964 463.7803 327.38086L464.8962 329.82257ZM471.16074 328.552L466.76343 324.1547L467.42633 323.49176L468.04504 324.11047Q467.81305 322.9062 468.73007 321.98917Q469.1278 321.59143 469.6029 321.4036Q470.08905 321.2047 470.4868 321.27103Q470.88452 321.3373 471.2602 321.58038Q471.50327 321.75714 472.02252 322.27643L474.72943 324.9833L473.98917 325.72357L471.31543 323.04984Q470.85138 322.5858 470.54202 322.45322Q470.23267 322.32062 469.87912 322.409Q469.51453 322.48636 469.21622 322.78467Q468.74112 323.25974 468.69693 323.92267Q468.65274 324.56348 469.4924 325.40317L471.901 327.81174L471.16074 328.552ZM478.44174 320.18826Q478.37546 320.96164 478.1324 321.49197Q477.90036 322.01126 477.4584 322.45322Q476.72922 323.1824 475.98895 323.21555Q475.24872 323.2487 474.6963 322.69626Q474.3759 322.37585 474.25433 321.96707Q474.12177 321.5472 474.21014 321.14948Q474.28748 320.7407 474.50845 320.36502Q474.6521 320.0888 475.04984 319.5806Q475.84534 318.5862 476.12155 318.00064Q475.96686 317.84598 475.93372 317.8128Q475.46967 317.3488 475.07193 317.37088Q474.5416 317.41507 473.97812 317.97855Q473.45883 318.49783 473.39255 318.93976Q473.31522 319.37067 473.6577 319.95624L472.82907 320.586Q472.46448 320.02252 472.40924 319.50323Q472.35397 318.98395 472.6302 318.39838Q472.9064 317.8128 473.46988 317.24933Q474.03336 316.68585 474.5195 316.4649Q475.00565 316.24393 475.37024 316.27707Q475.73483 316.3102 476.1105 316.55328Q476.33145 316.70798 476.82864 317.20514L477.82303 318.19952Q478.86157 319.23807 479.18198 319.4701Q479.51346 319.69107 479.9112 319.80154L479.12674 320.586Q478.78424 320.46448 478.44174 320.18826ZM476.70712 318.5862Q476.46405 319.16074 475.77902 320.0888Q475.3813 320.61914 475.28186 320.89536Q475.17136 321.16052 475.21558 321.4257Q475.2708 321.6798 475.46967 321.8787Q475.76797 322.177 476.18784 322.1549Q476.6187 322.12173 477.04962 321.69086Q477.4805 321.25995 477.62415 320.7407Q477.7788 320.21036 477.60205 319.7242Q477.46945 319.34857 476.98334 318.86243L476.70712 318.5862ZM481.03815 318.6746L474.96146 312.5979L475.71274 311.84662L481.78946 317.9233L481.03815 318.6746ZM484.83884 318.25476L484.05438 317.6471Q484.36377 317.4703 484.55157 317.2825Q484.79465 317.03943 484.84988 316.8074Q484.92725 316.57538 484.88303 316.3323Q484.8278 316.1445 484.55157 315.5368Q484.5074 315.47052 484.4411 315.29376L478.35333 312.56476L479.15988 311.7582L482.61807 313.38235Q483.281 313.6917 483.966 314.08945Q483.5793 313.4376 483.26996 312.7747L481.6458 309.2723L482.38608 308.53204L485.19238 314.67502Q485.63434 315.6694 485.7669 316.08923Q485.9437 316.66376 485.84427 317.09467Q485.7669 317.52554 485.41336 317.87912Q485.20343 318.08902 484.83884 318.25476ZM485.104 311.9792L485.72272 311.1395Q486.23096 311.51514 486.7392 311.47095Q487.25848 311.4157 487.77774 310.89642Q488.28598 310.38818 488.33017 309.94626Q488.3744 309.4822 488.08713 309.19495Q487.833 308.94083 487.46838 309.0182Q487.2143 309.07343 486.45193 309.5264Q485.4244 310.1341 484.9604 310.31085Q484.49634 310.46555 484.06543 310.3661Q483.63455 310.26666 483.3031 309.9352Q483.01584 309.64795 482.8943 309.26123Q482.77277 308.87454 482.83905 308.4768Q482.8943 308.1785 483.10422 307.79178Q483.31415 307.4051 483.6677 307.05154Q484.17593 306.5433 484.71732 306.31128Q485.2587 306.05716 485.70062 306.12344Q486.14258 306.18976 486.6287 306.5433L485.99893 307.37195Q485.6233 307.0847 485.19238 307.13992Q484.7615 307.17307 484.31955 307.61502Q483.81134 308.12323 483.76712 308.521Q483.71188 308.90768 483.9439 309.1397Q484.08755 309.28336 484.2864 309.30545Q484.5074 309.32755 484.77255 309.21704Q484.92725 309.15076 485.6233 308.74197Q486.63977 308.16745 487.0817 307.99066Q487.52365 307.81387 487.95453 307.89124Q488.38544 307.96857 488.77213 308.35526Q489.14777 308.73093 489.25827 309.28336Q489.36874 309.81366 489.14777 310.41028Q488.91574 310.99588 488.39648 311.51514Q487.5347 312.37692 486.72815 312.47638Q485.9216 312.5537 485.104 311.9792ZM492.62805 305.75885L493.3904 306.30023Q493.1363 306.68692 492.89322 306.93Q492.48444 307.3388 492.14194 307.43823Q491.7884 307.5266 491.479 307.41614Q491.1807 307.29462 490.50674 306.62064L487.97662 304.0905L487.43524 304.6319L486.86072 304.05737L487.4021 303.516L486.3083 302.4222L486.6066 301.24L488.14236 302.77576L488.89365 302.02444L489.46817 302.59897L488.7169 303.35028L491.2912 305.9246Q491.6116 306.245 491.73312 306.30023Q491.86572 306.34442 492.00934 306.31128Q492.15298 306.27814 492.3187 306.1124Q492.4513 305.97983 492.62805 305.75885Z" fill-rule="nonzero"/><path fill="#000000" d="M504.61142 348.1521L505.61682 347.56653Q506.34604 348.804 506.21344 349.97513Q506.08087 351.14627 505.13068 352.09644Q504.14737 353.07977 503.1309 353.30072Q502.11444 353.5217 501.04272 353.09082Q499.95996 352.64886 499.08713 351.77603Q498.13696 350.82587 497.79446 349.75415Q497.45197 348.68243 497.75027 347.65494Q498.05963 346.61636 498.86618 345.8098Q499.77216 344.90384 500.85492 344.74915Q501.9487 344.58344 503.03146 345.18005L502.4238 346.16336Q501.55096 345.7104 500.84384 345.82086Q500.13675 345.90924 499.52908 346.51694Q498.833 347.21298 498.70044 348.03058Q498.56787 348.82608 498.93246 349.5884Q499.3081 350.33972 499.91577 350.9474Q500.68918 351.7208 501.48468 352.07434Q502.29123 352.41684 503.05356 352.22903Q503.81592 352.0412 504.3794 351.47772Q505.05334 350.80377 505.13068 349.95303Q505.2191 349.09125 504.61142 348.1521ZM508.65515 348.3731L502.57846 342.2964L503.32974 341.5451L509.40646 347.6218L508.65515 348.3731ZM505.58365 341.01477L504.72186 340.15298L505.47318 339.40167L506.33496 340.26346L505.58365 341.01477ZM510.79858 346.22968L506.40125 341.83237L507.15256 341.08105L511.54987 345.4784L510.79858 346.22968ZM514.51086 339.68893L515.3727 339.00394Q515.8699 339.85468 515.7483 340.7275Q515.6268 341.60034 514.86444 342.3627Q513.9032 343.3239 512.73206 343.30182Q511.57196 343.26868 510.50027 342.19696Q509.39542 341.0921 509.36227 339.9099Q509.31805 338.71667 510.22406 337.8107Q511.10794 336.92682 512.25696 336.971Q513.41705 337.00415 514.51086 338.09796Q514.57715 338.16425 514.7098 338.2968L511.42834 341.57825Q512.2017 342.26324 512.95306 342.28534Q513.6933 342.2964 514.2457 341.744Q514.65454 341.33517 514.7319 340.83798Q514.8092 340.31873 514.51086 339.68893ZM510.86487 340.9264L513.3176 338.4736Q512.70996 337.9543 512.2017 337.91013Q511.40625 337.84384 510.84277 338.40732Q510.3235 338.9266 510.31244 339.62265Q510.31244 340.30768 510.86487 340.9264ZM517.8696 339.15863L513.4723 334.7613L514.13525 334.0984L514.75397 334.7171Q514.5219 333.51282 515.43896 332.5958Q515.83673 332.19803 516.31177 332.0102Q516.7979 331.81134 517.1957 331.87762Q517.59344 331.9439 517.96906 332.18698Q518.21216 332.36377 518.73145 332.88306L521.4383 335.58994L520.69806 336.3302L518.0243 333.65643Q517.5603 333.1924 517.2509 333.0598Q516.9416 332.92725 516.588 333.01562Q516.2234 333.09296 515.9251 333.39127Q515.45 333.86636 515.4058 334.52927Q515.36163 335.1701 516.2013 336.00977L518.60986 338.41837L517.8696 339.15863ZM523.78064 331.9218L524.54297 332.4632Q524.2888 332.84988 524.0458 333.09296Q523.63696 333.50177 523.2945 333.6012Q522.9409 333.68958 522.6316 333.5791Q522.33325 333.45758 521.6593 332.7836L519.12915 330.25348L518.58777 330.79486L518.01324 330.22034L518.5546 329.67896L517.4608 328.58517L517.75916 327.40295L519.2949 328.93872L520.0462 328.1874L520.6207 328.76193L519.86945 329.51324L522.4437 332.08755Q522.76416 332.40796 522.8857 332.4632Q523.01825 332.5074 523.16187 332.47424Q523.30554 332.4411 523.47125 332.27536Q523.6038 332.1428 523.78064 331.9218ZM522.8194 330.56284L522.0681 329.81155L524.3662 327.51346L525.1175 328.26474L522.8194 330.56284ZM527.9459 329.08234L524.1231 325.25955L523.4602 325.92245L522.8857 325.34793L523.5486 324.68503L523.0735 324.20993Q522.6316 323.768 522.49896 323.48074Q522.31116 323.07193 522.39954 322.63Q522.49896 322.177 522.9851 321.69086Q523.30554 321.37045 523.7585 321.07214L524.2888 321.82346Q524.0237 322.02234 523.8138 322.23224Q523.47125 322.57474 523.47125 322.862Q523.4823 323.1382 523.88007 323.53598L524.2888 323.94476L525.15063 323.08298L525.72516 323.6575L524.86334 324.5193L528.68616 328.3421L527.9459 329.08234ZM532.2217 323.7238Q532.1554 324.4972 531.91235 325.02753Q531.6803 325.5468 531.2384 325.98874Q530.50916 326.71796 529.7689 326.7511Q529.0287 326.78424 528.47626 326.2318Q528.1558 325.9114 528.0343 325.50262Q527.90173 325.08276 527.9901 324.68503Q528.06744 324.2762 528.2884 323.90057Q528.43207 323.62436 528.8298 323.11612Q529.6253 322.12177 529.9015 321.5362Q529.7468 321.3815 529.7137 321.34836Q529.24963 320.88434 528.85187 320.90643Q528.32153 320.95062 527.75806 321.5141Q527.23883 322.0334 527.1725 322.4753Q527.09515 322.90622 527.4377 323.4918L526.609 324.12155Q526.24445 323.55807 526.1892 323.0388Q526.134 322.5195 526.41016 321.93393Q526.6864 321.34836 527.2499 320.78488Q527.81335 320.2214 528.29944 320.00043Q528.7856 319.77948 529.1502 319.81262Q529.51483 319.84576 529.89044 320.08884Q530.11145 320.2435 530.6086 320.7407L531.60297 321.73508Q532.64154 322.77362 532.962 323.00565Q533.2934 323.22662 533.69116 323.3371L532.9067 324.12155Q532.5642 324.0 532.2217 323.7238ZM530.48706 322.12177Q530.244 322.6963 529.559 323.62436Q529.16125 324.1547 529.0618 324.4309Q528.95135 324.69608 528.99554 324.96124Q529.0508 325.21536 529.24963 325.4142Q529.548 325.71252 529.9678 325.69043Q530.3987 325.6573 530.8296 325.2264Q531.2605 324.7955 531.4041 324.2762Q531.5588 323.7459 531.382 323.25977Q531.24945 322.88412 530.7633 322.39798L530.48706 322.12177ZM536.09973 317.70233L536.9284 317.07257Q537.55817 317.9454 537.4919 318.8735Q537.42554 319.80157 536.7074 320.5197Q535.80145 321.4257 534.66345 321.39255Q533.52545 321.3373 532.4206 320.23245Q531.71344 319.52536 531.41516 318.763Q531.1168 317.97855 531.3268 317.2383Q531.5477 316.487 532.12225 315.91248Q532.82935 315.20538 533.647 315.11697Q534.46454 315.0065 535.2711 315.54788L534.6524 316.38757Q534.111 316.04507 533.6249 316.08926Q533.1277 316.1224 532.752 316.49805Q532.18854 317.06152 532.2438 317.82388Q532.28796 318.57516 533.1608 319.44803Q534.0558 320.34296 534.796 320.3982Q535.53625 320.45343 536.07764 319.91205Q536.5196 319.47012 536.5417 318.9177Q536.5748 318.35422 536.09973 317.70233ZM533.8679 312.7305L533.00616 311.8687L533.75745 311.1174L534.6192 311.9792L533.8679 312.7305ZM539.0828 317.9454L534.68555 313.5481L535.4368 312.79678L539.83417 317.19412L539.0828 317.9454ZM541.20416 315.8241L536.8068 311.42676L537.4697 310.76385L538.0885 311.38257Q537.85645 310.17828 538.7735 309.26126Q539.1712 308.8635 539.6463 308.6757Q540.13245 308.4768 540.5302 308.5431Q540.928 308.6094 541.3036 308.85245Q541.5467 309.02924 542.066 309.54852L544.7728 312.2554L544.0326 312.99567L541.3588 310.32193Q540.8948 309.85788 540.58545 309.72528Q540.27606 309.5927 539.92255 309.6811Q539.5579 309.75845 539.25964 310.05676Q538.78455 310.53183 538.74036 311.19476Q538.69617 311.83557 539.5358 312.67526L541.9444 315.08383L541.20416 315.8241ZM546.3749 311.38257L547.2146 310.76385Q547.5902 311.05112 547.95483 310.99588Q548.441 310.9296 548.9161 310.4545Q549.4353 309.9352 549.50165 309.4491Q549.579 308.9519 549.3138 308.48785Q549.1481 308.18954 548.40784 307.4714Q548.4962 308.53204 547.767 309.26126Q546.861 310.16724 545.712 310.01254Q544.5519 309.84683 543.6459 308.94086Q543.0161 308.3111 542.7068 307.55978Q542.3974 306.78638 542.541 306.06824Q542.6847 305.35007 543.27026 304.7645Q544.0547 303.98004 545.1927 304.1016L544.66235 303.57126L545.34735 302.88626L549.1481 306.68695Q550.1756 307.71445 550.39655 308.3553Q550.6175 308.9961 550.4076 309.69214Q550.20874 310.39926 549.54584 311.06216Q548.76135 311.84662 547.9217 311.9792Q547.082 312.1118 546.3749 311.38257ZM544.353 308.12326Q545.2148 308.98505 545.955 309.04028Q546.6953 309.09552 547.2146 308.57623Q547.7338 308.05698 547.6786 307.3167Q547.6344 306.5654 546.79474 305.7257Q545.98816 304.9192 545.2148 304.875Q544.45245 304.81973 543.9442 305.32797Q543.447 305.82516 543.50226 306.58752Q543.5575 307.32776 544.353 308.12326Z" fill-rule="nonzero"/><path fill="#757575" d="M20.128124 37.55L20.128124 23.2375L26.471874 23.2375Q28.378124 23.2375 29.378124 23.628124Q30.378124 24.003124 30.971874 24.9875Q31.565624 25.95625 31.565624 27.14375Q31.565624 28.659374 30.58125 29.70625Q29.596874 30.753124 27.534374 31.034374Q28.284374 31.39375 28.675 31.753124Q29.503124 32.503124 30.253124 33.659374L32.7375 37.55L30.3625 37.55L28.45625 34.565624Q27.628124 33.284374 27.096874 32.596874Q26.565624 31.909374 26.128124 31.64375Q25.70625 31.3625 25.26875 31.253124Q24.940624 31.190624 24.221874 31.190624L22.01875 31.190624L22.01875 37.55L20.128124 37.55ZM22.01875 29.55L26.096874 29.55Q27.39375 29.55 28.1125 29.284374Q28.846874 29.01875 29.221874 28.425Q29.6125 27.83125 29.6125 27.14375Q29.6125 26.128124 28.878124 25.471874Q28.14375 24.815624 26.55 24.815624L22.01875 24.815624L22.01875 29.55ZM33.221874 32.3625Q33.221874 29.4875 34.815624 28.096874Q36.159374 26.940624 38.08125 26.940624Q40.221874 26.940624 41.565624 28.346874Q42.925 29.753124 42.925 32.221874Q42.925 34.221874 42.33125 35.378124Q41.7375 36.51875 40.58125 37.159374Q39.440624 37.784374 38.08125 37.784374Q35.89375 37.784374 34.55 36.39375Q33.221874 34.9875 33.221874 32.3625ZM35.01875 32.3625Q35.01875 34.3625 35.878124 35.346874Q36.753124 36.33125 38.08125 36.33125Q39.39375 36.33125 40.253124 35.346874Q41.128124 34.346874 41.128124 32.3Q41.128124 30.378124 40.253124 29.39375Q39.378124 28.39375 38.08125 28.39375Q36.753124 28.39375 35.878124 29.39375Q35.01875 30.378124 35.01875 32.3625ZM44.83125 37.55L44.83125 23.2375L46.58125 23.2375L46.58125 37.55L44.83125 37.55ZM55.971874 34.20625L57.784374 34.440624Q57.3625 36.01875 56.190624 36.909374Q55.034374 37.784374 53.221874 37.784374Q50.95625 37.784374 49.6125 36.39375Q48.284374 34.9875 48.284374 32.45625Q48.284374 29.83125 49.628124 28.39375Q50.971874 26.940624 53.128124 26.940624Q55.20625 26.940624 56.51875 28.3625Q57.846874 29.76875 57.846874 32.346874Q57.846874 32.503124 57.83125 32.815624L50.096874 32.815624Q50.190624 34.51875 51.065624 35.425Q51.940624 36.33125 53.2375 36.33125Q54.20625 36.33125 54.878124 35.83125Q55.565624 35.315624 55.971874 34.20625ZM50.190624 31.3625L55.9875 31.3625Q55.878124 30.065624 55.33125 29.409374Q54.4875 28.39375 53.14375 28.39375Q51.940624 28.39375 51.1125 29.20625Q50.284374 30.003124 50.190624 31.3625ZM59.159374 34.45625L60.909374 34.175Q61.05 35.221874 61.721874 35.784374Q62.39375 36.33125 63.596874 36.33125Q64.8 36.33125 65.37813 35.846874Q65.97188 35.346874 65.97188 34.690624Q65.97188 34.096874 65.45625 33.753124Q65.09688 33.51875 63.659374 33.159374Q61.721874 32.659374 60.971874 32.315624Q60.2375 31.95625 59.846874 31.33125Q59.45625 30.690624 59.45625 29.925Q59.45625 29.2375 59.76875 28.64375Q60.096874 28.05 60.64375 27.659374Q61.05 27.3625 61.753124 27.159374Q62.471874 26.940624 63.284374 26.940624Q64.50313 26.940624 65.425 27.3Q66.34688 27.64375 66.78438 28.253124Q67.22188 28.846874 67.39375 29.846874L65.675 30.08125Q65.55 29.284374 64.9875 28.846874Q64.425 28.39375 63.409374 28.39375Q62.190624 28.39375 61.675 28.8Q61.159374 29.190624 61.159374 29.721874Q61.159374 30.065624 61.378124 30.346874Q61.58125 30.628124 62.05 30.815624Q62.315624 30.909374 63.596874 31.253124Q65.47188 31.753124 66.20625 32.08125Q66.94063 32.39375 67.3625 33.003124Q67.78438 33.596874 67.78438 34.503124Q67.78438 35.378124 67.26875 36.159374Q66.75313 36.940624 65.78438 37.3625Q64.81563 37.784374 63.596874 37.784374Q61.58125 37.784374 60.51875 36.940624Q59.45625 36.096874 59.159374 34.45625Z" fill-rule="nonzero"/></svg>