<svg height="71" viewBox="0 0 50 71" width="50" xmlns="http://www.w3.org/2000/svg"><g fill="#1b1b1b" fill-rule="evenodd"><path d="m25.0176554 38.2325523c-7.2387006-.0190897-13.0975663-5.8823506-13.0975663-13.1337046 0-7.2486268 5.8588657-13.1323411 13.081269-13.1500672 7.2196871 0 13.0785528 5.8837142 13.0785528 13.1500672 0 7.2677165-5.8588657 13.1337046-13.0622555 13.1337046zm-.0162973-38.2325523c-13.8064972 0-25.0013581 11.2574611-25.0013581 25.0988477 0 4.8815057 1.37983485 9.4357596 3.79318774 13.2618782l19.79302476 31.8565969c.2906345.4554254.8148631.7826772 1.3961321.7826772.6355933 0 1.1435246-.3272518 1.4341591-.7826772l19.7916667-31.8565969c2.4119947-3.8261186 3.7918296-8.3803725 3.7918296-13.2618782 0-13.8413866-11.1758475-25.07975801-24.9986419-25.0988477z"/><path d="m25.0013581 33.1669675c-4.4831052 0-8.1269013-3.6584021-8.1269013-8.158114 0-4.5174381 3.6437961-8.1594777 8.1269013-8.1594777 4.4817471 0 8.1241851 3.6420396 8.1241851 8.1594777 0 4.4997119-3.642438 8.158114-8.1241851 8.158114z"/></g></svg>