<svg height="50" viewBox="0 0 36 50" width="36" xmlns="http://www.w3.org/2000/svg"><path d="m17.50591 28c-5.25368-.01281-9.50591-4.24936-9.50591-9.4867 0-5.25014 4.25223-9.50049 9.49409-9.5133 5.23988 0 9.50591 4.26316 9.50591 9.5133s-4.26603 9.4867-9.49409 9.4867zm.48822-28c-9.94446 0-17.99413 7.92896-17.99413 17.68 0 3.4386.98016 6.63324 2.71844 9.3409l14.26814 22.42777c.19759.3333.57518.55133 1.00755.55133.44411 0 .82267-.21803 1.01929-.55133l14.26912-22.42777c1.7373-2.70766 2.71746-5.9023 2.71746-9.3409 0-9.75104-8.04967-17.68-18.00587-17.68z" fill="#1d1d1d" fill-rule="evenodd"/></svg>