<?xml version="1.0" encoding="UTF-8"?>
<svg width="52px" height="13px" viewBox="0 0 52 13" version="1.1" xmlns="http://www.w3.org/2000/svg" xmlns:xlink="http://www.w3.org/1999/xlink">
    <!-- Generator: Sketch 53.2 (72643) - https://sketchapp.com -->
    <title>logo</title>
    <desc>Created with Sketch.</desc>
    <g id="Page-1" stroke="none" stroke-width="1" fill="none" fill-rule="evenodd">
        <g id="Desktop-HD" transform="translate(-92.000000, -946.000000)" fill="#000000" fill-rule="nonzero">
            <g id="Group" transform="translate(59.000000, 931.000000)">
                <g id="logo" transform="translate(33.000000, 15.000000)">
                    <g id="logo_black" transform="translate(0.000000, 0.342799)">
                        <path d="M27.7509128,11.7606491 L24.6709939,11.7606491 L24.6709939,0.458823529 L27.7509128,0.458823529 L27.7509128,2.30466531 C28.450328,0.922349992 29.8949655,0.0782688837 31.4425963,0.147667343 C34.464503,0.147667343 35.5667343,2.19918864 35.5667343,4.7148073 L35.5667343,11.7606491 L32.4920892,11.7606491 L32.4920892,5.32657201 C32.4920892,3.5862069 31.801217,2.5841785 30.2876268,2.5841785 C28.7740365,2.5841785 27.7509128,3.81825558 27.7509128,5.71156187 L27.7509128,11.7606491 Z" id="Path"></path>
                        <path d="M42.6494929,12.0718053 C39.1634888,12.0718053 36.7006085,9.63529412 36.7006085,6.12292089 C36.7006085,2.61054767 39.1634888,0.147667343 42.6494929,0.147667343 C46.135497,0.147667343 48.6194726,2.63691684 48.6194726,6.12292089 C48.6194726,9.60892495 46.1618661,12.0718053 42.6494929,12.0718053 Z M42.6494929,9.73549696 C44.5427992,9.73549696 45.5184584,8.24827586 45.5184584,6.12292089 C45.5184584,3.99756592 44.5427992,2.48397566 42.6494929,2.48397566 C40.7561866,2.48397566 39.8016227,3.97119675 39.8016227,6.12292089 C39.8016227,8.27464503 40.7772819,9.73549696 42.6494929,9.73549696 Z" id="Shape"></path>
                        <path d="M7.82109533,0.458823529 L10.8957404,0.458823529 L10.8957404,11.7606491 L7.82109533,11.7606491 L7.82109533,9.9148073 C7.12066509,11.2961666 5.67670814,12.1398501 4.12941176,12.0718053 C1.10223124,12.0718053 0,10.020284 0,7.50466531 L0,0.458823529 L3.07464503,0.458823529 L3.07464503,6.89290061 C3.07464503,8.63326572 3.77079108,9.63529412 5.27910751,9.63529412 C6.78742394,9.63529412 7.82109533,8.40649087 7.82109533,6.50791075 L7.82109533,0.458823529 Z" id="Path"></path>
                        <path d="M20.6312373,8.54888438 C20.0778061,9.37196203 19.1190418,9.82707164 18.1314402,9.73549696 C16.5014256,9.78634311 15.1312621,8.5217573 15.0515213,6.89290061 L23.5371197,6.89290061 L23.5371197,5.80121704 C23.5371197,2.71602434 21.6227181,0.147667343 17.9310345,0.147667343 C14.5452333,0.147667343 12.0085193,2.71602434 12.0085193,6.27586207 C12.0085193,9.8356998 14.5188641,12.0770791 18.0048682,12.0770791 C20.2146045,12.0770791 21.8758621,11.2068966 22.798783,9.68275862 L20.6312373,8.54888438 Z M17.9310345,2.40486815 C19.6450304,2.40486815 20.4413793,3.66004057 20.5679513,4.96795132 L15.1042596,4.96795132 C15.3890467,3.55983773 16.23286,2.40486815 17.9310345,2.40486815 Z" id="Shape"></path>
                        <path d="M50.2912779,12.0085193 L50.2912779,12.0085193 C49.4378691,12.0085193 48.7460446,11.3166948 48.7460446,10.463286 L48.7460446,10.4 C48.7460446,9.54659123 49.4378691,8.85476673 50.2912779,8.85476673 L50.2912779,8.85476673 C51.1446867,8.85476673 51.8365112,9.54659123 51.8365112,10.4 L51.8365112,10.463286 C51.8365112,11.3166948 51.1446867,12.0085193 50.2912779,12.0085193 L50.2912779,12.0085193 Z" id="Path"></path>
                    </g>
                </g>
            </g>
        </g>
    </g>
</svg>